#N canvas 212 235 473 430 10;
#X obj 125 141 symbol G#;
#X obj 30 141 symbol filter_;
#X msg 190 141 36;
#X obj 190 163 makefilename %c1;
#X text 215 140 '$';
#X text 330 312 \$2: '\$0' value;
#X text 330 292 \$1: subpatch prefix;
#X text 330 332 \$3: note i.d.;
#X text 330 352 \$4: '\$1' (un-expanded);
#X obj 30 189 pack s \$0 s s;
#N canvas 87 108 362 348 filter_bank 0;
#N canvas 0 22 450 300 filter_E1 0;
#X obj 20 10 r~ 1004-audioIn;
#X obj 27 35 r 1004-OSC;
#X obj 27 60 routeOSC /E1;
#X msg 20 111 /c::ntr::l/E1/level \$1;
#X obj 20 136 s GLOBAL_OSC;
#X obj 20 86 filtercore;
#X connect 0 0 5 0;
#X connect 1 0 2 0;
#X connect 2 0 5 1;
#X connect 3 0 4 0;
#X connect 5 0 3 0;
#X restore 0 0 pd filter_E1;
#N canvas 0 22 450 300 filter_F1 0;
#X obj 20 10 r~ 1004-audioIn;
#X obj 27 35 r 1004-OSC;
#X obj 27 60 routeOSC /F1;
#X msg 20 111 /c::ntr::l/F1/level \$1;
#X obj 20 136 s GLOBAL_OSC;
#X obj 20 86 filtercore;
#X connect 0 0 5 0;
#X connect 1 0 2 0;
#X connect 2 0 5 1;
#X connect 3 0 4 0;
#X connect 5 0 3 0;
#X restore 0 0 pd filter_F1;
#N canvas 0 22 450 300 filter_F#1 0;
#X obj 20 10 r~ 1004-audioIn;
#X obj 27 35 r 1004-OSC;
#X obj 27 60 routeOSC /F#1;
#X msg 20 111 /c::ntr::l/F#1/level \$1;
#X obj 20 136 s GLOBAL_OSC;
#X obj 20 86 filtercore;
#X connect 0 0 5 0;
#X connect 1 0 2 0;
#X connect 2 0 5 1;
#X connect 3 0 4 0;
#X connect 5 0 3 0;
#X restore 0 0 pd filter_F#1;
#N canvas 0 22 450 300 filter_G1 0;
#X obj 20 10 r~ 1004-audioIn;
#X obj 27 35 r 1004-OSC;
#X obj 27 60 routeOSC /G1;
#X msg 20 111 /c::ntr::l/G1/level \$1;
#X obj 20 136 s GLOBAL_OSC;
#X obj 20 86 filtercore;
#X connect 0 0 5 0;
#X connect 1 0 2 0;
#X connect 2 0 5 1;
#X connect 3 0 4 0;
#X connect 5 0 3 0;
#X restore 0 0 pd filter_G1;
#N canvas 0 22 450 300 filter_G#1 0;
#X obj 20 10 r~ 1004-audioIn;
#X obj 27 35 r 1004-OSC;
#X obj 27 60 routeOSC /G#1;
#X msg 20 111 /c::ntr::l/G#1/level \$1;
#X obj 20 136 s GLOBAL_OSC;
#X obj 20 86 filtercore;
#X connect 0 0 5 0;
#X connect 1 0 2 0;
#X connect 2 0 5 1;
#X connect 3 0 4 0;
#X connect 5 0 3 0;
#X restore 0 0 pd filter_G#1;
#N canvas 0 22 450 300 filter_A1 0;
#X obj 20 10 r~ 1004-audioIn;
#X obj 27 35 r 1004-OSC;
#X obj 27 60 routeOSC /A1;
#X msg 20 111 /c::ntr::l/A1/level \$1;
#X obj 20 136 s GLOBAL_OSC;
#X obj 20 86 filtercore;
#X connect 0 0 5 0;
#X connect 1 0 2 0;
#X connect 2 0 5 1;
#X connect 3 0 4 0;
#X connect 5 0 3 0;
#X restore 0 0 pd filter_A1;
#N canvas 0 22 450 300 filter_A#1 0;
#X obj 20 10 r~ 1004-audioIn;
#X obj 27 35 r 1004-OSC;
#X obj 27 60 routeOSC /A#1;
#X msg 20 111 /c::ntr::l/A#1/level \$1;
#X obj 20 136 s GLOBAL_OSC;
#X obj 20 86 filtercore;
#X connect 0 0 5 0;
#X connect 1 0 2 0;
#X connect 2 0 5 1;
#X connect 3 0 4 0;
#X connect 5 0 3 0;
#X restore 0 0 pd filter_A#1;
#N canvas 0 22 450 300 filter_B1 0;
#X obj 20 10 r~ 1004-audioIn;
#X obj 27 35 r 1004-OSC;
#X obj 27 60 routeOSC /B1;
#X msg 20 111 /c::ntr::l/B1/level \$1;
#X obj 20 136 s GLOBAL_OSC;
#X obj 20 86 filtercore;
#X connect 0 0 5 0;
#X connect 1 0 2 0;
#X connect 2 0 5 1;
#X connect 3 0 4 0;
#X connect 5 0 3 0;
#X restore 0 0 pd filter_B1;
#N canvas 0 22 450 300 filter_C2 0;
#X obj 20 10 r~ 1004-audioIn;
#X obj 27 35 r 1004-OSC;
#X obj 27 60 routeOSC /C2;
#X msg 20 111 /c::ntr::l/C2/level \$1;
#X obj 20 136 s GLOBAL_OSC;
#X obj 20 86 filtercore;
#X connect 0 0 5 0;
#X connect 1 0 2 0;
#X connect 2 0 5 1;
#X connect 3 0 4 0;
#X connect 5 0 3 0;
#X restore 0 0 pd filter_C2;
#N canvas 0 22 450 300 filter_C#2 0;
#X obj 20 10 r~ 1004-audioIn;
#X obj 27 35 r 1004-OSC;
#X obj 27 60 routeOSC /C#2;
#X msg 20 111 /c::ntr::l/C#2/level \$1;
#X obj 20 136 s GLOBAL_OSC;
#X obj 20 86 filtercore;
#X connect 0 0 5 0;
#X connect 1 0 2 0;
#X connect 2 0 5 1;
#X connect 3 0 4 0;
#X connect 5 0 3 0;
#X restore 0 0 pd filter_C#2;
#N canvas 0 22 450 300 filter_D2 0;
#X obj 20 10 r~ 1004-audioIn;
#X obj 27 35 r 1004-OSC;
#X obj 27 60 routeOSC /D2;
#X msg 20 111 /c::ntr::l/D2/level \$1;
#X obj 20 136 s GLOBAL_OSC;
#X obj 20 86 filtercore;
#X connect 0 0 5 0;
#X connect 1 0 2 0;
#X connect 2 0 5 1;
#X connect 3 0 4 0;
#X connect 5 0 3 0;
#X restore 0 0 pd filter_D2;
#N canvas 0 22 450 300 filter_D#2 0;
#X obj 20 10 r~ 1004-audioIn;
#X obj 27 35 r 1004-OSC;
#X obj 27 60 routeOSC /D#2;
#X msg 20 111 /c::ntr::l/D#2/level \$1;
#X obj 20 136 s GLOBAL_OSC;
#X obj 20 86 filtercore;
#X connect 0 0 5 0;
#X connect 1 0 2 0;
#X connect 2 0 5 1;
#X connect 3 0 4 0;
#X connect 5 0 3 0;
#X restore 0 0 pd filter_D#2;
#N canvas 0 22 450 300 filter_E3 0;
#X obj 20 10 r~ 1004-audioIn;
#X obj 27 35 r 1004-OSC;
#X obj 27 60 routeOSC /E3;
#X msg 20 111 /c::ntr::l/E3/level \$1;
#X obj 20 136 s GLOBAL_OSC;
#X obj 20 86 filtercore;
#X connect 0 0 5 0;
#X connect 1 0 2 0;
#X connect 2 0 5 1;
#X connect 3 0 4 0;
#X connect 5 0 3 0;
#X restore 0 0 pd filter_E3;
#N canvas 0 22 450 300 filter_F3 0;
#X obj 20 10 r~ 1004-audioIn;
#X obj 27 35 r 1004-OSC;
#X obj 27 60 routeOSC /F3;
#X msg 20 111 /c::ntr::l/F3/level \$1;
#X obj 20 136 s GLOBAL_OSC;
#X obj 20 86 filtercore;
#X connect 0 0 5 0;
#X connect 1 0 2 0;
#X connect 2 0 5 1;
#X connect 3 0 4 0;
#X connect 5 0 3 0;
#X restore 0 0 pd filter_F3;
#N canvas 0 22 450 300 filter_F#3 0;
#X obj 20 10 r~ 1004-audioIn;
#X obj 27 35 r 1004-OSC;
#X obj 27 60 routeOSC /F#3;
#X msg 20 111 /c::ntr::l/F#3/level \$1;
#X obj 20 136 s GLOBAL_OSC;
#X obj 20 86 filtercore;
#X connect 0 0 5 0;
#X connect 1 0 2 0;
#X connect 2 0 5 1;
#X connect 3 0 4 0;
#X connect 5 0 3 0;
#X restore 0 0 pd filter_F#3;
#N canvas 0 22 450 300 filter_G3 0;
#X obj 20 10 r~ 1004-audioIn;
#X obj 27 35 r 1004-OSC;
#X obj 27 60 routeOSC /G3;
#X msg 20 111 /c::ntr::l/G3/level \$1;
#X obj 20 136 s GLOBAL_OSC;
#X obj 20 86 filtercore;
#X connect 0 0 5 0;
#X connect 1 0 2 0;
#X connect 2 0 5 1;
#X connect 3 0 4 0;
#X connect 5 0 3 0;
#X restore 0 0 pd filter_G3;
#N canvas 0 22 450 300 filter_G#3 0;
#X obj 20 10 r~ 1004-audioIn;
#X obj 27 35 r 1004-OSC;
#X obj 27 60 routeOSC /G#3;
#X msg 20 111 /c::ntr::l/G#3/level \$1;
#X obj 20 136 s GLOBAL_OSC;
#X obj 20 86 filtercore;
#X connect 0 0 5 0;
#X connect 1 0 2 0;
#X connect 2 0 5 1;
#X connect 3 0 4 0;
#X connect 5 0 3 0;
#X restore 0 0 pd filter_G#3;
#N canvas 0 22 450 300 filter_A3 0;
#X obj 20 10 r~ 1004-audioIn;
#X obj 27 35 r 1004-OSC;
#X obj 27 60 routeOSC /A3;
#X msg 20 111 /c::ntr::l/A3/level \$1;
#X obj 20 136 s GLOBAL_OSC;
#X obj 20 86 filtercore;
#X connect 0 0 5 0;
#X connect 1 0 2 0;
#X connect 2 0 5 1;
#X connect 3 0 4 0;
#X connect 5 0 3 0;
#X restore 0 0 pd filter_A3;
#N canvas 0 22 450 300 filter_A#3 0;
#X obj 20 10 r~ 1004-audioIn;
#X obj 27 35 r 1004-OSC;
#X obj 27 60 routeOSC /A#3;
#X msg 20 111 /c::ntr::l/A#3/level \$1;
#X obj 20 136 s GLOBAL_OSC;
#X obj 20 86 filtercore;
#X connect 0 0 5 0;
#X connect 1 0 2 0;
#X connect 2 0 5 1;
#X connect 3 0 4 0;
#X connect 5 0 3 0;
#X restore 0 0 pd filter_A#3;
#N canvas 0 22 450 300 filter_B3 0;
#X obj 20 10 r~ 1004-audioIn;
#X obj 27 35 r 1004-OSC;
#X obj 27 60 routeOSC /B3;
#X msg 20 111 /c::ntr::l/B3/level \$1;
#X obj 20 136 s GLOBAL_OSC;
#X obj 20 86 filtercore;
#X connect 0 0 5 0;
#X connect 1 0 2 0;
#X connect 2 0 5 1;
#X connect 3 0 4 0;
#X connect 5 0 3 0;
#X restore 0 0 pd filter_B3;
#N canvas 0 22 450 300 filter_C4 0;
#X obj 20 10 r~ 1004-audioIn;
#X obj 27 35 r 1004-OSC;
#X obj 27 60 routeOSC /C4;
#X msg 20 111 /c::ntr::l/C4/level \$1;
#X obj 20 136 s GLOBAL_OSC;
#X obj 20 86 filtercore;
#X connect 0 0 5 0;
#X connect 1 0 2 0;
#X connect 2 0 5 1;
#X connect 3 0 4 0;
#X connect 5 0 3 0;
#X restore 0 0 pd filter_C4;
#N canvas 0 22 450 300 filter_C#4 0;
#X obj 20 10 r~ 1004-audioIn;
#X obj 27 35 r 1004-OSC;
#X obj 27 60 routeOSC /C#4;
#X msg 20 111 /c::ntr::l/C#4/level \$1;
#X obj 20 136 s GLOBAL_OSC;
#X obj 20 86 filtercore;
#X connect 0 0 5 0;
#X connect 1 0 2 0;
#X connect 2 0 5 1;
#X connect 3 0 4 0;
#X connect 5 0 3 0;
#X restore 0 0 pd filter_C#4;
#N canvas 0 22 450 300 filter_D4 0;
#X obj 20 10 r~ 1004-audioIn;
#X obj 27 35 r 1004-OSC;
#X obj 27 60 routeOSC /D4;
#X msg 20 111 /c::ntr::l/D4/level \$1;
#X obj 20 136 s GLOBAL_OSC;
#X obj 20 86 filtercore;
#X connect 0 0 5 0;
#X connect 1 0 2 0;
#X connect 2 0 5 1;
#X connect 3 0 4 0;
#X connect 5 0 3 0;
#X restore 0 0 pd filter_D4;
#N canvas 0 22 450 300 filter_D#4 0;
#X obj 20 10 r~ 1004-audioIn;
#X obj 27 35 r 1004-OSC;
#X obj 27 60 routeOSC /D#4;
#X msg 20 111 /c::ntr::l/D#4/level \$1;
#X obj 20 136 s GLOBAL_OSC;
#X obj 20 86 filtercore;
#X connect 0 0 5 0;
#X connect 1 0 2 0;
#X connect 2 0 5 1;
#X connect 3 0 4 0;
#X connect 5 0 3 0;
#X restore 0 0 pd filter_D#4;
#N canvas 0 22 450 300 \$1\$3 0;
#X restore 0 0 pd \$1\$3;
#X restore 331 86 pd filter_bank;
#X obj 29 8 inlet~;
#X obj 29 32 s~ \$0-audioIn;
#X obj 30 79 t b a b;
#X obj 130 4 inlet;
#X text 168 3 OSC;
#X obj 287 51 s \$0-OSC;
#X msg 309 122 \; pd-filter_bank clear \;;
#X obj 130 28 routeOSC /create_filter;
#X obj 286 28 routeOSC /filter;
#X obj 130 50 routeOSC /name /clearall;
#X obj 345 183 f \$0;
#X floatatom 345 210 5 0 0 0 - - -;
#X obj 345 160 bng 15 250 50 0 empty empty empty 17 7 0 10 -262144
-1 -1;
#X msg 30 239 \; pd-filter_bank obj 0 0 pd \$1\$3 \; pd-\$1\$3 obj
20 10 r~ \$2-audioIn \; pd-\$1\$3 obj 27 35 r \$2-OSC \; pd-\$1\$3
obj 27 60 routeOSC /\$3 \; pd-\$1\$3 obj 20 86 filtercore \; pd-\$1\$3
msg 20 111 /c:ntr:l/filter/\$3/level \$4 \; pd-\$1\$3 obj 20 136 s
GLOBAL_OSC \; pd-\$1\$3 connect 0 0 3 0 \; pd-\$1\$3 connect 1 0 2
0 \; pd-\$1\$3 connect 2 0 3 1 \; pd-\$1\$3 connect 3 0 4 0 \; pd-\$1\$3
connect 4 0 5 0 \; pd-\$1\$3 menuclose \;;
#X connect 0 0 9 2;
#X connect 1 0 9 0;
#X connect 2 0 3 0;
#X connect 3 0 9 3;
#X connect 9 0 24 0;
#X connect 11 0 12 0;
#X connect 13 0 1 0;
#X connect 13 1 0 0;
#X connect 13 2 2 0;
#X connect 14 0 18 0;
#X connect 18 0 20 0;
#X connect 18 1 19 0;
#X connect 19 0 16 0;
#X connect 20 0 13 0;
#X connect 20 1 17 0;
#X connect 21 0 22 0;
#X connect 23 0 21 0;
#X coords 0 0 1 1 50 20 0;
