#N canvas 280 325 496 540 10;
#X obj 125 141 symbol G#;
#X obj 30 141 symbol filter_;
#X msg 190 141 36;
#X obj 190 163 makefilename %c1;
#X text 215 140 '$';
#X text 330 312 \$2: '\$0' value;
#X text 330 292 \$1: subpatch prefix;
#X text 330 332 \$3: note i.d.;
#X text 330 352 \$4: '\$1' (un-expanded);
#X obj 30 189 pack s \$0 s s;
#N canvas 111 200 362 348 filter_bank 0;
#N canvas 6 47 450 300 filter_E2 0;
#X obj 20 10 r~ 1272-audioIn;
#X obj 27 35 r 1272-OSC;
#X obj 27 60 routeOSC /E2;
#X obj 20 86 filtercore_r1;
#X msg 20 111 /c:ntr:l/filter/E2/level \$1;
#X msg 100 130 /c:ntr:l/filter/E2/env \$1;
#X obj 20 156 s GLOBAL_OSC;
#X connect 0 0 3 0;
#X connect 1 0 2 0;
#X connect 2 0 3 1;
#X connect 3 0 4 0;
#X connect 3 1 5 0;
#X connect 4 0 6 0;
#X connect 5 0 6 0;
#X restore 0 0 pd filter_E2;
#N canvas 0 0 450 300 filter_F2 0;
#X obj 20 10 r~ 1272-audioIn;
#X obj 27 35 r 1272-OSC;
#X obj 27 60 routeOSC /F2;
#X obj 20 86 filtercore_r1;
#X msg 20 111 /c:ntr:l/filter/F2/level \$1;
#X msg 100 130 /c:ntr:l/filter/F2/env \$1;
#X obj 20 156 s GLOBAL_OSC;
#X connect 0 0 3 0;
#X connect 1 0 2 0;
#X connect 2 0 3 1;
#X connect 3 0 4 0;
#X connect 3 1 5 0;
#X connect 4 0 6 0;
#X connect 5 0 6 0;
#X restore 0 0 pd filter_F2;
#N canvas 0 0 450 300 filter_F#2 0;
#X obj 20 10 r~ 1272-audioIn;
#X obj 27 35 r 1272-OSC;
#X obj 27 60 routeOSC /F#2;
#X obj 20 86 filtercore_r1;
#X msg 20 111 /c:ntr:l/filter/F#2/level \$1;
#X msg 100 130 /c:ntr:l/filter/F#2/env \$1;
#X obj 20 156 s GLOBAL_OSC;
#X connect 0 0 3 0;
#X connect 1 0 2 0;
#X connect 2 0 3 1;
#X connect 3 0 4 0;
#X connect 3 1 5 0;
#X connect 4 0 6 0;
#X connect 5 0 6 0;
#X restore 0 0 pd filter_F#2;
#N canvas 0 0 450 300 filter_G2 0;
#X obj 20 10 r~ 1272-audioIn;
#X obj 27 35 r 1272-OSC;
#X obj 27 60 routeOSC /G2;
#X obj 20 86 filtercore_r1;
#X msg 20 111 /c:ntr:l/filter/G2/level \$1;
#X msg 100 130 /c:ntr:l/filter/G2/env \$1;
#X obj 20 156 s GLOBAL_OSC;
#X connect 0 0 3 0;
#X connect 1 0 2 0;
#X connect 2 0 3 1;
#X connect 3 0 4 0;
#X connect 3 1 5 0;
#X connect 4 0 6 0;
#X connect 5 0 6 0;
#X restore 0 0 pd filter_G2;
#N canvas 0 0 450 300 filter_G#2 0;
#X obj 20 10 r~ 1272-audioIn;
#X obj 27 35 r 1272-OSC;
#X obj 27 60 routeOSC /G#2;
#X obj 20 86 filtercore_r1;
#X msg 20 111 /c:ntr:l/filter/G#2/level \$1;
#X msg 100 130 /c:ntr:l/filter/G#2/env \$1;
#X obj 20 156 s GLOBAL_OSC;
#X connect 0 0 3 0;
#X connect 1 0 2 0;
#X connect 2 0 3 1;
#X connect 3 0 4 0;
#X connect 3 1 5 0;
#X connect 4 0 6 0;
#X connect 5 0 6 0;
#X restore 0 0 pd filter_G#2;
#N canvas 0 0 450 300 filter_A2 0;
#X obj 20 10 r~ 1272-audioIn;
#X obj 27 35 r 1272-OSC;
#X obj 27 60 routeOSC /A2;
#X obj 20 86 filtercore_r1;
#X msg 20 111 /c:ntr:l/filter/A2/level \$1;
#X msg 100 130 /c:ntr:l/filter/A2/env \$1;
#X obj 20 156 s GLOBAL_OSC;
#X connect 0 0 3 0;
#X connect 1 0 2 0;
#X connect 2 0 3 1;
#X connect 3 0 4 0;
#X connect 3 1 5 0;
#X connect 4 0 6 0;
#X connect 5 0 6 0;
#X restore 0 0 pd filter_A2;
#N canvas 0 0 450 300 filter_A#2 0;
#X obj 20 10 r~ 1272-audioIn;
#X obj 27 35 r 1272-OSC;
#X obj 27 60 routeOSC /A#2;
#X obj 20 86 filtercore_r1;
#X msg 20 111 /c:ntr:l/filter/A#2/level \$1;
#X msg 100 130 /c:ntr:l/filter/A#2/env \$1;
#X obj 20 156 s GLOBAL_OSC;
#X connect 0 0 3 0;
#X connect 1 0 2 0;
#X connect 2 0 3 1;
#X connect 3 0 4 0;
#X connect 3 1 5 0;
#X connect 4 0 6 0;
#X connect 5 0 6 0;
#X restore 0 0 pd filter_A#2;
#N canvas 0 0 450 300 filter_B2 0;
#X obj 20 10 r~ 1272-audioIn;
#X obj 27 35 r 1272-OSC;
#X obj 27 60 routeOSC /B2;
#X obj 20 86 filtercore_r1;
#X msg 20 111 /c:ntr:l/filter/B2/level \$1;
#X msg 100 130 /c:ntr:l/filter/B2/env \$1;
#X obj 20 156 s GLOBAL_OSC;
#X connect 0 0 3 0;
#X connect 1 0 2 0;
#X connect 2 0 3 1;
#X connect 3 0 4 0;
#X connect 3 1 5 0;
#X connect 4 0 6 0;
#X connect 5 0 6 0;
#X restore 0 0 pd filter_B2;
#N canvas 0 0 450 300 filter_C3 0;
#X obj 20 10 r~ 1272-audioIn;
#X obj 27 35 r 1272-OSC;
#X obj 27 60 routeOSC /C3;
#X obj 20 86 filtercore_r1;
#X msg 20 111 /c:ntr:l/filter/C3/level \$1;
#X msg 100 130 /c:ntr:l/filter/C3/env \$1;
#X obj 20 156 s GLOBAL_OSC;
#X connect 0 0 3 0;
#X connect 1 0 2 0;
#X connect 2 0 3 1;
#X connect 3 0 4 0;
#X connect 3 1 5 0;
#X connect 4 0 6 0;
#X connect 5 0 6 0;
#X restore 0 0 pd filter_C3;
#N canvas 0 0 450 300 filter_C#3 0;
#X obj 20 10 r~ 1272-audioIn;
#X obj 27 35 r 1272-OSC;
#X obj 27 60 routeOSC /C#3;
#X obj 20 86 filtercore_r1;
#X msg 20 111 /c:ntr:l/filter/C#3/level \$1;
#X msg 100 130 /c:ntr:l/filter/C#3/env \$1;
#X obj 20 156 s GLOBAL_OSC;
#X connect 0 0 3 0;
#X connect 1 0 2 0;
#X connect 2 0 3 1;
#X connect 3 0 4 0;
#X connect 3 1 5 0;
#X connect 4 0 6 0;
#X connect 5 0 6 0;
#X restore 0 0 pd filter_C#3;
#N canvas 0 0 450 300 filter_D3 0;
#X obj 20 10 r~ 1272-audioIn;
#X obj 27 35 r 1272-OSC;
#X obj 27 60 routeOSC /D3;
#X obj 20 86 filtercore_r1;
#X msg 20 111 /c:ntr:l/filter/D3/level \$1;
#X msg 100 130 /c:ntr:l/filter/D3/env \$1;
#X obj 20 156 s GLOBAL_OSC;
#X connect 0 0 3 0;
#X connect 1 0 2 0;
#X connect 2 0 3 1;
#X connect 3 0 4 0;
#X connect 3 1 5 0;
#X connect 4 0 6 0;
#X connect 5 0 6 0;
#X restore 0 0 pd filter_D3;
#N canvas 0 0 450 300 filter_D#3 0;
#X obj 20 10 r~ 1272-audioIn;
#X obj 27 35 r 1272-OSC;
#X obj 27 60 routeOSC /D#3;
#X obj 20 86 filtercore_r1;
#X msg 20 111 /c:ntr:l/filter/D#3/level \$1;
#X msg 100 130 /c:ntr:l/filter/D#3/env \$1;
#X obj 20 156 s GLOBAL_OSC;
#X connect 0 0 3 0;
#X connect 1 0 2 0;
#X connect 2 0 3 1;
#X connect 3 0 4 0;
#X connect 3 1 5 0;
#X connect 4 0 6 0;
#X connect 5 0 6 0;
#X restore 0 0 pd filter_D#3;
#N canvas 0 0 450 300 filter_E3 0;
#X obj 20 10 r~ 1272-audioIn;
#X obj 27 35 r 1272-OSC;
#X obj 27 60 routeOSC /E3;
#X obj 20 86 filtercore_r1;
#X msg 20 111 /c:ntr:l/filter/E3/level \$1;
#X msg 100 130 /c:ntr:l/filter/E3/env \$1;
#X obj 20 156 s GLOBAL_OSC;
#X connect 0 0 3 0;
#X connect 1 0 2 0;
#X connect 2 0 3 1;
#X connect 3 0 4 0;
#X connect 3 1 5 0;
#X connect 4 0 6 0;
#X connect 5 0 6 0;
#X restore 0 0 pd filter_E3;
#N canvas 0 0 450 300 filter_F3 0;
#X obj 20 10 r~ 1272-audioIn;
#X obj 27 35 r 1272-OSC;
#X obj 27 60 routeOSC /F3;
#X obj 20 86 filtercore_r1;
#X msg 20 111 /c:ntr:l/filter/F3/level \$1;
#X msg 100 130 /c:ntr:l/filter/F3/env \$1;
#X obj 20 156 s GLOBAL_OSC;
#X connect 0 0 3 0;
#X connect 1 0 2 0;
#X connect 2 0 3 1;
#X connect 3 0 4 0;
#X connect 3 1 5 0;
#X connect 4 0 6 0;
#X connect 5 0 6 0;
#X restore 0 0 pd filter_F3;
#N canvas 0 0 450 300 filter_F#3 0;
#X obj 20 10 r~ 1272-audioIn;
#X obj 27 35 r 1272-OSC;
#X obj 27 60 routeOSC /F#3;
#X obj 20 86 filtercore_r1;
#X msg 20 111 /c:ntr:l/filter/F#3/level \$1;
#X msg 100 130 /c:ntr:l/filter/F#3/env \$1;
#X obj 20 156 s GLOBAL_OSC;
#X connect 0 0 3 0;
#X connect 1 0 2 0;
#X connect 2 0 3 1;
#X connect 3 0 4 0;
#X connect 3 1 5 0;
#X connect 4 0 6 0;
#X connect 5 0 6 0;
#X restore 0 0 pd filter_F#3;
#N canvas 0 0 450 300 filter_G3 0;
#X obj 20 10 r~ 1272-audioIn;
#X obj 27 35 r 1272-OSC;
#X obj 27 60 routeOSC /G3;
#X obj 20 86 filtercore_r1;
#X msg 20 111 /c:ntr:l/filter/G3/level \$1;
#X msg 100 130 /c:ntr:l/filter/G3/env \$1;
#X obj 20 156 s GLOBAL_OSC;
#X connect 0 0 3 0;
#X connect 1 0 2 0;
#X connect 2 0 3 1;
#X connect 3 0 4 0;
#X connect 3 1 5 0;
#X connect 4 0 6 0;
#X connect 5 0 6 0;
#X restore 0 0 pd filter_G3;
#N canvas 0 0 450 300 filter_G#3 0;
#X obj 20 10 r~ 1272-audioIn;
#X obj 27 35 r 1272-OSC;
#X obj 27 60 routeOSC /G#3;
#X obj 20 86 filtercore_r1;
#X msg 20 111 /c:ntr:l/filter/G#3/level \$1;
#X msg 100 130 /c:ntr:l/filter/G#3/env \$1;
#X obj 20 156 s GLOBAL_OSC;
#X connect 0 0 3 0;
#X connect 1 0 2 0;
#X connect 2 0 3 1;
#X connect 3 0 4 0;
#X connect 3 1 5 0;
#X connect 4 0 6 0;
#X connect 5 0 6 0;
#X restore 0 0 pd filter_G#3;
#N canvas 0 0 450 300 filter_A3 0;
#X obj 20 10 r~ 1272-audioIn;
#X obj 27 35 r 1272-OSC;
#X obj 27 60 routeOSC /A3;
#X obj 20 86 filtercore_r1;
#X msg 20 111 /c:ntr:l/filter/A3/level \$1;
#X msg 100 130 /c:ntr:l/filter/A3/env \$1;
#X obj 20 156 s GLOBAL_OSC;
#X connect 0 0 3 0;
#X connect 1 0 2 0;
#X connect 2 0 3 1;
#X connect 3 0 4 0;
#X connect 3 1 5 0;
#X connect 4 0 6 0;
#X connect 5 0 6 0;
#X restore 0 0 pd filter_A3;
#N canvas 0 0 450 300 filter_A#3 0;
#X obj 20 10 r~ 1272-audioIn;
#X obj 27 35 r 1272-OSC;
#X obj 27 60 routeOSC /A#3;
#X obj 20 86 filtercore_r1;
#X msg 20 111 /c:ntr:l/filter/A#3/level \$1;
#X msg 100 130 /c:ntr:l/filter/A#3/env \$1;
#X obj 20 156 s GLOBAL_OSC;
#X connect 0 0 3 0;
#X connect 1 0 2 0;
#X connect 2 0 3 1;
#X connect 3 0 4 0;
#X connect 3 1 5 0;
#X connect 4 0 6 0;
#X connect 5 0 6 0;
#X restore 0 0 pd filter_A#3;
#N canvas 0 0 450 300 filter_B3 0;
#X obj 20 10 r~ 1272-audioIn;
#X obj 27 35 r 1272-OSC;
#X obj 27 60 routeOSC /B3;
#X obj 20 86 filtercore_r1;
#X msg 20 111 /c:ntr:l/filter/B3/level \$1;
#X msg 100 130 /c:ntr:l/filter/B3/env \$1;
#X obj 20 156 s GLOBAL_OSC;
#X connect 0 0 3 0;
#X connect 1 0 2 0;
#X connect 2 0 3 1;
#X connect 3 0 4 0;
#X connect 3 1 5 0;
#X connect 4 0 6 0;
#X connect 5 0 6 0;
#X restore 0 0 pd filter_B3;
#N canvas 0 0 450 300 filter_C4 0;
#X obj 20 10 r~ 1272-audioIn;
#X obj 27 35 r 1272-OSC;
#X obj 27 60 routeOSC /C4;
#X obj 20 86 filtercore_r1;
#X msg 20 111 /c:ntr:l/filter/C4/level \$1;
#X msg 100 130 /c:ntr:l/filter/C4/env \$1;
#X obj 20 156 s GLOBAL_OSC;
#X connect 0 0 3 0;
#X connect 1 0 2 0;
#X connect 2 0 3 1;
#X connect 3 0 4 0;
#X connect 3 1 5 0;
#X connect 4 0 6 0;
#X connect 5 0 6 0;
#X restore 0 0 pd filter_C4;
#N canvas 0 0 450 300 filter_C#4 0;
#X obj 20 10 r~ 1272-audioIn;
#X obj 27 35 r 1272-OSC;
#X obj 27 60 routeOSC /C#4;
#X obj 20 86 filtercore_r1;
#X msg 20 111 /c:ntr:l/filter/C#4/level \$1;
#X msg 100 130 /c:ntr:l/filter/C#4/env \$1;
#X obj 20 156 s GLOBAL_OSC;
#X connect 0 0 3 0;
#X connect 1 0 2 0;
#X connect 2 0 3 1;
#X connect 3 0 4 0;
#X connect 3 1 5 0;
#X connect 4 0 6 0;
#X connect 5 0 6 0;
#X restore 0 0 pd filter_C#4;
#N canvas 0 0 450 300 filter_D4 0;
#X obj 20 10 r~ 1272-audioIn;
#X obj 27 35 r 1272-OSC;
#X obj 27 60 routeOSC /D4;
#X obj 20 86 filtercore_r1;
#X msg 20 111 /c:ntr:l/filter/D4/level \$1;
#X msg 100 130 /c:ntr:l/filter/D4/env \$1;
#X obj 20 156 s GLOBAL_OSC;
#X connect 0 0 3 0;
#X connect 1 0 2 0;
#X connect 2 0 3 1;
#X connect 3 0 4 0;
#X connect 3 1 5 0;
#X connect 4 0 6 0;
#X connect 5 0 6 0;
#X restore 0 0 pd filter_D4;
#N canvas 0 0 450 300 filter_D#4 0;
#X obj 20 10 r~ 1272-audioIn;
#X obj 27 35 r 1272-OSC;
#X obj 27 60 routeOSC /D#4;
#X obj 20 86 filtercore_r1;
#X msg 20 111 /c:ntr:l/filter/D#4/level \$1;
#X msg 100 130 /c:ntr:l/filter/D#4/env \$1;
#X obj 20 156 s GLOBAL_OSC;
#X connect 0 0 3 0;
#X connect 1 0 2 0;
#X connect 2 0 3 1;
#X connect 3 0 4 0;
#X connect 3 1 5 0;
#X connect 4 0 6 0;
#X connect 5 0 6 0;
#X restore 0 0 pd filter_D#4;
#X restore 331 86 pd filter_bank;
#X obj 29 8 inlet~;
#X obj 29 32 s~ \$0-audioIn;
#X obj 30 79 t b a b;
#X obj 130 4 inlet;
#X text 168 3 OSC;
#X obj 287 51 s \$0-OSC;
#X msg 309 122 \; pd-filter_bank clear \;;
#X obj 130 28 routeOSC /create_filter;
#X obj 286 28 routeOSC /filter;
#X obj 130 50 routeOSC /name /clearall;
#X obj 345 183 f \$0;
#X floatatom 345 210 5 0 0 0 - - -;
#X obj 345 160 bng 15 250 50 0 empty empty empty 17 7 0 10 -262144
-1 -1;
#X msg 31 240 \; pd-filter_bank obj 0 0 pd \$1\$3 \; pd-\$1\$3 obj
20 10 r~ \$2-audioIn \; pd-\$1\$3 obj 27 35 r \$2-OSC \; pd-\$1\$3
obj 27 60 routeOSC /\$3 \; pd-\$1\$3 obj 20 86 filtercore_r1 \; pd-\$1\$3
msg 20 111 /c:ntr:l/filter/\$3/level \$4 \; pd-\$1\$3 msg 100 130 /c:ntr:l/filter/\$3/env
\$4 \; pd-\$1\$3 obj 20 156 s GLOBAL_OSC \; pd-\$1\$3 connect 0 0 3
0 \; pd-\$1\$3 connect 1 0 2 0 \; pd-\$1\$3 connect 2 0 3 1 \; pd-\$1\$3
connect 3 0 4 0 \; pd-\$1\$3 connect 3 1 5 0 \; pd-\$1\$3 connect 5
0 6 0 \; pd-\$1\$3 connect 4 0 6 0 \; pd-\$1\$3 menuclose \;;
#X connect 0 0 9 2;
#X connect 1 0 9 0;
#X connect 2 0 3 0;
#X connect 3 0 9 3;
#X connect 9 0 24 0;
#X connect 11 0 12 0;
#X connect 13 0 1 0;
#X connect 13 1 0 0;
#X connect 13 2 2 0;
#X connect 14 0 18 0;
#X connect 18 0 20 0;
#X connect 18 1 19 0;
#X connect 19 0 16 0;
#X connect 20 0 13 0;
#X connect 20 1 17 0;
#X connect 21 0 22 0;
#X connect 23 0 21 0;
#X coords 0 0 1 1 50 20 0;
