#N canvas 291 160 313 270 10;
#X obj 29 75 bp~;
#X obj 29 118 env~ 8192;
#X obj 29 140 int;
#X obj 29 161 moses 4;
#X obj 28 -4 inlet~;
#X obj 36 24 inlet;
#X text 72 23 OSC;
#X text 76 -5 signal;
#X obj 69 237 outlet;
#X obj 29 96 *~ 0;
#X obj 36 50 routeOSC /freq /q /mult /min;
#X obj 69 214 change;
#X msg 29 181 0;
#X connect 0 0 9 0;
#X connect 1 0 2 0;
#X connect 2 0 3 0;
#X connect 3 0 12 0;
#X connect 3 1 11 0;
#X connect 4 0 0 0;
#X connect 5 0 10 0;
#X connect 9 0 1 0;
#X connect 10 0 0 1;
#X connect 10 1 0 2;
#X connect 10 2 9 1;
#X connect 10 3 3 1;
#X connect 11 0 8 0;
#X connect 12 0 11 0;
