#N canvas 83 237 1385 628 10;
#X obj 167 354 r \$0-reset;
#X obj 182 137 r \$0-reset;
#X obj 237 229 bng 15 250 50 0 empty empty clear 17 7 0 8 -258113 -1
-1;
#X obj 237 277 s \$0-reset;
#X msg 89 132 1;
#X obj 70 7 r \$0-object-name;
#X msg 135 132 \$1;
#X msg 26 344 1;
#X obj 70 32 t a b a;
#X text 5 226 workaround per;
#X text -24 243 evitare primo click;
#X obj 747 -56 r GLOBAL_OSC;
#X floatatom 761 70 5 0 0 0 - - -;
#X obj 747 -35 routeOSC /c::ntr::l;
#X obj 747 22 routeOSC /module;
#X obj 747 43 routeOSC /active;
#X obj 634 42 oneshot;
#X obj 634 63 bng 15 250 50 0 empty empty empty 17 7 0 10 -262144 -1
-1;
#X msg 664 20 clear;
#X obj 665 64 del 100;
#X obj 700 213 f;
#X text 855 42 <<<--- receives <object-id>/active 1;
#X obj 673 163 spigot;
#X obj 706 128 > -1;
#X msg 634 121 0;
#X obj 634 96 t b b b;
#X obj 760 294 bng 15 250 50 0 empty empty empty 17 7 0 10 -203904
-1 -1;
#X text 195 161 <<<--- builds the object and loadbang it;
#N canvas 19 60 1575 782 chain.builder 0;
#X obj 22 -47 inlet;
#X obj 22 4 outlet messages;
#X obj 68 -46 inlet module-name;
#X obj 354 -36 r GLOBAL_OSC;
#X obj 354 -10 routeOSC /c::ntr::l;
#X obj 251 133 routeOSC /idx;
#X floatatom 156 164 5 0 0 0 - - -;
#X obj 139 134 routeOSC /x-pos;
#X floatatom 36 165 5 0 0 0 - - -;
#X obj 19 135 routeOSC /x-size;
#X obj 421 571 s \$0-next-x-position;
#X obj 183 -46 inlet reset;
#X obj 421 523 +;
#X obj 543 494 pipe 5;
#X obj 471 492 pipe 1;
#X obj 19 192 s \$0-x-size;
#X obj 139 196 s \$0-x-pos;
#X obj 251 199 s \$0-idx;
#X obj 471 469 r \$0-x-size;
#X obj 543 468 r \$0-x-pos;
#X text 452 522 ^- get next position;
#X floatatom 434 549 5 0 0 0 - - -;
#X obj 19 81 routeOSC /*;
#X floatatom 209 308 5 0 0 0 - - -;
#X floatatom 70 308 5 0 0 0 - - -;
#X obj 192 278 routeOSC /del-x-pos;
#X obj 53 278 routeOSC /del-x-size;
#X obj 53 341 s \$0-del-x-size;
#X obj 192 340 s \$0-del-x-pos;
#X obj 1083 480 s GLOBAL_OSC;
#X text 895 5 CON QUESTO MUOVO TUTTI GLI OGGETTI CHE SI TROVANO DOPO
QUELLO CANCELLATO;
#X floatatom 668 130 5 0 0 0 - - -;
#X obj 647 19 r \$0-canvasindex-deleted;
#X obj 632 163 -;
#X floatatom 645 188 5 0 0 0 - - -;
#X obj 1108 257 prepend set;
#X msg 1133 205 set \$1;
#X obj 671 239 until;
#X obj 663 102 - 1;
#X obj 742 265 + 1;
#X text 725 106 <<- last module after deletion;
#X text 753 120 it has to spit new x-pos;
#X obj 1103 393 prepend set;
#X obj 1059 303 bng 15 250 50 0 empty empty empty 17 7 0 10 -262144
-1 -1;
#X obj 749 354 s \$0-canvasindex-to-be-moved;
#X obj 1034 30 r \$0-canvasindex-to-be-moved;
#X floatatom 731 295 5 0 0 0 - - -;
#X obj 647 44 trigger f f;
#X obj 1108 123 f;
#X obj 1123 97 r \$0-del-x-size;
#X obj 1058 147 s \$0-reset-until;
#X obj 729 202 r \$0-reset-until;
#X msg 729 227 0;
#X obj 710 266 f;
#X obj 663 69 routeOSC /modulescount-on-deletion;
#X obj 632 214 route 0;
#X obj 710 327 route 0;
#X obj 753 378 print canvasindex-to-be;
#X obj 684 155 s \$0-last-module-to-make-spit;
#X obj 1103 345 r \$0-last-module-to-make-spit;
#X obj 354 79 routeOSC /just-spit-x-size;
#X obj 422 105 routeOSC /just-spit-x-pos;
#X obj 354 129 s \$0-spit-x-size;
#X obj 422 154 s \$0-spit-x-pos;
#X obj 373 419 r \$0-spit-x-size;
#X obj 421 443 r \$0-spit-x-pos;
#X obj 421 467 pipe 5;
#X obj 373 442 pipe 1;
#X floatatom 468 129 5 0 0 0 - - -;
#X floatatom 369 108 5 0 0 0 - - -;
#X obj 1034 60 trigger b b b b f;
#X text 131 75 ))))) IEMGUTS DATA PARSING (((((;
#X text 1226 397 <<< QUI CAPISCO QUAL'E' L'ULTIMO OGGETTO NELLA CATENA
E MI FACCIO DIRE LA SUA POSIZIONE \, PER SAPERE DOVE CREARE UN NUOVO
OGGETTO;
#X obj 354 15 routeOSC /w1;
#X obj 1133 181 makefilename /c::ntr::l/w1/module.%d/x-size-deleted-module
;
#X obj 1108 233 prepend /c::ntr::l/w1/module.4/x-size-deleted-module
;
#X msg 1083 302 /c::ntr::l/w1/module.8/x-size-deleted-module 158;
#X obj 1103 370 makefilename /c::ntr::l/w1/module.%d/spit-it;
#X obj 738 44 print DELETED;
#X obj 666 354 print TOMOVE;
#X obj 1058 95 del 100;
#X floatatom 612 121 5 0 0 0 - - -;
#X obj 1034 177 del 20;
#X obj 1008 472 bng 15 250 50 0 empty empty empty 17 7 0 10 -262144
-1 -1;
#X obj 205 166 bng 15 250 50 0 empty empty empty 17 7 0 10 -262144
-1 -1;
#X msg 1034 428 /c::ntr::l/w1/module.8/spit-it;
#N canvas 649 81 657 733 create.object 0;
#X obj 62 40 inlet count;
#X obj 240 40 inlet module-name;
#X obj 359 41 inlet reset;
#X obj 77 648 outlet messages;
#N canvas 949 35 466 386 countto 0;
#X obj 99 58 inlet;
#X obj 99 177 f 0;
#X obj 127 177 + 1;
#X msg 142 143 0;
#X obj 99 282 outlet;
#X obj 99 142 until;
#X obj 99 117 t a b;
#X obj 99 96 max;
#X obj 142 58 inlet reset;
#X obj 231 285 print countto;
#X obj 99 228 makefilename %dw1;
#X connect 0 0 7 0;
#X connect 1 0 2 0;
#X connect 1 0 10 0;
#X connect 2 0 1 1;
#X connect 3 0 1 1;
#X connect 5 0 1 0;
#X connect 6 0 5 0;
#X connect 7 0 6 0;
#X connect 8 0 3 0;
#X connect 10 0 4 0;
#X restore 62 89 pd countto;
#X obj 77 310 list append;
#X obj 77 435 list trim;
#X msg 103 63 clear;
#X obj 62 62 t a b;
#X obj 240 103 list split 1;
#X obj 77 331 list prepend obj;
#X obj 113 492 r \$0-UNIQUE_id;
#X obj 125 142 s \$0-UNIQUE_id;
#X msg 62 590 \; \$1 bang;
#X floatatom 87 541 5 0 0 0 - - -;
#X symbolatom 296 129 10 0 0 0 - - -;
#X obj 106 178 r \$0-next-x-position;
#X obj 18 153 r \$0-reset;
#X text 130 592 <<<--- triggers a bang within the newly created object
to make it earn a new canvasindex name and output iemguts data;
#X obj 62 117 t b b b a a;
#X text 174 380 QUESTO È NUOVO;
#X obj 145 460 print CREATEEEEEE;
#X obj 77 380 list append w1;
#X obj 62 518 symbol \$1;
#X obj 77 278 pack f f s s;
#X text 174 281 <<<--- X-POSITION / Y-POSITION / OBJECT NAME / ID symbol
;
#X text 222 305 obj phas.mod 160 20 1w1 w1;
#X obj 62 565 makefilename %s_loadbang;
#X msg 18 177 10;
#X obj 77 206 f 10;
#X text 218 564 = 2w1_loadbang;
#X text 57 -5 objects with arguments. First argument will become second
\, new second arg will be the index number;
#X text 122 206 <<<--- INITIAL POSITION;
#X msg 100 245 10;
#X connect 0 0 8 0;
#X connect 1 0 9 0;
#X connect 2 0 4 1;
#X connect 4 0 19 0;
#X connect 5 0 10 0;
#X connect 6 0 3 0;
#X connect 8 0 4 0;
#X connect 8 1 7 0;
#X connect 9 0 15 0;
#X connect 9 0 24 2;
#X connect 9 1 5 1;
#X connect 10 0 22 0;
#X connect 11 0 23 1;
#X connect 13 0 3 0;
#X connect 14 0 27 0;
#X connect 16 0 29 1;
#X connect 17 0 28 0;
#X connect 19 0 23 0;
#X connect 19 1 29 0;
#X connect 19 2 33 0;
#X connect 19 3 24 3;
#X connect 19 4 12 0;
#X connect 22 0 6 0;
#X connect 23 0 27 0;
#X connect 24 0 5 0;
#X connect 27 0 13 0;
#X connect 28 0 29 1;
#X connect 29 0 24 0;
#X connect 33 0 24 1;
#X restore 22 -19 pd create.object;
#X connect 0 0 86 0;
#X connect 2 0 86 1;
#X connect 3 0 4 0;
#X connect 4 0 73 0;
#X connect 5 0 17 0;
#X connect 7 0 6 0;
#X connect 7 0 16 0;
#X connect 7 0 84 0;
#X connect 9 0 8 0;
#X connect 9 0 15 0;
#X connect 11 0 86 2;
#X connect 12 0 10 0;
#X connect 12 0 21 0;
#X connect 13 0 12 0;
#X connect 14 0 12 1;
#X connect 18 0 14 0;
#X connect 19 0 13 0;
#X connect 22 0 5 0;
#X connect 22 0 7 0;
#X connect 22 0 9 0;
#X connect 22 0 26 0;
#X connect 22 0 25 0;
#X connect 25 0 23 0;
#X connect 25 0 28 0;
#X connect 26 0 24 0;
#X connect 26 0 27 0;
#X connect 32 0 47 0;
#X connect 33 0 34 0;
#X connect 33 0 55 0;
#X connect 35 0 76 0;
#X connect 36 0 75 0;
#X connect 37 0 53 0;
#X connect 38 0 31 0;
#X connect 38 0 33 0;
#X connect 38 0 58 0;
#X connect 39 0 53 1;
#X connect 42 0 85 0;
#X connect 45 0 70 0;
#X connect 47 0 33 1;
#X connect 47 0 81 0;
#X connect 47 1 53 0;
#X connect 48 0 75 0;
#X connect 49 0 48 1;
#X connect 51 0 52 0;
#X connect 52 0 53 0;
#X connect 53 0 39 0;
#X connect 53 0 46 0;
#X connect 53 0 56 0;
#X connect 54 0 38 0;
#X connect 55 1 37 0;
#X connect 56 1 44 0;
#X connect 59 0 77 0;
#X connect 60 0 62 0;
#X connect 60 0 69 0;
#X connect 61 0 63 0;
#X connect 61 0 68 0;
#X connect 64 0 67 0;
#X connect 65 0 66 0;
#X connect 66 0 12 0;
#X connect 67 0 12 1;
#X connect 70 0 82 0;
#X connect 70 1 80 0;
#X connect 70 2 76 0;
#X connect 70 3 48 0;
#X connect 70 4 74 0;
#X connect 73 0 22 0;
#X connect 73 0 54 0;
#X connect 73 0 61 0;
#X connect 73 0 60 0;
#X connect 74 0 36 0;
#X connect 75 0 35 0;
#X connect 76 0 29 0;
#X connect 77 0 42 0;
#X connect 80 0 50 0;
#X connect 82 0 85 0;
#X connect 85 0 29 0;
#X connect 85 0 83 0;
#X connect 86 0 1 0;
#X restore 89 161 pd chain.builder;
#X text 188 381 <<<--- connects <object-id> first 2 inlets/outlets
;
#X obj 965 180 bng 15 250 50 0 empty empty empty 17 7 0 10 -262144
-1 -1;
#X text 986 176 <<<--- count all modules in the patch;
#X obj 965 226 routeOSC /modulescount;
#X floatatom 965 249 5 0 0 0 - - -;
#X obj 237 249 t b b b;
#X obj 747 338 s GLOBAL_OSC;
#X obj 673 186 t b b;
#X obj 965 157 r \$0-reset;
#N canvas 403 182 1156 547 connector-on-creation 0;
#N canvas 927 72 450 300 countto 0;
#X obj 99 58 inlet;
#X obj 127 177 + 1;
#X obj 99 208 outlet;
#X obj 99 142 until;
#X obj 99 117 t a b;
#X obj 99 96 max;
#X obj 142 59 inlet reset;
#X msg 142 143 0;
#X obj 99 177 f 0;
#X connect 0 0 5 0;
#X connect 1 0 8 1;
#X connect 3 0 8 0;
#X connect 4 0 3 0;
#X connect 5 0 4 0;
#X connect 6 0 7 0;
#X connect 7 0 8 1;
#X connect 8 0 1 0;
#X connect 8 0 2 0;
#X restore 81 35 pd countto;
#X obj 247 382 outlet;
#X obj 81 -18 inlet;
#X obj 81 11 t f b;
#X obj 138 -18 inlet reset;
#N canvas 491 330 346 274 connect-first-obj-in-the-patch 0;
#X obj 116 28 inlet;
#X obj 116 189 outlet;
#X msg 143 124 connect \$1 0 \$2 0;
#X msg 116 150 connect \$1 1 \$2 1;
#X obj 116 100 t a a;
#X obj 51 135 print ss;
#X obj 57 221 print ff;
#X obj 116 76 list append 3;
#X obj 116 52 + 5;
#X connect 0 0 8 0;
#X connect 2 0 1 0;
#X connect 3 0 1 0;
#X connect 4 0 3 0;
#X connect 4 1 2 0;
#X connect 7 0 4 0;
#X connect 8 0 7 0;
#X restore 81 114 pd connect-first-obj-in-the-patch;
#X floatatom 39 92 5 0 0 0 - - -;
#X obj 554 -90 r GLOBAL_OSC;
#X obj 554 -67 routeOSC /c::ntr::l;
#X obj 554 -10 routeOSC /connect;
#X floatatom 600 17 5 0 0 0 - - -;
#X text 748 -40 ONLY connection at the moment of the obj creation;
#X obj 340 170 pack;
#X obj 367 146 - 1;
#X obj 340 122 t f f;
#X msg 367 218 connect \$1 0 \$2 0;
#X obj 340 194 t l l;
#X msg 340 244 connect \$1 1 \$2 1;
#X obj 784 184 pack;
#X msg 811 232 connect \$1 0 \$2 0;
#X obj 784 208 t l l;
#X msg 784 258 connect \$1 1 \$2 1;
#X floatatom 548 34 5 0 0 0 - - -;
#X msg 966 256 disconnect \$1 0 \$2 0;
#X msg 939 280 disconnect \$1 1 \$2 1;
#X obj 939 183 - 1;
#X obj 939 207 pack;
#X obj 939 231 t l l;
#X obj 615 171 pack;
#X msg 642 219 connect \$1 0 \$2 0;
#X obj 615 195 t l l;
#X msg 615 245 connect \$1 1 \$2 1;
#X obj 615 144 - 1;
#X text 143 59 <<<-- if is first obj in the chain;
#X text 390 118 <<<-- if is second obj in the chain;
#X obj 740 99 trigger f f f b f b;
#X msg 767 336 disconnect 4 0 3 0;
#X msg 774 365 disconnect 4 1 3 1;
#X obj 554 -42 routeOSC /w1;
#X text 994 183 <<< primo oggetto sempre;
#X text 613 65 <<< numero totale di oggetti;
#X obj 555 66 route 4;
#X msg 494 91 4;
#X msg 966 182 3;
#X msg 806 158 3;
#X obj 81 60 moses 1;
#X connect 0 0 6 0;
#X connect 0 0 45 0;
#X connect 2 0 3 0;
#X connect 3 0 0 0;
#X connect 4 0 0 1;
#X connect 5 0 1 0;
#X connect 7 0 8 0;
#X connect 8 0 38 0;
#X connect 9 0 10 0;
#X connect 9 0 41 0;
#X connect 12 0 16 0;
#X connect 13 0 12 1;
#X connect 14 0 12 0;
#X connect 14 1 13 0;
#X connect 15 0 1 0;
#X connect 16 0 17 0;
#X connect 16 1 15 0;
#X connect 17 0 1 0;
#X connect 18 0 20 0;
#X connect 19 0 1 0;
#X connect 20 0 21 0;
#X connect 20 1 19 0;
#X connect 21 0 1 0;
#X connect 22 0 41 0;
#X connect 23 0 1 0;
#X connect 24 0 1 0;
#X connect 25 0 26 0;
#X connect 26 0 27 0;
#X connect 27 0 24 0;
#X connect 27 1 23 0;
#X connect 28 0 30 0;
#X connect 29 0 1 0;
#X connect 30 0 31 0;
#X connect 30 1 29 0;
#X connect 31 0 1 0;
#X connect 32 0 28 0;
#X connect 35 0 32 0;
#X connect 35 1 28 1;
#X connect 35 2 18 0;
#X connect 35 3 44 0;
#X connect 35 4 25 0;
#X connect 35 5 43 0;
#X connect 36 0 1 0;
#X connect 37 0 1 0;
#X connect 38 0 9 0;
#X connect 41 0 42 0;
#X connect 41 1 35 0;
#X connect 42 0 14 0;
#X connect 43 0 26 1;
#X connect 44 0 18 1;
#X connect 45 0 5 0;
#X restore 26 383 pd connector-on-creation;
#N canvas 158 269 851 631 connector-on-deletion 0;
#X obj 278 506 outlet;
#X obj 439 -72 r GLOBAL_OSC;
#X obj 439 -49 routeOSC /c::ntr::l;
#X floatatom 485 41 5 0 0 0 - - -;
#X obj 278 250 pack;
#X obj 278 196 t f f;
#X obj 278 274 t l l;
#X obj 576 251 pack;
#X msg 603 299 connect \$1 0 \$2 0;
#X obj 576 275 t l l;
#X msg 576 325 connect \$1 1 \$2 1;
#X obj 576 224 - 1;
#X obj 194 -60 inlet moduletodelete;
#X msg 603 223 3;
#X obj 439 14 routeOSC /modulescount;
#X obj 244 -27 bng 15 250 50 0 empty empty empty 17 7 0 10 -262144
-1 -1;
#X obj 194 -33 t f b;
#X obj 576 175 f;
#X obj 179 23 route 4;
#X obj 250 113 ==;
#X obj 439 57 - 1;
#X text 611 177 <<<-- if is last obj in the chain;
#X text 309 174 <<<--- else if (any other obj in the chain);
#X text 227 25 <-- if is first obj in the chain;
#X obj 179 -1 f;
#X obj 35 -60 inlet bang-on-deletion;
#X obj 576 200 t f b;
#X obj 278 172 f;
#X msg 355 262 4 5;
#X obj 305 224 - 1;
#X msg 305 298 connect \$2 0 \$1 0;
#X msg 278 324 connect \$2 1 \$1 1;
#X obj 250 56 trigger f f f;
#X obj 250 137 select 1 0;
#X obj 439 -19 routeOSC /w1;
#X obj 244 -8 s \$0-w1.totalcount-temp;
#X connect 1 0 2 0;
#X connect 2 0 34 0;
#X connect 4 0 6 0;
#X connect 5 0 4 0;
#X connect 5 1 29 0;
#X connect 6 0 31 0;
#X connect 6 1 30 0;
#X connect 7 0 9 0;
#X connect 8 0 0 0;
#X connect 9 0 10 0;
#X connect 9 1 8 0;
#X connect 10 0 0 0;
#X connect 11 0 7 0;
#X connect 12 0 16 0;
#X connect 13 0 7 1;
#X connect 14 0 3 0;
#X connect 14 0 20 0;
#X connect 15 0 35 0;
#X connect 16 0 24 1;
#X connect 16 1 35 0;
#X connect 17 0 26 0;
#X connect 18 1 32 0;
#X connect 19 0 33 0;
#X connect 20 0 19 1;
#X connect 24 0 18 0;
#X connect 25 0 24 0;
#X connect 26 0 11 0;
#X connect 26 1 13 0;
#X connect 27 0 5 0;
#X connect 28 0 30 0;
#X connect 29 0 4 1;
#X connect 30 0 0 0;
#X connect 31 0 0 0;
#X connect 32 0 19 0;
#X connect 32 1 27 1;
#X connect 32 2 17 1;
#X connect 33 0 17 0;
#X connect 33 1 27 0;
#X connect 34 0 14 0;
#X restore 731 393 pd connector-on-deletion;
#X text 726 199 <<<--- canvasindex deleted;
#X text 976 70 <<- canvasindex to be deleted;
#X obj 715 460 s \$0-canvasindex-deleted;
#X floatatom 733 441 5 0 0 0 - - -;
#X obj 700 490 s \$0-count-now;
#X obj 933 133 r \$0-count-now;
#X text 887 393 <<- manage connections after deletion;
#X text 795 491 <<- count new number of modules in the patch;
#X text 964 315 <<- send bang to ALL modules to get;
#X text 988 329 updated canvasindex after deletion;
#X text 868 461 <<<- send canvasindex deleted;
#X obj 700 238 t b f b b f;
#X obj 747 90 trigger f f f;
#X obj 30 -15 inlet;
#X obj 237 205 inlet clear;
#X text 780 245 this is global message;
#X obj 70 203 sel set.chX;
#X obj 89 315 outlet to-workspace;
#X obj 731 416 s \$0-to-workspace;
#X obj 98 283 r \$0-to-workspace;
#X obj 849 72 outlet ID.highlight;
#X obj 763 267 outlet moduletodelete;
#X obj 965 203 outlet totalcount;
#X obj 747 -9 routeOSC /w1;
#X msg 747 314 /c::ntr::l/w1/module/globalbng \$0;
#X obj 27 430 print DISCO1;
#X obj 634 -35 inlet keyTab;
#X connect 0 0 38 1;
#X connect 1 0 28 2;
#X connect 2 0 34 0;
#X connect 4 0 28 0;
#X connect 5 0 8 0;
#X connect 6 0 28 1;
#X connect 7 0 38 0;
#X connect 8 0 56 0;
#X connect 8 1 4 0;
#X connect 8 2 6 0;
#X connect 11 0 13 0;
#X connect 13 0 63 0;
#X connect 14 0 15 0;
#X connect 15 0 12 0;
#X connect 15 0 52 0;
#X connect 15 0 60 0;
#X connect 16 0 17 0;
#X connect 17 0 25 0;
#X connect 18 0 16 0;
#X connect 19 0 18 0;
#X connect 20 0 51 0;
#X connect 22 0 36 0;
#X connect 23 0 22 1;
#X connect 24 0 22 1;
#X connect 25 0 24 0;
#X connect 25 1 19 0;
#X connect 25 2 22 0;
#X connect 26 0 64 0;
#X connect 28 0 57 0;
#X connect 30 0 62 0;
#X connect 32 0 33 0;
#X connect 34 0 3 0;
#X connect 36 1 20 0;
#X connect 37 0 30 0;
#X connect 38 0 57 0;
#X connect 39 0 58 0;
#X connect 43 0 42 0;
#X connect 45 0 62 0;
#X connect 51 0 44 0;
#X connect 51 1 42 0;
#X connect 51 2 39 0;
#X connect 51 3 64 0;
#X connect 51 4 61 0;
#X connect 52 0 23 0;
#X connect 52 1 20 1;
#X connect 52 2 39 1;
#X connect 53 0 8 0;
#X connect 54 0 2 0;
#X connect 56 1 7 0;
#X connect 59 0 57 0;
#X connect 63 0 14 0;
#X connect 63 0 32 0;
#X connect 64 0 35 0;
#X connect 66 0 16 0;
