#N canvas 0 0 1678 911 10;
#X floatatom 366 259 5 0 0 0 - - -;
#X obj 7 5 r \$1_loadbang;
#X floatatom 250 348 5 0 0 0 - - -;
#X floatatom 283 348 5 0 0 0 - - -;
#X obj 236 317 unpack;
#N canvas 0 0 450 300 \$0-xxx 0;
#X obj 147 58 inlet;
#X obj 147 157 outlet;
#X obj 145 81 canvasposition 1;
#X connect 0 0 2 0;
#X connect 2 1 1 0;
#X restore 148 230 pd \$0-xxx;
#X floatatom 157 286 5 0 0 0 - - -;
#X floatatom 190 286 5 0 0 0 - - -;
#X obj 148 256 unpack;
#X text 161 307 dimension;
#X text 291 328 position;
#X obj 236 270 canvasposition 1;
#X obj 345 229 canvasindex 1;
#X obj 148 -117 r GLOBAL_OSC;
#X obj 200 -8 bng 15 250 50 0 empty empty empty 17 7 0 10 -262144 -1
-1;
#X obj 148 -32 routeOSC /globalbng;
#X obj 148 -80 routeOSC /c::ntr::l;
#X obj 148 -55 routeOSC /module;
#X msg 641 23 set \$1;
#X obj 641 -4 makefilename /module.%d;
#X obj 641 54 routeOSC /dummy;
#X obj 1230 386 prepend /c::ntr::l/module.4/x-size;
#X msg 1230 513 /c::ntr::l/module.4/x-size 161;
#X obj 1230 410 prepend set;
#X obj 1230 284 makefilename /c::ntr::l/module.%d/x-size;
#X obj 741 281 makefilename /c::ntr::l/module.%d/x-pos;
#X msg 1230 334 set \$1;
#X msg 741 507 /c::ntr::l/module.4/x-pos 160;
#X obj 741 404 prepend set;
#X msg 741 332 set \$1;
#X obj 741 380 prepend /c::ntr::l/module.4/x-pos;
#X obj 741 698 s GLOBAL_OSC;
#X obj 414 4 inlet tab-active;
#X obj 546 484 float;
#X msg 546 509 /c::ntr::l/module/active \$1;
#X obj 345 354 s \$0-canvasindex;
#X obj 932 -117 r \$0-canvasindex;
#X symbolatom 697 23 10 0 0 0 - - -;
#X obj 115 -9 bng 15 250 50 0 empty empty empty 17 7 0 10 -262144 -1
-1;
#X text 601 532 \$1 = canvasindex <n>;
#X obj 263 482 s \$0-x-pos;
#X obj 148 352 s \$0-x-size;
#X obj 70 55 s \$0-bng1;
#X obj 54 75 s \$0-bng2;
#X obj 38 96 s \$0-bng3;
#X obj 148 204 r \$0-bng3;
#X obj 236 180 r \$0-bng2;
#X obj 345 204 r \$0-bng1;
#X obj 931 -137 cnv 15 100 15 empty empty empty 20 12 0 14 -258113
-66577 0;
#X obj 345 375 cnv 15 100 15 empty empty empty 20 12 0 14 -258113 -66577
0;
#X obj 147 184 cnv 15 60 15 empty empty empty 20 12 0 14 -203904 -66577
0;
#X obj 37 119 cnv 15 60 15 empty empty empty 20 12 0 14 -203904 -66577
0;
#X obj 1298 333 r \$0-x-size;
#X obj 802 331 r \$0-x-pos;
#X obj 148 375 cnv 15 70 15 empty empty empty 20 12 0 14 -260097 -66577
0;
#X obj 1297 314 cnv 15 70 15 empty empty empty 20 12 0 14 -260097 -66577
0;
#X obj 263 504 cnv 15 70 15 empty empty empty 20 12 0 14 -260097 -66577
0;
#X obj 801 310 cnv 15 70 15 empty empty empty 20 12 0 14 -260097 -66577
0;
#X obj 236 160 cnv 15 60 15 empty empty empty 20 12 0 14 -203904 -66577
0;
#X obj 345 184 cnv 15 60 15 empty empty empty 20 12 0 14 -203904 -66577
0;
#X obj 414 31 s \$0-tab-active;
#X obj 469 446 r \$0-tab-active;
#X obj 573 445 r \$0-canvasindex;
#X obj 572 425 cnv 15 100 15 empty empty empty 20 12 0 14 -258113 -66577
0;
#X obj 414 54 cnv 15 90 15 empty empty empty 20 12 0 14 -184385 -66577
0;
#X obj 469 426 cnv 15 90 15 empty empty empty 20 12 0 14 -184385 -66577
0;
#X obj 978 502 r \$0-tab-active;
#X obj 978 482 cnv 15 90 15 empty empty empty 20 12 0 14 -184385 -66577
0;
#X obj 1462 509 r \$0-tab-active;
#X obj 1462 489 cnv 15 90 15 empty empty empty 20 12 0 14 -184385 -66577
0;
#X obj 71 631 s GLOBAL_OSC;
#X msg 71 605 /c::ntr::l/module.5 \$0;
#X obj 71 582 bng 15 250 50 0 empty empty empty 17 7 0 10 -262144 -1
-1;
#X text 67 554 this is just for testing;
#X obj 7 207 outlet id_loadbang;
#X obj 361 311 outlet canvasindex;
#X obj 480 312 cnv 15 15 15 empty empty o 2 7 1 21 -4034 -66577 0;
#X obj 125 209 cnv 15 15 15 empty empty o 2 7 1 21 -4034 -66577 0;
#X obj 22 143 s \$0-bng4;
#X obj 880 473 r \$0-bng4;
#X obj 1371 477 r \$0-bng4;
#X obj 22 166 cnv 15 60 15 empty empty empty 20 12 0 14 -137343 -66577
0;
#X obj 879 453 cnv 15 60 15 empty empty empty 20 12 0 14 -137343 -66577
0;
#X obj 1370 456 cnv 15 60 15 empty empty empty 20 12 0 14 -137343 -66577
0;
#X obj 7 28 t b b b b b;
#X obj 148 12 t b b b b;
#X obj 446 562 r \$0-canvasindex;
#X obj 445 542 cnv 15 100 15 empty empty empty 20 12 0 14 -258113 -66577
0;
#X obj 446 583 prepend /c::ntr::l/connect;
#X obj 446 605 prepend set;
#X msg 446 655 /c::ntr::l/connect 4;
#X obj 532 627 r \$0-bng4;
#X obj 531 607 cnv 15 60 15 empty empty empty 20 12 0 14 -137343 -66577
0;
#X msg 1447 542 /c::ntr::l/module.4/del-x-size 161;
#X obj 1447 439 prepend set;
#X msg 1447 363 set \$1;
#X obj 1447 313 makefilename /c::ntr::l/module.%d/del-x-size;
#X obj 1447 415 prepend /c::ntr::l/module.4/del-x-size;
#X obj 1298 355 t f f;
#X msg 958 543 /c::ntr::l/module.4/del-x-pos 160;
#X obj 958 440 prepend set;
#X msg 958 368 set \$1;
#X obj 958 317 makefilename /c::ntr::l/module.%d/del-x-pos;
#X obj 958 416 prepend /c::ntr::l/module.4/del-x-pos;
#X obj 802 354 t f f;
#X obj 932 -89 t f f f f f;
#X obj 510 82 routeOSC /spit-it;
#X obj 510 108 s \$0-spit-it;
#X obj 122 116 r \$0-spit-it;
#X obj 122 139 t b b;
#X obj 510 129 cnv 15 75 15 empty empty empty 20 12 0 14 -253761 -66577
0;
#X obj 122 95 cnv 15 75 15 empty empty empty 20 12 0 14 -253761 -66577
0;
#X obj 641 148 t f b;
#X obj 626 245 -;
#X obj 626 315 s \$0-new-x-pos;
#X obj 641 119 routeOSC /x-size-deleted-module;
#X obj 264 54 r \$0-new-x-pos;
#X obj 626 292 pack;
#X msg 626 269 \$1 20;
#X obj 458 196 del 100;
#X obj 579 361 print MOVE;
#X obj 236 372 t f f;
#X obj 236 209 t b b;
#X msg 297 382 1;
#X msg 281 234 0;
#X obj 264 98 t b b;
#X obj 571 209 r \$0-x-pos-for-new-x-pos;
#X obj 235 432 cnv 15 70 15 empty empty empty 20 12 0 14 -261285 -66577
0;
#X obj 236 454 s \$0-x-pos-for-new-x-pos;
#X obj 570 189 cnv 15 70 15 empty empty empty 20 12 0 14 -261285 -66577
0;
#X obj 236 406 spigot 0;
#X connect 1 0 84 0;
#X connect 4 0 2 0;
#X connect 4 0 121 0;
#X connect 4 1 3 0;
#X connect 5 0 8 0;
#X connect 8 0 6 0;
#X connect 8 0 41 0;
#X connect 8 1 7 0;
#X connect 11 0 4 0;
#X connect 12 0 0 0;
#X connect 12 0 75 0;
#X connect 12 0 35 0;
#X connect 13 0 16 0;
#X connect 15 0 14 0;
#X connect 15 0 85 0;
#X connect 16 0 17 0;
#X connect 16 0 20 0;
#X connect 17 0 15 0;
#X connect 18 0 20 0;
#X connect 19 0 18 0;
#X connect 19 0 37 0;
#X connect 20 0 106 0;
#X connect 20 0 115 0;
#X connect 21 0 23 0;
#X connect 22 0 31 0;
#X connect 23 0 22 0;
#X connect 24 0 26 0;
#X connect 25 0 29 0;
#X connect 26 0 21 0;
#X connect 27 0 31 0;
#X connect 28 0 27 0;
#X connect 29 0 30 0;
#X connect 30 0 28 0;
#X connect 32 0 60 0;
#X connect 33 0 34 0;
#X connect 34 0 31 0;
#X connect 36 0 105 0;
#X connect 38 0 85 0;
#X connect 45 0 5 0;
#X connect 46 0 122 0;
#X connect 47 0 12 0;
#X connect 52 0 98 0;
#X connect 53 0 104 0;
#X connect 61 0 33 0;
#X connect 62 0 33 1;
#X connect 66 0 99 0;
#X connect 68 0 93 0;
#X connect 71 0 70 0;
#X connect 72 0 71 0;
#X connect 79 0 27 0;
#X connect 80 0 22 0;
#X connect 84 0 74 0;
#X connect 84 1 78 0;
#X connect 84 2 44 0;
#X connect 84 3 43 0;
#X connect 84 4 42 0;
#X connect 85 0 5 0;
#X connect 85 1 11 0;
#X connect 85 2 12 0;
#X connect 86 0 88 0;
#X connect 88 0 89 0;
#X connect 89 0 90 0;
#X connect 90 0 31 0;
#X connect 91 0 90 0;
#X connect 93 0 31 0;
#X connect 94 0 93 0;
#X connect 95 0 97 0;
#X connect 96 0 95 0;
#X connect 97 0 94 0;
#X connect 98 0 97 0;
#X connect 98 1 21 0;
#X connect 99 0 31 0;
#X connect 100 0 99 0;
#X connect 101 0 103 0;
#X connect 102 0 101 0;
#X connect 103 0 100 0;
#X connect 104 0 103 0;
#X connect 104 1 30 0;
#X connect 105 0 19 0;
#X connect 105 1 102 0;
#X connect 105 2 96 0;
#X connect 105 3 25 0;
#X connect 105 4 24 0;
#X connect 106 0 107 0;
#X connect 108 0 109 0;
#X connect 109 0 5 0;
#X connect 109 1 11 0;
#X connect 112 0 113 1;
#X connect 112 1 119 0;
#X connect 113 0 118 0;
#X connect 115 0 112 0;
#X connect 116 0 120 0;
#X connect 116 0 125 0;
#X connect 117 0 114 0;
#X connect 118 0 117 0;
#X connect 119 0 11 0;
#X connect 121 0 130 0;
#X connect 121 1 40 0;
#X connect 122 0 11 0;
#X connect 122 1 124 0;
#X connect 123 0 130 1;
#X connect 124 0 130 1;
#X connect 125 0 11 0;
#X connect 125 1 123 0;
#X connect 126 0 113 0;
#X connect 130 0 128 0;
