#N canvas 6 47 450 300 10;
#X obj 100 100 gui.bng.box Analysis;
#X obj 100 126 gui.bng.box Mapping;
#N canvas 502 233 457 265 move-modules 0;
#X obj 64 -58 inlet;
#X obj 64 92 tgl 15 0 empty empty empty 17 7 0 10 -262144 -1 -1 0 1
;
#X obj 63 110 sel 0 1;
#X floatatom 131 100 5 0 0 0 - - -;
#X obj 184 92 tgl 15 0 empty empty empty 17 7 0 10 -262144 -1 -1 0
1;
#X obj 183 110 sel 0 1;
#X msg 183 135 537 755;
#X floatatom 251 100 5 0 0 0 - - -;
#X obj 324 92 tgl 15 0 empty empty empty 17 7 0 10 -262144 -1 -1 0
1;
#X obj 323 110 sel 0 1;
#X msg 323 135 537 755;
#X floatatom 391 100 5 0 0 0 - - -;
#X obj 323 159 s pos-routing-midi;
#X obj 64 -31 hradio 15 1 0 8 empty empty empty 0 -8 0 10 -262144 -1
-1 0;
#X obj 64 -12 sel 0 1 2;
#X obj 63 159 s pos-analysis;
#X obj 183 159 s pos-routing-params;
#X obj 64 51 unpack f f f;
#X msg 64 23 1 0 0;
#X msg 114 23 0 1 0;
#X msg 164 23 0 0 1;
#X msg 63 135 537 755;
#X msg 114 135 548 389;
#X msg 234 135 548 389;
#X msg 374 135 548 389;
#X connect 0 0 13 0;
#X connect 1 0 2 0;
#X connect 2 0 21 0;
#X connect 2 1 22 0;
#X connect 3 0 22 0;
#X connect 4 0 5 0;
#X connect 5 0 6 0;
#X connect 5 1 23 0;
#X connect 6 0 16 0;
#X connect 7 0 23 0;
#X connect 8 0 9 0;
#X connect 9 0 10 0;
#X connect 9 1 24 0;
#X connect 10 0 12 0;
#X connect 11 0 24 0;
#X connect 13 0 14 0;
#X connect 14 0 18 0;
#X connect 14 1 19 0;
#X connect 14 2 20 0;
#X connect 17 0 1 0;
#X connect 17 1 4 0;
#X connect 17 2 8 0;
#X connect 18 0 17 0;
#X connect 19 0 17 0;
#X connect 20 0 17 0;
#X connect 21 0 15 0;
#X connect 22 0 15 0;
#X connect 23 0 16 0;
#X connect 24 0 12 0;
#X restore 100 243 pd move-modules;
#X msg 100 208 0;
#X msg 130 208 1;
#X msg 161 207 2;
#X obj 100 152 gui.bng.box Midi;
#X connect 0 0 3 0;
#X connect 1 0 4 0;
#X connect 3 0 2 0;
#X connect 4 0 2 0;
#X connect 5 0 2 0;
#X connect 6 0 5 0;
#X coords 0 -1 1 1 65 77 2 100 100;
