#N canvas 6 47 450 300 10;
#N canvas 786 142 465 283 move-modules 0;
#X obj 64 -38 inlet;
#X obj 64 98 tgl 15 0 empty empty empty 17 7 0 10 -262144 -1 -1 0 1
;
#X obj 63 116 sel 0 1;
#X obj 184 98 tgl 15 0 empty empty empty 17 7 0 10 -262144 -1 -1 0
1;
#X obj 183 116 sel 0 1;
#X floatatom 251 106 5 0 0 0 - - -;
#X obj 64 -11 hradio 15 1 0 8 empty empty empty 0 -8 0 10 -262144 -1
-1 0;
#X obj 64 8 sel 0 1 2;
#X obj 63 165 s pos-sensor-1;
#X obj 64 63 unpack f f;
#X msg 64 36 1 0;
#X msg 94 36 0 1;
#X obj 183 165 s pos-sensor-2;
#X msg 114 142 25 398;
#X msg 63 141 25 900;
#X msg 183 141 25 900;
#X msg 235 141 25 398;
#X connect 0 0 6 0;
#X connect 1 0 2 0;
#X connect 2 0 14 0;
#X connect 2 1 13 0;
#X connect 3 0 4 0;
#X connect 4 0 15 0;
#X connect 4 1 16 0;
#X connect 5 0 16 0;
#X connect 6 0 7 0;
#X connect 7 0 10 0;
#X connect 7 1 11 0;
#X connect 9 0 1 0;
#X connect 9 1 3 0;
#X connect 10 0 9 0;
#X connect 11 0 9 0;
#X connect 13 0 8 0;
#X connect 14 0 8 0;
#X connect 15 0 12 0;
#X connect 16 0 12 0;
#X restore 100 223 pd move-modules;
#X msg 100 188 0;
#X msg 130 188 1;
#X obj 100 100 gui.bng.box Sensor.1;
#X obj 100 126 gui.bng.box Sensor.2;
#X connect 1 0 0 0;
#X connect 2 0 0 0;
#X connect 3 0 1 0;
#X connect 4 0 2 0;
#X coords 0 -1 1 1 65 52 2 100 100;
