#N canvas 378 239 656 433 10;
#N canvas 970 383 450 300 receive.all.triggers 0;
#X obj 77 12 r t.a;
#X obj 107 32 r t.b;
#X obj 134 53 r t.c;
#X obj 161 75 r t.d;
#X obj 188 94 r t.e;
#X obj 219 120 r t.f;
#X obj 49 199 outlet;
#X obj 99 199 outlet;
#X obj 147 199 outlet;
#X obj 197 199 outlet;
#X obj 247 199 outlet;
#X obj 297 199 outlet;
#X connect 0 0 6 0;
#X connect 1 0 7 0;
#X connect 2 0 8 0;
#X connect 3 0 9 0;
#X connect 4 0 10 0;
#X connect 5 0 11 0;
#X restore 500 208 pd receive.all.triggers;
#X obj 105 311 s IDPARAM;
#X obj 225 142 hradio 15 1 0 4 empty empty Linear 3 8 0 8 -1 -1 -191407
0;
#X obj 286 142 hradio 15 1 0 4 empty empty Tanh 3 8 0 8 -1 -1 -191407
0;
#X obj 345 142 hradio 15 1 0 4 empty empty Max 3 8 0 8 -1 -1 -191407
0;
#X obj 104 103 hradio 15 1 0 20 empty empty Control.Data.Sensor.1 3
8 0 8 -1 -1 -228856 0;
#X obj 104 142 hradio 15 1 0 4 empty empty Natural 3 8 0 8 -1 -1 -191407
0;
#X obj 165 142 hradio 15 1 0 4 empty empty Soft 3 8 0 8 -1 -1 -191407
0;
#X obj 104 120 params.trigger;
#X obj 500 124 canvasposition;
#X obj 226 120 params.trigger;
#X obj 348 120 params.trigger;
#X obj 287 120 params.trigger;
#X obj 165 120 params.trigger;
#X obj 104 40 r MASTER.NAT.\$1;
#X obj 165 62 r MASTER.SOFT.\$1;
#X obj 226 33 r MASTER.IN.\$1;
#X obj 287 55 r MASTER.TANH.\$1;
#X obj 348 77 r MASTER.LASTMAX.\$1;
#X obj 500 101 r pos-sensor-\$1;
#X obj 105 172 iem_s.wrap nat.\$1;
#X obj 165 195 iem_s.wrap soft.\$1;
#X obj 226 217 iem_s.wrap linear.\$1;
#X obj 287 240 iem_s.wrap tanh.\$1;
#X obj 348 262 iem_s.wrap max.\$1;
#X obj 16 -45 loadbang;
#X obj 16 -23 f \$1;
#X obj 16 -2 makefilename Features.MMG.%d;
#X msg 16 21 label \$1;
#X connect 8 0 20 0;
#X connect 8 1 20 1;
#X connect 10 0 22 0;
#X connect 10 1 22 1;
#X connect 11 0 24 0;
#X connect 11 1 24 1;
#X connect 12 0 23 0;
#X connect 12 1 23 1;
#X connect 13 0 21 0;
#X connect 13 1 21 1;
#X connect 14 0 8 0;
#X connect 15 0 13 0;
#X connect 16 0 10 0;
#X connect 17 0 12 0;
#X connect 18 0 11 0;
#X connect 19 0 9 0;
#X connect 20 0 1 0;
#X connect 21 0 1 0;
#X connect 22 0 1 0;
#X connect 23 0 1 0;
#X connect 24 0 1 0;
#X connect 25 0 26 0;
#X connect 26 0 27 0;
#X connect 27 0 28 0;
#X connect 28 0 5 0;
#X coords 0 -1 1 1 310 60 2 100 100;
