#N canvas 418 197 776 406 10;
#X msg 112 58 color 23 23 30;
#X msg 100 11 color 21 21 30;
#X obj 100 -12 r \$0-tab-quiet;
#X obj 112 37 r \$0-tab-active;
#X obj 100 240 s \$0-tab-active;
#X obj 119 267 s \$0-tab-quiet;
#X msg 281 63 label \$1;
#N canvas 0 0 450 300 init 0;
#X obj 138 44 loadbang;
#X obj 138 73 s \$0-init;
#X connect 0 0 1 0;
#X restore 0 256 pd init;
#X obj 281 -10 r \$0-init;
#X obj 373 -9 inlet label;
#X obj 241 267 outlet tab-active;
#X obj 241 242 r \$0-tab-active;
#X obj -16 -2 inlet id_loadbang;
#X obj 100 121 t b;
#X obj 100 102 vsl 155 10 0 1 0 0 empty empty SimDelay 10 6 0 8 -99865
-99865 -262144 0 1;
#X obj 133 142 + 1;
#X floatatom 120 186 5 0 0 0 - - -;
#X obj 100 162 mod 2;
#X obj 100 142 f;
#X obj 100 205 sel 0 1;
#X msg -16 21 1;
#X obj 281 18 symbol \$1;
#X symbolatom 281 40 10 0 0 0 - - -;
#X floatatom 496 13 5 0 0 0 - - -;
#X obj 242 131 vsl 20 10 0 127 0 0 empty empty 4 0 6 0 10 -1 -1 -262144
0 1;
#X msg 473 55 label \$1;
#X obj 473 33 makefilename %d;
#X floatatom 436 148 5 0 0 0 - - -;
#X obj 549 150 ==;
#X floatatom 566 176 5 0 0 0 - - -;
#X obj 549 244 s \$0-other-tab-active;
#X obj -33 101 r \$0-other-tab-active;
#X obj 422 116 r ID-for-highlight;
#X msg 549 222 1;
#X obj 549 199 sel 0;
#X obj 473 -9 inlet canvasindex;
#X connect 0 0 14 0;
#X connect 1 0 14 0;
#X connect 2 0 1 0;
#X connect 3 0 0 0;
#X connect 6 0 14 0;
#X connect 8 0 21 0;
#X connect 9 0 21 0;
#X connect 11 0 10 0;
#X connect 12 0 20 0;
#X connect 13 0 18 0;
#X connect 14 0 13 0;
#X connect 15 0 18 1;
#X connect 17 0 16 0;
#X connect 17 0 19 0;
#X connect 18 0 15 0;
#X connect 18 0 17 0;
#X connect 19 0 4 0;
#X connect 19 1 5 0;
#X connect 20 0 19 0;
#X connect 21 0 22 0;
#X connect 22 0 6 0;
#X connect 25 0 24 0;
#X connect 26 0 25 0;
#X connect 28 0 29 0;
#X connect 28 0 34 0;
#X connect 31 0 18 0;
#X connect 32 0 27 0;
#X connect 32 0 28 0;
#X connect 33 0 30 0;
#X connect 34 0 33 0;
#X connect 35 0 23 0;
#X connect 35 0 26 0;
#X connect 35 0 28 1;
#X coords 0 -1 1 1 155 16 2 100 100;
