#N canvas 792 47 673 593 10;
#X msg 111 52 color 23 23 30;
#X msg 100 5 color 21 21 30;
#X obj 100 -18 r \$0-tab-quiet;
#X obj 111 31 r \$0-tab-active;
#X obj 100 328 s \$0-tab-active;
#X obj 119 355 s \$0-tab-quiet;
#X msg 216 54 label \$1;
#X obj 216 -14 r \$0-init;
#X obj 275 -145 r \$0-tab-active;
#X obj 100 172 t b;
#X obj 100 102 vsl 155 10 0 1 0 0 empty empty phas.mod 10 6 0 8 -143491
-143491 -262144 0 1;
#X obj 133 193 + 1;
#X obj 100 213 mod 2;
#X obj 100 193 f;
#X obj 100 293 sel 0 1;
#X msg 110 262 1;
#X obj 216 9 symbol \$1;
#X symbolatom 216 31 10 0 0 0 - - -;
#X obj 235 102 vsl 20 10 0 127 0 0 bcfbcfg hxfgb 4 7 6 0 8 -99865 -99865
-262144 0 1;
#X msg 291 58 label \$1;
#X obj 291 36 makefilename %d;
#X obj 435 254 ==;
#X floatatom 452 280 5 0 0 0 - - -;
#X obj 435 348 s \$0-other-tab-active;
#X obj 72 148 r \$0-other-tab-active;
#X msg 435 326 1;
#X obj 435 303 sel 0;
#X obj 105 -182 inlet ||||;
#X obj 105 -58 s \$0-init;
#X obj 110 238 r \$0-init;
#X obj 72 172 t a;
#X obj 360 -57 s \$0-cnvidx;
#X obj 291 12 r \$0-cnvidx;
#X obj 450 229 r \$0-cnvidx;
#X obj 154 -135 t a a;
#N canvas 44 24 1667 921 buildIdentity--------------------------- 0
;
#X floatatom 369 246 5 0 0 0 - - -;
#X obj 10 -8 r \$1_loadbang;
#X floatatom 240 338 5 0 0 0 - - -;
#X floatatom 273 338 5 0 0 0 - - -;
#X obj 226 307 unpack;
#N canvas 0 0 450 300 \$0-xxx 0;
#X obj 147 58 inlet;
#X obj 147 157 outlet;
#X obj 145 81 canvasposition 2;
#X connect 0 0 2 0;
#X connect 2 1 1 0;
#X restore 138 220 pd \$0-xxx;
#X floatatom 147 276 5 0 0 0 - - -;
#X floatatom 180 276 5 0 0 0 - - -;
#X obj 138 246 unpack;
#X text 151 297 dimension;
#X text 281 318 position;
#X obj 226 -180 r GLOBAL_OSC;
#X obj 190 -18 bng 15 250 50 0 empty empty empty 17 7 0 10 -262144
-1 -1;
#X obj 138 -42 routeOSC /globalbng;
#X obj 226 -158 routeOSC /c::ntr::l;
#X obj 138 -65 routeOSC /module;
#X msg 586 -26 set \$1;
#X obj 586 -53 makefilename /module.%d;
#X obj 586 5 routeOSC /dummy;
#X obj 1220 376 prepend /c::ntr::l/module.4/x-size;
#X msg 1220 503 /c::ntr::l/w2/module.4/x-size 158;
#X obj 1220 400 prepend set;
#X msg 1220 324 set \$1;
#X msg 731 497 /c::ntr::l/w2/module.4/x-pos 160;
#X obj 731 394 prepend set;
#X msg 731 322 set \$1;
#X obj 731 370 prepend /c::ntr::l/module.4/x-pos;
#X obj 731 688 s GLOBAL_OSC;
#X obj 311 -3 inlet tab-active;
#X obj 536 474 float;
#X obj 335 344 s \$0-canvasindex;
#X obj 922 -157 r \$0-canvasindex;
#X symbolatom 642 -26 10 0 0 0 - - -;
#X obj 105 -19 bng 15 250 50 0 empty empty empty 17 7 0 10 -262144
-1 -1;
#X text 626 571 \$1 = canvasindex <n>;
#X obj 226 418 s \$0-x-pos;
#X obj 138 342 s \$0-x-size;
#X obj 60 45 s \$0-bng1;
#X obj 44 65 s \$0-bng2;
#X obj 28 86 s \$0-bng3;
#X obj 147 188 r \$0-bng3;
#X obj 226 170 r \$0-bng2;
#X obj 335 177 r \$0-bng1;
#X obj 921 -177 cnv 15 100 15 empty empty empty 20 12 0 14 -258113
-66577 0;
#X obj 335 365 cnv 15 100 15 empty empty empty 20 12 0 14 -258113 -66577
0;
#X obj 146 168 cnv 15 60 15 empty empty empty 20 12 0 14 -203904 -66577
0;
#X obj 27 109 cnv 15 60 15 empty empty empty 20 12 0 14 -203904 -66577
0;
#X obj 1288 323 r \$0-x-size;
#X obj 792 317 r \$0-x-pos;
#X obj 138 365 cnv 15 70 15 empty empty empty 20 12 0 14 -260097 -66577
0;
#X obj 1287 304 cnv 15 70 15 empty empty empty 20 12 0 14 -260097 -66577
0;
#X obj 226 440 cnv 15 70 15 empty empty empty 20 12 0 14 -260097 -66577
0;
#X obj 791 296 cnv 15 70 15 empty empty empty 20 12 0 14 -260097 -66577
0;
#X obj 226 150 cnv 15 60 15 empty empty empty 20 12 0 14 -203904 -66577
0;
#X obj 335 157 cnv 15 60 15 empty empty empty 20 12 0 14 -203904 -66577
0;
#X obj 563 435 r \$0-canvasindex;
#X obj 562 415 cnv 15 100 15 empty empty empty 20 12 0 14 -258113 -66577
0;
#X obj 311 47 cnv 15 90 15 empty empty empty 20 12 0 14 -184385 -66577
0;
#X obj 459 416 cnv 15 90 15 empty empty empty 20 12 0 14 -184385 -66577
0;
#X obj 968 472 cnv 15 90 15 empty empty empty 20 12 0 14 -184385 -66577
0;
#X obj 1452 479 cnv 15 90 15 empty empty empty 20 12 0 14 -184385 -66577
0;
#X obj 17 617 s GLOBAL_OSC;
#X msg 17 591 /c::ntr::l/module.5 \$0;
#X obj 17 568 bng 15 250 50 0 empty empty empty 17 7 0 10 -262144 -1
-1;
#X text 13 540 this is just for testing;
#X obj -3 197 outlet id_loadbang;
#X obj 351 301 outlet canvasindex;
#X obj 470 302 cnv 15 15 15 empty empty o 2 7 1 21 -4034 -66577 0;
#X obj 115 199 cnv 15 15 15 empty empty o 2 7 1 21 -4034 -66577 0;
#X obj 12 153 s \$0-bng4;
#X obj 870 463 r \$0-bng4;
#X obj 1361 467 r \$0-bng4;
#X obj 12 176 cnv 15 60 15 empty empty empty 20 12 0 14 -137343 -66577
0;
#X obj 869 443 cnv 15 60 15 empty empty empty 20 12 0 14 -137343 -66577
0;
#X obj 1360 446 cnv 15 60 15 empty empty empty 20 12 0 14 -137343 -66577
0;
#X obj -3 18 t b b b b b;
#X obj 138 2 t b b b b;
#X obj 311 485 r \$0-canvasindex;
#X obj 310 465 cnv 15 100 15 empty empty empty 20 12 0 14 -258113 -66577
0;
#X obj 486 560 r \$0-bng4;
#X obj 486 539 cnv 15 60 15 empty empty empty 20 12 0 14 -137343 -66577
0;
#X msg 1437 532 /c::ntr::l/w2/module.4/del-x-size 158;
#X obj 1437 429 prepend set;
#X msg 1437 353 set \$1;
#X obj 1437 405 prepend /c::ntr::l/module.4/del-x-size;
#X obj 1288 345 t f f;
#X msg 948 533 /c::ntr::l/w2/module.4/del-x-pos 160;
#X obj 948 430 prepend set;
#X msg 948 358 set \$1;
#X obj 948 406 prepend /c::ntr::l/module.4/del-x-pos;
#X obj 792 340 t f f;
#X obj 922 -99 t f f f f f;
#X obj 455 74 routeOSC /spit-it;
#X obj 455 100 s \$0-spit-it;
#X obj 112 88 r \$0-spit-it;
#X obj 454 123 cnv 15 75 15 empty empty empty 20 12 0 14 -253761 -66577
0;
#X obj 112 67 cnv 15 75 15 empty empty empty 20 12 0 14 -253761 -66577
0;
#X obj 586 234 -;
#X obj 586 304 s \$0-new-x-pos;
#X obj 586 82 routeOSC /x-size-deleted-module;
#X obj 236 209 r \$0-new-x-pos;
#X obj 586 281 pack;
#X msg 586 258 \$1 20;
#X obj 625 116 print PRE;
#X obj 607 46 print XXPRE;
#X msg 547 -163 /x-size-deleted-module 161;
#X text 797 -158 for debug;
#X obj 586 202 unpack;
#X obj 586 140 t b f;
#X obj 557 157 bng 15 250 50 0 empty empty empty 17 7 0 10 -262144
-1 -1;
#X obj -3 -40 inlet ||||;
#X obj 335 202 canvasindex 2;
#X obj 226 260 canvasposition 2;
#X obj 586 178 canvasposition 2;
#X obj 311 24 s \$0-tab-activee;
#X obj 459 436 r \$0-tab-activee;
#X obj 968 492 r \$0-tab-activee;
#X obj 1452 499 r \$0-tab-activee;
#X obj 226 -124 routeOSC /dummy;
#X msg 65 -116 set \$1;
#X obj 65 -208 inlet wksp;
#X obj 65 -138 makefilename /%s;
#X obj 719 -92 print;
#X obj 65 -185 symbol;
#X obj 65 -162 t a a;
#X obj 106 -162 s \$0-wksp-symbol;
#N canvas 562 195 450 300 make.merge.name 0;
#X obj 113 179 mergefilename /;
#X obj 113 -17 makefilename /c::ntr::l/%s;
#X obj 113 154 pack s s;
#X obj 158 52 makefilename module.%d/x-pos;
#X obj 113 -41 r \$0-wksp-symbol;
#X obj 158 30 inlet canvasindex;
#X obj 113 203 outlet;
#X obj 69 26 print;
#X obj 61 157 bng 15 250 50 0 empty empty empty 17 7 0 10 -262144 -1
-1;
#X obj 158 98 t b s;
#X connect 0 0 6 0;
#X connect 1 0 2 0;
#X connect 2 0 0 0;
#X connect 3 0 9 0;
#X connect 4 0 1 0;
#X connect 5 0 3 0;
#X connect 8 0 2 0;
#X connect 9 0 2 0;
#X connect 9 1 2 1;
#X restore 731 267 pd make.merge.name;
#N canvas 0 0 450 300 make.merge.name 0;
#X obj 113 164 mergefilename /;
#X obj 113 -17 makefilename /c::ntr::l/%s;
#X obj 113 139 pack s s;
#X obj 113 -41 r \$0-wksp-symbol;
#X obj 158 22 inlet canvasindex;
#X obj 113 188 outlet;
#X obj 158 44 makefilename module.%d/del-x-pos;
#X obj 158 94 t b s;
#X connect 0 0 5 0;
#X connect 1 0 2 0;
#X connect 2 0 0 0;
#X connect 3 0 1 0;
#X connect 4 0 6 0;
#X connect 6 0 7 0;
#X connect 7 0 2 0;
#X connect 7 1 2 1;
#X restore 948 299 pd make.merge.name;
#N canvas 0 0 450 300 make.merge.name 0;
#X obj 113 147 mergefilename /;
#X obj 113 -17 makefilename /c::ntr::l/%s;
#X obj 113 122 pack s s;
#X obj 113 -41 r \$0-wksp-symbol;
#X obj 158 19 inlet canvasindex;
#X obj 113 171 outlet;
#X obj 158 41 makefilename module.%d/x-size;
#X obj 158 85 t b s;
#X connect 0 0 5 0;
#X connect 1 0 2 0;
#X connect 2 0 0 0;
#X connect 3 0 1 0;
#X connect 4 0 6 0;
#X connect 6 0 7 0;
#X connect 7 0 2 0;
#X connect 7 1 2 1;
#X restore 1220 271 pd make.merge.name;
#N canvas 0 0 450 300 make.merge.name 0;
#X obj 113 163 mergefilename /;
#X obj 113 -17 makefilename /c::ntr::l/%s;
#X obj 113 138 pack s s;
#X obj 113 -41 r \$0-wksp-symbol;
#X obj 158 22 inlet canvasindex;
#X obj 113 187 outlet;
#X obj 158 44 makefilename module.%d/del-x-size;
#X obj 158 92 t b s;
#X connect 0 0 5 0;
#X connect 1 0 2 0;
#X connect 2 0 0 0;
#X connect 3 0 1 0;
#X connect 4 0 6 0;
#X connect 6 0 7 0;
#X connect 7 0 2 0;
#X connect 7 1 2 1;
#X restore 1437 287 pd make.merge.name;
#N canvas 643 222 450 300 make.merge.name 0;
#X obj 115 123 mergefilename /;
#X obj 115 36 makefilename /c::ntr::l/%s;
#X obj 115 98 pack s s;
#X obj 115 -9 r \$0-wksp-symbol;
#X obj 115 147 outlet;
#X obj 160 76 symbol module/active;
#X obj 115 14 t a b;
#X connect 0 0 4 0;
#X connect 1 0 2 0;
#X connect 2 0 0 0;
#X connect 3 0 6 0;
#X connect 5 0 2 1;
#X connect 6 0 1 0;
#X connect 6 1 5 0;
#X restore 577 473 pd make.merge.name;
#X msg 577 498 set \$1;
#X obj 577 525 prepend dummy;
#X obj 577 547 prepend set;
#X msg 577 596 /c::ntr::l/w2/module/active 4;
#X obj 577 570 t b a;
#N canvas 643 222 450 300 make.merge.name 0;
#X obj 115 123 mergefilename /;
#X obj 115 36 makefilename /c::ntr::l/%s;
#X obj 115 98 pack s s;
#X obj 115 -9 r \$0-wksp-symbol;
#X obj 115 147 outlet;
#X obj 115 14 t a b;
#X obj 160 76 symbol connect;
#X obj 30 25 symbol;
#X msg 29 0 fdd;
#X connect 0 0 4 0;
#X connect 1 0 2 0;
#X connect 2 0 0 0;
#X connect 3 0 5 0;
#X connect 5 0 1 0;
#X connect 5 1 6 0;
#X connect 6 0 2 1;
#X connect 7 0 5 0;
#X connect 8 0 7 0;
#X restore 373 513 pd make.merge.name;
#X msg 373 538 set \$1;
#X obj 373 565 prepend dummy;
#X obj 373 590 prepend set;
#X msg 373 617 /c::ntr::l/w2/connect 4;
#X symbolatom 118 -184 10 0 0 0 - - -;
#X symbolatom 2 -102 10 0 0 0 - - -;
#X floatatom 304 537 5 0 0 0 - - -;
#X obj 311 507 pipe 10;
#X obj 412 664 print CONNNNNN;
#X obj 486 585 del 15;
#X floatatom 687 347 5 0 0 0 - - -;
#X floatatom 1181 350 5 0 0 0 - - -;
#X msg 17 -204 w2;
#X obj 12 128 del 15;
#X obj 138 320 pipe 10;
#X obj 112 107 del 250;
#X msg 625 346 157;
#X floatatom 358 323 5 0 0 0 - - -;
#X obj 249 285 bng 15 250 50 0 empty empty empty 17 7 0 10 -262144
-1 -1;
#X obj 112 129 t b b b b;
#X obj 226 392 pipe 1;
#X obj 501 353 del 15;
#X obj 496 260 del 15;
#X obj 64 -90 print WKSP;
#N canvas 723 24 729 451 make.merge.name 0;
#X obj 113 179 mergefilename /;
#X obj 113 154 pack s s;
#X obj 113 -41 r \$0-wksp-symbol;
#X obj 158 30 inlet canvasindex;
#X obj 69 26 print;
#X obj 61 157 bng 15 250 50 0 empty empty empty 17 7 0 10 -262144 -1
-1;
#X obj 158 98 t b s;
#X obj 205 284 prepend set;
#X msg 204 305 /c::ntr::l/routing/w2/module.4/dollar0 1570;
#X obj 158 52 makefilename module.%d/dollar0;
#X msg 113 209 set \$1;
#X obj 113 234 prepend dummy;
#X floatatom 53 204 5 0 0 0 - - -;
#X obj 228 174 inlet dollar0;
#X obj 113 345 s GLOBAL_OSC;
#X obj 228 197 pipe 15;
#X obj 113 -17 makefilename /c::ntr::l/routing/%s;
#X text 397 53 NOT IN USE AT THE MOMENT;
#X connect 0 0 10 0;
#X connect 1 0 0 0;
#X connect 2 0 16 0;
#X connect 3 0 9 0;
#X connect 5 0 1 0;
#X connect 6 0 1 0;
#X connect 6 1 1 1;
#X connect 7 0 8 0;
#X connect 9 0 6 0;
#X connect 10 0 11 0;
#X connect 11 0 7 0;
#X connect 11 0 14 0;
#X connect 12 0 11 0;
#X connect 13 0 15 0;
#X connect 15 0 11 0;
#X connect 16 0 1 0;
#X restore 1039 -119 pd make.merge.name;
#X floatatom 1066 -152 5 0 0 0 - - -;
#X obj 1144 -147 inlet dollar0;
#X connect 1 0 75 0;
#X connect 4 0 2 0;
#X connect 4 0 157 0;
#X connect 4 1 3 0;
#X connect 5 0 8 0;
#X connect 8 0 6 0;
#X connect 8 0 151 0;
#X connect 8 1 7 0;
#X connect 11 0 14 0;
#X connect 13 0 12 0;
#X connect 13 0 76 0;
#X connect 14 0 118 0;
#X connect 15 0 13 0;
#X connect 16 0 18 0;
#X connect 17 0 16 0;
#X connect 17 0 32 0;
#X connect 18 0 92 0;
#X connect 18 0 99 0;
#X connect 19 0 21 0;
#X connect 20 0 27 0;
#X connect 21 0 20 0;
#X connect 22 0 19 0;
#X connect 23 0 27 0;
#X connect 24 0 23 0;
#X connect 25 0 26 0;
#X connect 26 0 24 0;
#X connect 28 0 114 0;
#X connect 29 0 132 0;
#X connect 31 0 91 0;
#X connect 31 0 161 0;
#X connect 33 0 76 0;
#X connect 40 0 5 0;
#X connect 41 0 112 0;
#X connect 42 0 111 0;
#X connect 47 0 85 0;
#X connect 48 0 90 0;
#X connect 55 0 29 1;
#X connect 62 0 61 0;
#X connect 63 0 62 0;
#X connect 70 0 23 0;
#X connect 71 0 20 0;
#X connect 75 0 65 0;
#X connect 75 1 150 0;
#X connect 75 2 39 0;
#X connect 75 3 38 0;
#X connect 75 4 37 0;
#X connect 76 0 5 0;
#X connect 76 1 112 0;
#X connect 76 2 111 0;
#X connect 77 0 144 0;
#X connect 79 0 146 0;
#X connect 81 0 27 0;
#X connect 82 0 81 0;
#X connect 83 0 84 0;
#X connect 84 0 82 0;
#X connect 85 0 84 0;
#X connect 85 1 19 0;
#X connect 86 0 27 0;
#X connect 87 0 86 0;
#X connect 88 0 89 0;
#X connect 89 0 87 0;
#X connect 90 0 89 0;
#X connect 90 1 26 0;
#X connect 91 0 17 0;
#X connect 91 1 127 0;
#X connect 91 2 129 0;
#X connect 91 3 126 0;
#X connect 91 4 128 0;
#X connect 92 0 93 0;
#X connect 94 0 152 0;
#X connect 97 0 102 0;
#X connect 99 0 108 0;
#X connect 100 0 112 0;
#X connect 101 0 98 0;
#X connect 102 0 101 0;
#X connect 107 0 97 0;
#X connect 108 0 113 0;
#X connect 108 1 97 1;
#X connect 109 0 113 0;
#X connect 110 0 75 0;
#X connect 111 0 0 0;
#X connect 111 0 66 0;
#X connect 111 0 30 0;
#X connect 112 0 4 0;
#X connect 113 0 107 0;
#X connect 115 0 29 0;
#X connect 116 0 86 0;
#X connect 117 0 81 0;
#X connect 118 0 15 0;
#X connect 118 0 18 0;
#X connect 119 0 118 0;
#X connect 120 0 123 0;
#X connect 120 0 141 0;
#X connect 121 0 119 0;
#X connect 123 0 124 0;
#X connect 124 0 121 0;
#X connect 124 1 125 0;
#X connect 124 1 142 0;
#X connect 126 0 25 0;
#X connect 127 0 88 0;
#X connect 128 0 22 0;
#X connect 129 0 83 0;
#X connect 130 0 131 0;
#X connect 131 0 132 0;
#X connect 132 0 133 0;
#X connect 133 0 135 0;
#X connect 134 0 27 0;
#X connect 135 0 134 0;
#X connect 135 1 134 0;
#X connect 136 0 137 0;
#X connect 137 0 138 0;
#X connect 138 0 139 0;
#X connect 139 0 140 0;
#X connect 140 0 27 0;
#X connect 140 0 145 0;
#X connect 143 0 138 0;
#X connect 144 0 138 0;
#X connect 146 0 140 0;
#X connect 147 0 26 0;
#X connect 148 0 19 0;
#X connect 149 0 123 0;
#X connect 150 0 69 0;
#X connect 151 0 36 0;
#X connect 152 0 156 0;
#X connect 153 0 26 0;
#X connect 154 0 30 0;
#X connect 155 0 4 0;
#X connect 156 0 158 0;
#X connect 156 1 159 0;
#X connect 156 2 5 0;
#X connect 156 3 112 0;
#X connect 157 0 35 0;
#X connect 158 0 23 0;
#X connect 159 0 20 0;
#X connect 162 0 161 0;
#X connect 163 0 161 1;
#X restore 105 -83 pd buildIdentity---------------------------;
#X obj 154 -111 s \$0-wksp-symbol2;
#X obj 498 105 r \$0-wksp-symbol2;
#X obj 498 129 sel w1 w2 w3 w4;
#X obj 435 6 r ID1.highlight;
#X obj 450 27 r ID2.highlight;
#X obj 466 49 r ID3.highlight;
#X obj 482 69 r ID4.highlight;
#X obj 435 201 mux 1 2 3 4;
#X obj 544 207 tgl 15 0 empty empty empty 17 7 0 10 -262144 -1 -1 0
1;
#X obj 498 178 t f;
#X msg 498 153 0;
#X msg 527 153 1;
#X msg 557 153 2;
#X msg 587 153 3;
#X obj 105 -159 route bang symbol float;
#X connect 0 0 10 0;
#X connect 1 0 10 0;
#X connect 2 0 1 0;
#X connect 3 0 0 0;
#X connect 6 0 10 0;
#X connect 7 0 16 0;
#X connect 8 0 35 2;
#X connect 9 0 13 0;
#X connect 10 0 9 0;
#X connect 11 0 13 1;
#X connect 12 0 14 0;
#X connect 13 0 11 0;
#X connect 13 0 12 0;
#X connect 14 0 4 0;
#X connect 14 1 5 0;
#X connect 15 0 14 0;
#X connect 16 0 17 0;
#X connect 17 0 6 0;
#X connect 19 0 18 0;
#X connect 20 0 19 0;
#X connect 21 0 22 0;
#X connect 21 0 26 0;
#X connect 24 0 30 0;
#X connect 25 0 23 0;
#X connect 26 0 25 0;
#X connect 27 0 50 0;
#X connect 29 0 15 0;
#X connect 30 0 13 0;
#X connect 32 0 20 0;
#X connect 33 0 21 1;
#X connect 34 0 36 0;
#X connect 34 1 35 1;
#X connect 35 0 28 0;
#X connect 35 1 31 0;
#X connect 37 0 38 0;
#X connect 38 0 46 0;
#X connect 38 1 47 0;
#X connect 38 1 44 0;
#X connect 38 2 48 0;
#X connect 38 3 49 0;
#X connect 39 0 43 0;
#X connect 40 0 43 1;
#X connect 41 0 43 2;
#X connect 42 0 43 3;
#X connect 43 0 21 0;
#X connect 45 0 43 4;
#X connect 46 0 45 0;
#X connect 47 0 45 0;
#X connect 48 0 45 0;
#X connect 49 0 45 0;
#X connect 50 0 35 0;
#X connect 50 1 34 0;
#X connect 50 2 35 3;
#X coords 0 -1 1 1 155 16 2 100 100;
