#N canvas 309 176 953 440 10;
#X obj 100 100 cnv 15 492 155 empty empty empty 20 12 0 14 -128992
-66577 0;
#X text 569 -19 throw/catch = bus: serve per gruppare canali;
#X text 568 9 send/receive = aux: serve per singoli effetti;
#X obj -33 -36 catch~ dummy;
#X obj -77 83 mix.catch.stereo~ group.mix;
#X obj 636 228 mix.throw.stereo~ group.mix;
#N canvas 262 372 1332 244 catches--------------------------------------------------
0;
#X obj 47 121 outlet~;
#X obj 57 141 outlet~;
#X obj 151 121 outlet~;
#X obj 161 141 outlet~;
#X obj 256 121 outlet~;
#X obj 266 141 outlet~;
#X obj 372 121 outlet~;
#X obj 382 141 outlet~;
#X obj 482 121 outlet~;
#X obj 492 141 outlet~;
#X obj 586 121 outlet~;
#X obj 596 141 outlet~;
#X obj 690 121 outlet~;
#X obj 700 141 outlet~;
#X obj 805 121 outlet~;
#X obj 815 141 outlet~;
#X obj 920 121 outlet~;
#X obj 930 141 outlet~;
#X obj 1035 121 outlet~;
#X obj 1045 141 outlet~;
#X obj 57 89 catch~ ch.one_r;
#X obj 47 67 catch~ ch.one_l;
#X obj 151 67 catch~ ch.two_l;
#X obj 161 89 catch~ ch.two_r;
#X obj 255 67 catch~ ch.three_l;
#X obj 265 89 catch~ ch.three_r;
#X obj 381 89 catch~ ch.four_r;
#X obj 371 67 catch~ ch.four_l;
#X obj 481 67 catch~ ch.five_l;
#X obj 491 89 catch~ ch.five_r;
#X obj 585 67 catch~ ch.six_l;
#X obj 595 89 catch~ ch.six_r;
#X obj 689 67 catch~ ch.seven_l;
#X obj 699 89 catch~ ch.seven_r;
#X obj 815 89 catch~ ch.eight_r;
#X obj 806 67 catch~ ch.eight_l;
#X obj 919 67 catch~ ch.nine_l;
#X obj 929 89 catch~ ch.nine_r;
#X obj 1045 89 catch~ ch.ten_r;
#X obj 1036 67 catch~ ch.ten_l;
#X connect 20 0 1 0;
#X connect 21 0 0 0;
#X connect 22 0 2 0;
#X connect 23 0 3 0;
#X connect 24 0 4 0;
#X connect 25 0 5 0;
#X connect 26 0 7 0;
#X connect 27 0 6 0;
#X connect 28 0 8 0;
#X connect 29 0 9 0;
#X connect 30 0 10 0;
#X connect 31 0 11 0;
#X connect 32 0 12 0;
#X connect 33 0 13 0;
#X connect 34 0 15 0;
#X connect 35 0 14 0;
#X connect 36 0 16 0;
#X connect 37 0 17 0;
#X connect 38 0 19 0;
#X connect 39 0 18 0;
#X restore 155 44 pd catches--------------------------------------------------
;
#X obj 503 101 mix.ch.stereo~ /ch10;
#X obj 546 101 mix.ch.stereo~ /ch11;
#X obj 100 100 mix.ch.stereo~ /ch1;
#X obj 155 101 mix.ch.stereo~ /ch2;
#X obj 198 101 mix.ch.stereo~ /ch3;
#X obj 242 101 mix.ch.stereo~ /ch4;
#X obj 286 101 mix.ch.stereo~ /ch5;
#X obj 330 101 mix.ch.stereo~ /ch6;
#X obj 374 101 mix.ch.stereo~ /ch7;
#X obj 417 101 mix.ch.stereo~ /ch8;
#X obj 460 101 mix.ch.stereo~ /ch9;
#X obj 155 217 hradio 15 1 0 3 empty empty One 11 8 0 8 -1 -1 -191407
0;
#X obj 196 217 hradio 15 1 0 3 empty empty Two 11 8 0 8 -1 -1 -191407
0;
#X obj 237 217 hradio 15 1 0 3 empty empty Three 7 8 0 8 -1 -1 -191407
0;
#X obj 281 217 hradio 15 1 0 3 empty empty Four 9 8 0 8 -1 -1 -191407
0;
#X obj 325 217 hradio 15 1 0 3 empty empty Five 9 8 0 8 -1 -1 -191407
0;
#X obj 369 217 hradio 15 1 0 3 empty empty Six 11 8 0 8 -1 -1 -191407
0;
#X obj 414 217 hradio 15 1 0 3 empty empty Seven 6 8 0 8 -1 -1 -191407
0;
#X obj 459 217 hradio 15 1 0 3 empty empty Eight 6 8 0 8 -1 -1 -191407
0;
#X obj 503 217 hradio 15 1 0 3 empty empty Nine 8 8 0 8 -1 -1 -191407
0;
#X obj 547 217 hradio 15 1 0 3 empty empty Ten 8 8 0 8 -1 -1 -191407
0;
#X obj 23 174 bng 15 250 50 0 empty empty empty 17 7 0 10 -262144 -1
-1;
#X obj 23 193 init 3;
#X obj 99 286 hip~ 5;
#X obj 139 307 hip~ 5;
#X obj -46 252 hip~ 5;
#X obj 23 252 hip~ 5;
#X obj -46 227 efx.puncher~;
#X obj 105 238 mix.aux.stereo~ /mix;
#X obj 549 238 mix.aux.stereo~ /aux.ten;
#X obj 158 238 mix.aux.stereo~ /aux.one;
#X obj 245 238 mix.aux.stereo~ /aux.three;
#X obj 507 238 mix.aux.stereo~ /aux.nine;
#X obj 201 238 mix.aux.stereo~ /aux.two;
#X obj 288 238 mix.aux.stereo~ /aux.four;
#X obj 332 238 mix.aux.stereo~ /aux.five;
#X obj 376 238 mix.aux.stereo~ /aux.six;
#X obj 419 238 mix.aux.stereo~ /aux.seven;
#X obj 463 238 mix.aux.stereo~ /aux.eight;
#X obj -33 -9 send~ dummy;
#X obj 225 362 dac~;
#X obj 23 341 send~ xthsense-right-ch;
#X obj -45 362 send~ xthsense-left-ch;
#X obj 226 307 receive~ xthsense-left-ch;
#X obj 246 333 receive~ xthsense-right-ch;
#X obj 100 217 hradio 15 1 0 3 empty empty Mix 11 8 0 8 -1 -1 -191407
0;
#X connect 4 0 9 0;
#X connect 4 1 9 1;
#X connect 6 0 10 0;
#X connect 6 0 37 0;
#X connect 6 1 10 1;
#X connect 6 1 37 1;
#X connect 6 2 11 0;
#X connect 6 2 40 0;
#X connect 6 3 11 1;
#X connect 6 3 40 1;
#X connect 6 4 12 0;
#X connect 6 4 38 0;
#X connect 6 5 12 1;
#X connect 6 5 38 1;
#X connect 6 6 13 0;
#X connect 6 6 41 0;
#X connect 6 7 13 1;
#X connect 6 7 41 1;
#X connect 6 8 14 0;
#X connect 6 8 42 0;
#X connect 6 9 14 1;
#X connect 6 9 42 1;
#X connect 6 10 15 0;
#X connect 6 10 43 0;
#X connect 6 11 15 1;
#X connect 6 11 43 1;
#X connect 6 12 16 0;
#X connect 6 12 44 0;
#X connect 6 13 16 1;
#X connect 6 13 44 1;
#X connect 6 14 17 0;
#X connect 6 14 45 0;
#X connect 6 15 17 1;
#X connect 6 15 45 1;
#X connect 6 16 7 0;
#X connect 6 16 39 0;
#X connect 6 17 7 1;
#X connect 6 17 39 1;
#X connect 6 18 8 0;
#X connect 6 18 36 0;
#X connect 6 19 8 1;
#X connect 6 19 36 1;
#X connect 7 0 5 0;
#X connect 7 1 5 1;
#X connect 8 0 5 0;
#X connect 8 1 5 1;
#X connect 9 0 30 0;
#X connect 9 0 34 0;
#X connect 9 0 35 0;
#X connect 9 1 31 0;
#X connect 9 1 34 1;
#X connect 9 1 35 1;
#X connect 10 0 5 0;
#X connect 10 1 5 1;
#X connect 11 0 5 0;
#X connect 11 1 5 1;
#X connect 12 0 5 0;
#X connect 12 1 5 1;
#X connect 13 0 5 0;
#X connect 13 1 5 1;
#X connect 14 0 5 0;
#X connect 14 1 5 1;
#X connect 15 0 5 0;
#X connect 15 1 5 1;
#X connect 16 0 5 0;
#X connect 16 1 5 1;
#X connect 17 0 5 0;
#X connect 17 1 5 1;
#X connect 28 0 29 0;
#X connect 29 0 34 2;
#X connect 30 0 49 0;
#X connect 31 0 48 0;
#X connect 32 0 49 0;
#X connect 33 0 48 0;
#X connect 34 0 32 0;
#X connect 34 1 33 0;
#X connect 50 0 47 0;
#X connect 51 0 47 1;
#X coords 0 -1 1 1 492 155 2 100 100;
