#N canvas 669 190 614 311 10;
#X obj 100 170 receive~ xthsense-left-ch;
#X obj 172 191 receive~ xthsense-right-ch;
#X obj 100 262 s number-of-recordings-completed;
#X obj 247 215 r start-recording;
#X obj 100 100 cnv 15 492 21 empty empty empty 28 10 0 8 -99865 -1
0;
#X obj 103 103 cnv 15 40 15 empty empty empty 2 10 0 14 -196615 -262144
0;
#X obj 147 129 s start-recording;
#X obj 147 103 tgl 15 0 empty empty Record -42 8 0 8 -262144 -1 -1
0 1;
#N canvas 137 183 238 225 animation 0;
#X obj 29 36 inlet on.off;
#X msg 29 167 open \$1;
#X obj 29 58 sel 1 0;
#X obj 118 57 r \$0-init;
#X obj 29 192 outlet open.image;
#N canvas 30 139 349 270 find-image-on 0;
#X obj 60 195 mergefilename /;
#X msg 60 164 \$1 \$2;
#X obj 60 139 pack s s;
#X obj 72 33 loadbang;
#X obj 60 61 t b b;
#X obj 38 35 bng 15 250 50 0 empty empty empty 17 7 0 10 -262144 -1
-1;
#X obj 60 225 outlet;
#X obj 60 11 inlet;
#X obj 60 84 getdir 4;
#X obj 105 112 symbol ../images/circ.button.on.gif;
#X connect 0 0 6 0;
#X connect 1 0 0 0;
#X connect 2 0 1 0;
#X connect 3 0 4 0;
#X connect 4 0 8 0;
#X connect 4 1 9 0;
#X connect 5 0 4 0;
#X connect 7 0 4 0;
#X connect 8 0 2 0;
#X connect 9 0 2 1;
#X restore 29 112 pd find-image-on;
#N canvas 36 162 349 270 find-image-off 0;
#X obj 60 195 mergefilename /;
#X msg 60 164 \$1 \$2;
#X obj 60 139 pack s s;
#X obj 72 33 loadbang;
#X obj 60 61 t b b;
#X obj 38 35 bng 15 250 50 0 empty empty empty 17 7 0 10 -262144 -1
-1;
#X obj 60 225 outlet;
#X obj 60 11 inlet;
#X obj 60 84 getdir 4;
#X obj 105 112 symbol ../images/circ.button.off.gif;
#X connect 0 0 6 0;
#X connect 1 0 0 0;
#X connect 2 0 1 0;
#X connect 3 0 4 0;
#X connect 4 0 8 0;
#X connect 4 1 9 0;
#X connect 5 0 4 0;
#X connect 7 0 4 0;
#X connect 8 0 2 0;
#X connect 9 0 2 1;
#X restore 48 88 pd find-image-off;
#X obj 6 59 bng 15 250 50 0 empty empty empty 17 7 0 10 -262144 -1
-1;
#X connect 0 0 2 0;
#X connect 1 0 4 0;
#X connect 2 0 5 0;
#X connect 2 1 6 0;
#X connect 3 0 6 0;
#X connect 5 0 1 0;
#X connect 6 0 1 0;
#X connect 7 0 6 0;
#X restore 64 37 pd animation;
#X obj 170 76 r number-of-recordings-completed;
#X obj 170 103 gui.nbx;
#X obj 147 102 iemgui/iem_image /home/sad/00.Pd/projects/_Xth-Sense/dev/../images/circ.button.off.gif
0 0 empty empty;
#X obj 100 238 utils.rec.stereo~ ../recs;
#X connect 0 0 12 0;
#X connect 1 0 12 1;
#X connect 3 0 12 2;
#X connect 7 0 8 0;
#X connect 7 0 6 0;
#X connect 8 0 11 0;
#X connect 9 0 10 0;
#X connect 12 0 2 0;
#X coords 0 -1 1 1 492 21 2 100 100;
