#N canvas 823 129 729 478 10;
#N canvas 6 77 357 190 init 0;
#X obj 149 72 loadbang;
#X obj 149 96 s \$0-init;
#X connect 0 0 1 0;
#X restore 487 295 pd init;
#X obj 488 145 bng 15 250 50 0 empty empty empty 17 7 0 10 -262144
-1 -1;
#X obj 487 124 canvasposition;
#N canvas 21 121 276 276 gop-bug-workaround 0;
#X msg 105 111 vis 1;
#X msg 78 164 vis 0;
#X obj 78 136 del 100;
#X obj 78 200 s pd-routing-params;
#X obj 78 63 r rroute;
#X obj 78 85 t f f;
#X connect 0 0 3 0;
#X connect 1 0 3 0;
#X connect 2 0 1 0;
#X connect 4 0 5 0;
#X connect 5 0 2 0;
#X connect 5 1 0 0;
#X restore 487 320 pd gop-bug-workaround;
#X obj 487 102 r pos-routing-mixautomation;
#X obj 116 135 gui.sssad.mix.automation /mx1.1;
#X obj 116 157 gui.sssad.mix.automation /mx1.2;
#X obj 116 179 gui.sssad.mix.automation /mx1.3;
#X obj 116 201 gui.sssad.mix.automation /mx1.4;
#X obj 116 223 gui.sssad.mix.automation /mx1.5;
#X obj 116 245 gui.sssad.mix.automation /mx1.6;
#X obj 116 267 gui.sssad.mix.automation /mx1.8;
#X obj 116 289 gui.sssad.mix.automation /mx1.9;
#X obj 116 311 gui.sssad.mix.automation /mx1.10;
#X obj 119 110 hsl 80 15 0 127 0 0 dtvsgsdfgd dgvsdgsdvg Reset.Automation
1 8 0 8 -66577 -66577 -233017 0 1;
#N canvas 408 187 412 303 bypass.button 0;
#X obj 45 15 inlet;
#X obj 45 176 outlet;
#X msg 45 147 color 2 2 10;
#X msg 64 91 color 14 14 22;
#X obj 84 227 s xth-sense_reset.automation;
#X obj 45 37 t b b b;
#X obj 45 122 del 600;
#X connect 0 0 5 0;
#X connect 2 0 1 0;
#X connect 3 0 1 0;
#X connect 5 0 6 0;
#X connect 5 1 3 0;
#X connect 5 2 4 0;
#X connect 6 0 2 0;
#X restore 167 68 pd bypass.button;
#X connect 1 0 2 0;
#X connect 4 0 2 0;
#X connect 14 0 15 0;
#X connect 15 0 14 0;
#X coords 0 -1 1 1 383 248 2 100 100;
