#N canvas 124 248 450 300 10;
#X obj 100 100 cnv 15 57 20 empty empty empty 20 12 0 14 -128992 -66577
0;
#X obj 123 -18 inlet;
#X obj 102 103 bng 15 250 50 0 empty empty empty 17 7 0 10 -191407
-1 -1;
#X obj 123 20 t f f;
#X obj 240 163 outlet bang;
#X obj 150 163 outlet value;
#X floatatom 231 66 5 0 0 0 - - -;
#X obj 123 102 hsl 30 15 0 127 0 0 gdsfaf \$0-label 0 0 8 0 8 -128992
-128992 -262144 0 1;
#N canvas 921 397 346 241 make-value-label 0;
#X obj 50 21 inlet;
#X obj 50 176 s \$0-label;
#X obj 50 88 makefilename %f;
#X msg 50 152 label \$1;
#X obj 50 116 stripfilename -4;
#X connect 0 0 2 0;
#X connect 2 0 4 0;
#X connect 3 0 1 0;
#X connect 4 0 3 0;
#X restore -24 92 pd make-value-label;
#X connect 1 0 3 0;
#X connect 2 0 4 0;
#X connect 3 0 8 0;
#X connect 3 1 5 0;
#X connect 6 0 5 0;
#X coords 0 -1 1 1 57 20 2 100 100;
