#N canvas 6 47 450 300 10;
#N canvas 339 134 590 405 arduino 0;
#X restore 489 292 pd arduino;
#N canvas 6 47 357 190 init 0;
#X obj 149 72 loadbang;
#X obj 149 96 s \$0-init;
#X connect 0 0 1 0;
#X restore 488 269 pd init;
#X obj 488 145 bng 15 250 50 0 empty empty empty 17 7 0 10 -262144
-1 -1;
#X obj 487 101 r pos-routing-params;
#X obj 487 124 canvasposition;
#N canvas 18 93 276 276 gop-bug-workaround 0;
#X msg 105 111 vis 1;
#X msg 78 164 vis 0;
#X obj 78 136 del 100;
#X obj 78 200 s pd-routing-params;
#X obj 78 63 r rroute;
#X obj 78 85 t f f;
#X connect 0 0 3 0;
#X connect 1 0 3 0;
#X connect 2 0 1 0;
#X connect 4 0 5 0;
#X connect 5 0 2 0;
#X connect 5 1 0 0;
#X restore 488 319 pd gop-bug-workaround;
#X obj 229 112 scale.gui.curve.circle /cv1.1;
#X obj 352 111 gui.sssad.send /sn1.2;
#X obj 107 168 md_anlg.in /pr1.3;
#X obj 273 111 scale.gui.multi /sc1.1;
#X obj 229 140 scale.gui.curve.circle /cv1.2;
#X obj 229 169 scale.gui.curve.circle /cv1.3;
#X obj 229 199 scale.gui.curve.circle /cv1.4;
#X obj 229 228 scale.gui.curve.circle /cv1.5;
#X obj 229 257 scale.gui.curve.circle /cv1.6;
#X obj 229 287 scale.gui.curve.circle /cv1.7;
#X obj 229 317 scale.gui.curve.circle /cv1.8;
#X obj 352 169 gui.sssad.send /sn1.1;
#X obj 352 140 gui.sssad.send /sn1.3;
#X obj 352 199 gui.sssad.send /sn1.4;
#X obj 352 228 gui.sssad.send /sn1.5;
#X obj 352 257 gui.sssad.send /sn1.6;
#X obj 352 287 gui.sssad.send /sn1.7;
#X obj 352 316 gui.sssad.send /sn1.8;
#X obj 107 111 md_anlg.in /pr1.1;
#X obj 107 139 md_anlg.in /pr1.2;
#X obj 107 197 md_anlg.in /pr1.4;
#X obj 107 227 md_anlg.in /pr1.5;
#X obj 107 255 md_anlg.in /pr1.6;
#X obj 107 286 md_anlg.in /pr1.7;
#X obj 107 316 md_anlg.in /pr1.8;
#X obj 273 139 scale.gui.multi /sc1.2;
#X obj 273 168 scale.gui.multi /sc1.3;
#X obj 273 198 scale.gui.multi /sc1.4;
#X obj 273 228 scale.gui.multi /sc1.5;
#X obj 273 256 scale.gui.multi /sc1.6;
#X obj 273 286 scale.gui.multi /sc1.7;
#X obj 273 316 scale.gui.multi /sc1.8;
#X connect 2 0 4 0;
#X connect 3 0 4 0;
#X connect 6 0 9 0;
#X connect 8 0 11 0;
#X connect 9 0 7 0;
#X connect 10 0 31 0;
#X connect 11 0 32 0;
#X connect 12 0 33 0;
#X connect 13 0 34 0;
#X connect 14 0 35 0;
#X connect 15 0 36 0;
#X connect 16 0 37 0;
#X connect 24 0 6 0;
#X connect 25 0 10 0;
#X connect 26 0 12 0;
#X connect 27 0 13 0;
#X connect 28 0 14 0;
#X connect 29 0 15 0;
#X connect 30 0 16 0;
#X connect 31 0 18 0;
#X connect 32 0 17 0;
#X connect 33 0 19 0;
#X connect 34 0 20 0;
#X connect 35 0 21 0;
#X connect 36 0 22 0;
#X connect 37 0 23 0;
#X coords 0 -1 1 1 383 248 2 100 100;
