#N canvas 115 63 1131 563 10;
#X obj 26 126 cnv 15 45 236 empty empty empty 20 12 0 14 -133153 -66577
0;
#N canvas 328 157 920 720 color-highlight 0;
#X obj 117 615 s \$0-cnv1;
#X obj 90 595 s \$0-cnv0;
#X obj 144 635 s \$0-cnv2;
#X obj 171 655 s \$0-cnv3;
#X obj 90 10 inlet;
#X msg 90 510 open \$1;
#X msg 117 530 open \$1;
#X msg 144 552 open \$1;
#X msg 171 574 open \$1;
#X obj 90 467 unpack s s s s s s s s;
#X msg 237 508 open \$1;
#X msg 264 528 open \$1;
#X msg 291 550 open \$1;
#X msg 318 572 open \$1;
#X obj 237 593 s \$0-cnv4;
#X obj 264 613 s \$0-cnv5;
#X obj 291 633 s \$0-cnv6;
#X obj 318 653 s \$0-cnv7;
#X obj 90 53 sel 0 1 2 3 4 5 6 7;
#X obj 458 412 t a;
#X msg 90 82 images/md_bng-on.gif images/md_bng.gif images/md_bng.gif
images/md_bng.gif images/md_bng.gif images/md_bng.gif images/md_bng.gif
images/md_bng.gif;
#X msg 116 144 images/md_bng.gif images/md_bng-on.gif images/md_bng.gif
images/md_bng.gif images/md_bng.gif images/md_bng.gif images/md_bng.gif
images/md_bng.gif;
#X msg 156 205 images/md_bng.gif images/md_bng.gif images/md_bng-on.gif
images/md_bng.gif images/md_bng.gif images/md_bng.gif images/md_bng.gif
images/md_bng.gif;
#X msg 197 266 images/md_bng.gif images/md_bng.gif images/md_bng.gif
images/md_bng-on.gif images/md_bng.gif images/md_bng.gif images/md_bng.gif
images/md_bng.gif;
#X msg 458 127 images/md_bng.gif images/md_bng.gif images/md_bng.gif
images/md_bng.gif images/md_bng-on.gif images/md_bng.gif images/md_bng.gif
images/md_bng.gif;
#X msg 521 190 images/md_bng.gif images/md_bng.gif images/md_bng.gif
images/md_bng.gif images/md_bng.gif images/md_bng-on.gif images/md_bng.gif
images/md_bng.gif;
#X msg 560 255 images/md_bng.gif images/md_bng.gif images/md_bng.gif
images/md_bng.gif images/md_bng.gif images/md_bng.gif images/md_bng-on.gif
images/md_bng.gif;
#X msg 557 326 images/md_bng.gif images/md_bng.gif images/md_bng.gif
images/md_bng.gif images/md_bng.gif images/md_bng.gif images/md_bng.gif
images/md_bng-on.gif;
#X connect 4 0 18 0;
#X connect 5 0 1 0;
#X connect 6 0 0 0;
#X connect 7 0 2 0;
#X connect 8 0 3 0;
#X connect 9 0 5 0;
#X connect 9 1 6 0;
#X connect 9 2 7 0;
#X connect 9 3 8 0;
#X connect 9 4 10 0;
#X connect 9 5 11 0;
#X connect 9 6 12 0;
#X connect 9 7 13 0;
#X connect 10 0 14 0;
#X connect 11 0 15 0;
#X connect 12 0 16 0;
#X connect 13 0 17 0;
#X connect 18 0 20 0;
#X connect 18 1 21 0;
#X connect 18 2 22 0;
#X connect 18 3 23 0;
#X connect 18 4 24 0;
#X connect 18 5 25 0;
#X connect 18 6 26 0;
#X connect 18 7 27 0;
#X connect 19 0 9 0;
#X connect 20 0 9 0;
#X connect 21 0 9 0;
#X connect 22 0 9 0;
#X connect 23 0 9 0;
#X connect 24 0 19 0;
#X connect 25 0 19 0;
#X connect 26 0 19 0;
#X connect 27 0 19 0;
#X restore 605 86 pd color-highlight;
#X obj 454 129 change;
#X obj 70 7 loadbang;
#X msg 70 52 0;
#X obj 469 156 s wksp-global;
#X obj 605 60 r wksp-global;
#X obj 356 347 s pos-wksp1;
#X obj 460 344 s pos-wksp2;
#X obj 554 344 s pos-wksp3;
#X msg 403 324 17 755;
#X msg 508 319 17 755;
#X msg 603 320 17 755;
#X msg 702 315 17 755;
#X obj 653 339 s pos-wksp4;
#X msg 356 323 17 18;
#X msg 460 320 17 18;
#X msg 554 321 17 18;
#X msg 653 315 17 18;
#X obj 104 106 vradio 27 1 0 8 empty empty empty 0 -8 0 10 -262144
-1 -1 3;
#X obj 118 116 image images/md_bng.gif 0;
#X obj 118 143 image images/md_bng.gif 0;
#X obj 118 171 image images/md_bng.gif 0;
#X obj 118 199 image images/md_bng-on.gif 0;
#X obj 118 227 image images/md_bng.gif 0;
#X obj 118 255 image images/md_bng.gif 0;
#X obj 118 283 image images/md_bng.gif 0;
#X obj 118 311 image images/md_bng.gif 0;
#X obj 128 71 r \$0-cnv0;
#X obj 155 91 r \$0-cnv1;
#X obj 182 111 r \$0-cnv2;
#X obj 209 131 r \$0-cnv3;
#X obj 158 192 r \$0-cnv4;
#X obj 185 212 r \$0-cnv5;
#X obj 212 232 r \$0-cnv6;
#X obj 239 252 r \$0-cnv7;
#X msg 810 318 17 755;
#X msg 761 318 17 18;
#X obj 761 342 s pos-wksp5;
#X msg 922 321 17 755;
#X msg 873 321 17 18;
#X obj 873 345 s pos-wksp6;
#N canvas 19 283 683 517 code---------- 0;
#X obj 91 76 inlet;
#X obj 91 111 t f f;
#X obj 64 149 f 1;
#X obj 118 180 outlet;
#X obj 128 200 outlet;
#X obj 138 220 outlet;
#X obj 148 243 outlet;
#X obj 118 148 sel 0 1 2 3 4 5;
#X obj 167 265 outlet;
#X obj 177 288 outlet;
#X connect 0 0 1 0;
#X connect 1 0 2 1;
#X connect 1 1 7 0;
#X connect 7 0 3 0;
#X connect 7 1 4 0;
#X connect 7 2 5 0;
#X connect 7 3 6 0;
#X connect 7 4 8 0;
#X connect 7 5 9 0;
#X restore 454 190 pd code----------;
#X obj 615 230 t b b b b b b;
#X obj 454 213 t b b b b b b;
#X obj 467 238 t b b b b b b;
#X obj 497 261 t b b b b b b;
#X obj 525 286 t b b b b b b;
#X obj 709 230 t b b b b b b;
#X obj 70 29 del 300;
#X msg 166 399 \; pd-workspace_1 vis 1;
#X msg 176 429 \; pd-workspace_2 vis 1;
#X msg 186 459 \; pd-workspace_3 vis 1;
#X msg 196 489 \; pd-workspace_4 vis 1;
#X msg 346 459 \; pd-workspace_3 vis 1;
#X msg 356 489 \; pd-workspace_4 vis 1;
#X msg 326 399 \; pd-workspace_5 vis 1;
#X msg 336 429 \; pd-workspace_6 vis 1;
#N canvas 19 283 683 517 code---------- 0;
#X obj 91 76 inlet;
#X obj 91 111 t f f;
#X obj 64 149 f 1;
#X obj 118 180 outlet;
#X obj 128 200 outlet;
#X obj 138 220 outlet;
#X obj 148 243 outlet;
#X obj 118 148 sel 0 1 2 3 4 5;
#X obj 167 265 outlet;
#X obj 177 288 outlet;
#X connect 0 0 1 0;
#X connect 1 0 2 1;
#X connect 1 1 7 0;
#X connect 7 0 3 0;
#X connect 7 1 4 0;
#X connect 7 2 5 0;
#X connect 7 3 6 0;
#X connect 7 4 8 0;
#X connect 7 5 9 0;
#X restore 171 345 pd code----------;
#X connect 2 0 42 0;
#X connect 2 0 5 0;
#X connect 2 0 58 0;
#X connect 3 0 49 0;
#X connect 4 0 19 0;
#X connect 6 0 1 0;
#X connect 10 0 7 0;
#X connect 11 0 8 0;
#X connect 12 0 9 0;
#X connect 13 0 14 0;
#X connect 15 0 7 0;
#X connect 16 0 8 0;
#X connect 17 0 9 0;
#X connect 18 0 14 0;
#X connect 19 0 2 0;
#X connect 28 0 20 0;
#X connect 29 0 21 0;
#X connect 30 0 22 0;
#X connect 31 0 23 0;
#X connect 32 0 24 0;
#X connect 33 0 25 0;
#X connect 34 0 26 0;
#X connect 35 0 27 0;
#X connect 36 0 38 0;
#X connect 37 0 38 0;
#X connect 39 0 41 0;
#X connect 40 0 41 0;
#X connect 42 0 44 0;
#X connect 42 1 45 0;
#X connect 42 2 46 0;
#X connect 42 3 47 0;
#X connect 42 4 43 0;
#X connect 42 5 48 0;
#X connect 43 0 37 0;
#X connect 43 1 10 0;
#X connect 43 2 11 0;
#X connect 43 3 12 0;
#X connect 43 4 13 0;
#X connect 43 5 39 0;
#X connect 44 0 15 0;
#X connect 44 1 11 0;
#X connect 44 2 12 0;
#X connect 44 3 13 0;
#X connect 44 4 36 0;
#X connect 44 5 39 0;
#X connect 45 0 16 0;
#X connect 45 1 10 0;
#X connect 45 2 12 0;
#X connect 45 3 13 0;
#X connect 45 4 36 0;
#X connect 45 5 39 0;
#X connect 46 0 17 0;
#X connect 46 1 10 0;
#X connect 46 2 11 0;
#X connect 46 3 13 0;
#X connect 46 4 36 0;
#X connect 46 5 39 0;
#X connect 47 0 18 0;
#X connect 47 1 10 0;
#X connect 47 2 11 0;
#X connect 47 3 12 0;
#X connect 47 4 36 0;
#X connect 47 5 39 0;
#X connect 48 0 40 0;
#X connect 48 1 10 0;
#X connect 48 2 11 0;
#X connect 48 3 12 0;
#X connect 48 4 13 0;
#X connect 48 5 36 0;
#X connect 49 0 4 0;
#X connect 58 0 50 0;
#X connect 58 1 51 0;
#X connect 58 2 52 0;
#X connect 58 3 53 0;
#X connect 58 4 56 0;
#X connect 58 5 57 0;
#X coords 0 -1 1 1 33 229 2 100 100;
