#N canvas 82 178 630 380 10;
#N canvas 497 70 364 328 color-highlight 0;
#X obj 67 235 s \$0-cnv1;
#X obj 40 215 s \$0-cnv0;
#X obj 94 255 s \$0-cnv2;
#X obj 121 275 s \$0-cnv3;
#X obj 40 20 inlet;
#X msg 40 130 open \$1;
#X msg 67 150 open \$1;
#X msg 94 172 open \$1;
#X msg 121 194 open \$1;
#X obj 40 87 unpack s s s s s s s s;
#X msg 187 128 open \$1;
#X msg 214 148 open \$1;
#X msg 241 170 open \$1;
#X msg 268 192 open \$1;
#X obj 187 213 s \$0-cnv4;
#X obj 214 233 s \$0-cnv5;
#X obj 241 253 s \$0-cnv6;
#X obj 268 273 s \$0-cnv7;
#N canvas 579 411 849 513 select-and-send-image-path 0;
#X obj 30 53 sel 0 1 2 3 4 5 6 7;
#X obj 398 412 t a;
#X obj 30 412 t a;
#X obj 30 474 outlet;
#X obj 30 20 inlet;
#X msg 30 83 ../images/md_bng-on.gif ../images/md_bng.gif ../images/md_bng.gif
../images/md_bng.gif ../images/md_bng.gif ../images/md_bng.gif ../images/md_bng.gif
../images/md_bng.gif;
#X msg 56 144 ../images/md_bng.gif ../images/md_bng-on.gif ../images/md_bng.gif
../images/md_bng.gif ../images/md_bng.gif ../images/md_bng.gif ../images/md_bng.gif
../images/md_bng.gif;
#X msg 96 235 ../images/md_bng.gif ../images/md_bng.gif ../images/md_bng-on.gif
../images/md_bng.gif ../images/md_bng.gif ../images/md_bng.gif ../images/md_bng.gif
../images/md_bng.gif;
#X msg 137 296 ../images/md_bng.gif ../images/md_bng.gif ../images/md_bng.gif
../images/md_bng-on.gif ../images/md_bng.gif ../images/md_bng.gif ../images/md_bng.gif
../images/md_bng.gif;
#X msg 399 102 ../images/md_bng.gif ../images/md_bng.gif ../images/md_bng.gif
../images/md_bng.gif ../images/md_bng-on.gif ../images/md_bng.gif ../images/md_bng.gif
../images/md_bng.gif;
#X msg 461 170 ../images/md_bng.gif ../images/md_bng.gif ../images/md_bng.gif
../images/md_bng.gif ../images/md_bng.gif ../images/md_bng-on.gif ../images/md_bng.gif
../images/md_bng.gif;
#X msg 499 251 ../images/md_bng.gif ../images/md_bng.gif ../images/md_bng.gif
../images/md_bng.gif ../images/md_bng.gif ../images/md_bng.gif ../images/md_bng-on.gif
../images/md_bng.gif;
#X msg 496 326 ../images/md_bng.gif ../images/md_bng.gif ../images/md_bng.gif
../images/md_bng.gif ../images/md_bng.gif ../images/md_bng.gif ../images/md_bng.gif
../images/md_bng-on.gif;
#X connect 0 0 5 0;
#X connect 0 1 6 0;
#X connect 0 2 7 0;
#X connect 0 3 8 0;
#X connect 0 4 9 0;
#X connect 0 5 10 0;
#X connect 0 6 11 0;
#X connect 0 7 12 0;
#X connect 1 0 3 0;
#X connect 2 0 3 0;
#X connect 4 0 0 0;
#X connect 5 0 2 0;
#X connect 6 0 2 0;
#X connect 7 0 2 0;
#X connect 8 0 2 0;
#X connect 9 0 1 0;
#X connect 10 0 1 0;
#X connect 11 0 1 0;
#X connect 12 0 1 0;
#X restore 40 56 pd select-and-send-image-path;
#X connect 4 0 18 0;
#X connect 5 0 1 0;
#X connect 6 0 0 0;
#X connect 7 0 2 0;
#X connect 8 0 3 0;
#X connect 9 0 5 0;
#X connect 9 1 6 0;
#X connect 9 2 7 0;
#X connect 9 3 8 0;
#X connect 9 4 10 0;
#X connect 9 5 11 0;
#X connect 9 6 12 0;
#X connect 9 7 13 0;
#X connect 10 0 14 0;
#X connect 11 0 15 0;
#X connect 12 0 16 0;
#X connect 13 0 17 0;
#X connect 18 0 9 0;
#X restore 432 65 pd color-highlight;
#X obj 265 59 change;
#X obj 69 6 loadbang;
#X msg 69 74 0;
#X obj 265 112 s wksp-global;
#X obj 432 39 r wksp-global;
#X obj 103 104 vradio 27 1 0 6 empty empty empty 0 -8 0 10 -262144
-1 -1 0;
#X obj 117 115 image ../images/md_bng-on.gif 0;
#X obj 117 142 image ../images/md_bng.gif 0;
#X obj 117 170 image ../images/md_bng.gif 0;
#X obj 117 198 image ../images/md_bng.gif 0;
#X obj 117 226 image ../images/md_bng.gif 0;
#X obj 117 254 image ../images/md_bng.gif 0;
#X obj 452 227 image ../images/md_bng.gif 0;
#X obj 479 287 image ../images/md_bng.gif 0;
#X obj 162 98 r \$0-cnv0;
#X obj 162 125 r \$0-cnv1;
#X obj 161 153 r \$0-cnv2;
#X obj 160 181 r \$0-cnv3;
#X obj 159 209 r \$0-cnv4;
#X obj 159 237 r \$0-cnv5;
#X obj 452 113 r \$0-cnv6;
#X obj 479 133 r \$0-cnv7;
#X obj 102 340 s \$0-selected-workspace;
#X obj 265 32 r \$0-selected-workspace;
#X obj 265 84 t f f;
#N canvas 660 110 864 428 bang-positions 0;
#X obj 32 371 s pos-wksp1;
#X msg 79 348 17 755;
#X msg 32 347 17 18;
#N canvas 422 181 305 283 select--------------------------------- 0
;
#X obj 59 28 inlet;
#X obj 59 89 outlet;
#X obj 69 109 outlet;
#X obj 79 129 outlet;
#X obj 89 152 outlet;
#X obj 108 174 outlet;
#X obj 118 197 outlet;
#X obj 128 221 outlet;
#X obj 138 244 outlet;
#X obj 59 57 sel 0 1 2 3 4 5 6 7;
#X connect 0 0 9 0;
#X connect 9 0 1 0;
#X connect 9 1 2 0;
#X connect 9 2 3 0;
#X connect 9 3 4 0;
#X connect 9 4 5 0;
#X connect 9 5 6 0;
#X connect 9 6 7 0;
#X connect 9 7 8 0;
#X restore 32 59 pd select---------------------------------;
#X obj 32 32 inlet;
#X msg 32 90 1 0 0 0 0 0 0 0;
#X obj 32 218 unpack f f f f f f f f;
#X obj 32 304 tgl 15 0 empty empty empty 17 7 0 10 -262144 -1 -1 1
1;
#X msg 42 110 0 1 0 0 0 0 0 0;
#X msg 52 129 0 0 1 0 0 0 0 0;
#X msg 162 90 0 0 0 1 0 0 0 0;
#X msg 172 110 0 0 0 0 1 0 0 0;
#X msg 182 129 0 0 0 0 0 1 0 0;
#X msg 293 90 0 0 0 0 0 0 1 0;
#X msg 303 110 0 0 0 0 0 0 0 1;
#X obj 162 155 t a;
#X obj 293 155 t a;
#X msg 179 348 17 755;
#X msg 132 347 17 18;
#X obj 132 304 tgl 15 0 empty empty empty 17 7 0 10 -262144 -1 -1 0
1;
#X obj 132 371 s pos-wksp2;
#X msg 279 348 17 755;
#X msg 232 347 17 18;
#X obj 232 304 tgl 15 0 empty empty empty 17 7 0 10 -262144 -1 -1 0
1;
#X msg 379 348 17 755;
#X msg 332 347 17 18;
#X obj 332 304 tgl 15 0 empty empty empty 17 7 0 10 -262144 -1 -1 0
1;
#X obj 232 371 s pos-wksp3;
#X obj 333 370 s pos-wksp4;
#X msg 479 348 17 755;
#X msg 432 347 17 18;
#X obj 432 304 tgl 15 0 empty empty empty 17 7 0 10 -262144 -1 -1 0
1;
#X msg 579 348 17 755;
#X msg 532 347 17 18;
#X obj 532 304 tgl 15 0 empty empty empty 17 7 0 10 -262144 -1 -1 0
1;
#X msg 679 348 17 755;
#X msg 632 347 17 18;
#X obj 632 304 tgl 15 0 empty empty empty 17 7 0 10 -262144 -1 -1 0
1;
#X msg 779 348 17 755;
#X msg 732 347 17 18;
#X obj 732 304 tgl 15 0 empty empty empty 17 7 0 10 -262144 -1 -1 0
1;
#X obj 432 371 s pos-wksp5;
#X obj 532 371 s pos-wksp6;
#X obj 632 371 s pos-wksp7;
#X obj 733 370 s pos-wksp8;
#X obj 32 322 sel 1 0;
#X obj 132 322 sel 1 0;
#X obj 232 322 sel 1 0;
#X obj 332 322 sel 1 0;
#X obj 432 322 sel 1 0;
#X obj 532 322 sel 1 0;
#X obj 632 322 sel 1 0;
#X obj 732 322 sel 1 0;
#X connect 1 0 0 0;
#X connect 2 0 0 0;
#X connect 3 0 5 0;
#X connect 3 1 8 0;
#X connect 3 2 9 0;
#X connect 3 3 10 0;
#X connect 3 4 11 0;
#X connect 3 5 12 0;
#X connect 3 6 13 0;
#X connect 3 7 14 0;
#X connect 4 0 3 0;
#X connect 5 0 6 0;
#X connect 6 0 7 0;
#X connect 6 1 19 0;
#X connect 6 2 23 0;
#X connect 6 3 26 0;
#X connect 6 4 31 0;
#X connect 6 5 34 0;
#X connect 6 6 37 0;
#X connect 6 7 40 0;
#X connect 7 0 45 0;
#X connect 8 0 6 0;
#X connect 9 0 6 0;
#X connect 10 0 15 0;
#X connect 11 0 15 0;
#X connect 12 0 15 0;
#X connect 13 0 16 0;
#X connect 14 0 16 0;
#X connect 15 0 6 0;
#X connect 16 0 6 0;
#X connect 17 0 20 0;
#X connect 18 0 20 0;
#X connect 19 0 46 0;
#X connect 21 0 27 0;
#X connect 22 0 27 0;
#X connect 23 0 47 0;
#X connect 24 0 28 0;
#X connect 25 0 28 0;
#X connect 26 0 48 0;
#X connect 29 0 41 0;
#X connect 30 0 41 0;
#X connect 31 0 49 0;
#X connect 32 0 42 0;
#X connect 33 0 42 0;
#X connect 34 0 50 0;
#X connect 35 0 43 0;
#X connect 36 0 43 0;
#X connect 37 0 51 0;
#X connect 38 0 44 0;
#X connect 39 0 44 0;
#X connect 40 0 52 0;
#X connect 45 0 2 0;
#X connect 45 1 1 0;
#X connect 46 0 18 0;
#X connect 46 1 17 0;
#X connect 47 0 22 0;
#X connect 47 1 21 0;
#X connect 48 0 25 0;
#X connect 48 1 24 0;
#X connect 49 0 30 0;
#X connect 49 1 29 0;
#X connect 50 0 33 0;
#X connect 50 1 32 0;
#X connect 51 0 36 0;
#X connect 51 1 35 0;
#X connect 52 0 39 0;
#X connect 52 1 38 0;
#X restore 292 142 pd bang-positions;
#X obj 69 27 t b b;
#X msg 121 53 1;
#X obj 69 51 del 50;
#X connect 1 0 25 0;
#X connect 2 0 27 0;
#X connect 3 0 1 0;
#X connect 5 0 0 0;
#X connect 6 0 23 0;
#X connect 15 0 7 0;
#X connect 16 0 8 0;
#X connect 17 0 9 0;
#X connect 18 0 10 0;
#X connect 19 0 11 0;
#X connect 20 0 12 0;
#X connect 21 0 13 0;
#X connect 22 0 14 0;
#X connect 24 0 1 0;
#X connect 25 0 4 0;
#X connect 25 1 26 0;
#X connect 27 0 29 0;
#X connect 27 1 28 0;
#X connect 28 0 1 0;
#X connect 29 0 3 0;
#X coords 0 -1 1 1 34 229 2 100 100;
