#N canvas 6 47 450 300 10;
#X floatatom 134 69 5 0 0 0 - - -;
#X obj 133 48 mtof;
#N canvas 790 219 631 598 closest.note 0;
#X obj 115 94 tgl 15 0 empty empty empty 0 -6 0 8 -262144 -1 -1 0 127
;
#X obj 251 176 musical.transpose;
#X floatatom 124 186 5 0 0 0 - - -;
#X obj 115 137 count.modulo 12;
#X floatatom 197 320 5 0 0 0 - - -;
#X floatatom 169 93 5 0 0 0 - - -;
#X obj 395 148 loadbang;
#X text 213 154 944;
#X msg 453 198 0 1 5;
#X msg 350 198 0 1 3;
#X msg 396 198 0 1 3 6;
#X floatatom 25 194 5 0 0 0 - - -;
#X obj 105 -114 r t.a;
#X obj 133 -95 r t.b;
#X obj 159 -74 r t.c;
#X obj 186 -53 r t.d;
#X obj 213 -33 r t.e;
#X obj 240 -9 r t.f;
#X msg 74 31 60;
#X msg 107 31 61;
#X msg 139 31 63;
#X msg 173 32 65;
#X msg 205 32 67;
#X msg 272 32 70;
#X obj 74 279 musical.closest.note 0 2 4 7 9;
#X obj 74 248 line;
#X obj 74 215 pack f 130;
#X msg 251 146 0 2 3 5 7 8 15;
#X msg 237 32 74;
#X obj 146 222 pack f 130;
#X obj 373 -31 inlet start;
#X obj 74 393 s midinote.five;
#X obj 126 162 + 45;
#X obj 73 361 line;
#X msg 74 326 \$1 50;
#X obj 115 115 metro 500;
#X connect 0 0 35 0;
#X connect 1 0 24 1;
#X connect 3 0 32 0;
#X connect 5 0 35 1;
#X connect 6 0 10 0;
#X connect 8 0 24 1;
#X connect 9 0 24 1;
#X connect 10 0 24 1;
#X connect 11 0 26 0;
#X connect 12 0 18 0;
#X connect 13 0 19 0;
#X connect 14 0 20 0;
#X connect 15 0 21 0;
#X connect 16 0 22 0;
#X connect 17 0 28 0;
#X connect 18 0 26 0;
#X connect 19 0 26 0;
#X connect 20 0 26 0;
#X connect 21 0 26 0;
#X connect 22 0 26 0;
#X connect 24 0 4 0;
#X connect 24 0 34 0;
#X connect 25 0 24 0;
#X connect 27 0 1 0;
#X connect 28 0 26 0;
#X connect 29 0 25 0;
#X connect 30 0 0 0;
#X connect 32 0 2 0;
#X connect 32 0 29 0;
#X connect 33 0 31 0;
#X connect 34 0 33 0;
#X connect 35 0 3 0;
#X restore 213 105 pd closest.note;
#X obj 213 83 tgl 15 0 empty empty empty 17 7 0 10 -262144 -1 -1 0
127;
#X obj 133 26 r midinote.five;
#X obj 33 87 efx.pshift.ssb~;
#X connect 1 0 0 0;
#X connect 1 0 5 1;
#X connect 3 0 2 0;
#X connect 4 0 1 0;
