#N canvas 467 118 981 466 10;
#N canvas 252 138 404 175 timeline_selection 0;
#N canvas 805 265 684 435 selection_switch 0;
#X msg 42 149 2000;
#X msg -81 151 0;
#X text -52 150 whole timeline;
#X obj 81 10 inlet selection;
#X text 267 148 selection;
#X obj 446 63 inlet selection size;
#X text 234 17 show/hide selection canvas;
#X obj 254 62 inlet selection start;
#X obj 28 255 outlet selection start;
#X obj 179 256 outlet selection size;
#N canvas 483 332 379 270 vt_selection_pass 0;
#X obj 98 21 r vt_from_selection_switch;
#X obj 21 119 f;
#X obj 21 170 outlet;
#X text 71 64 if selection is ON values are passed;
#X obj 21 78 demux;
#X text 71 84 if selection is OFF value(s) are stored;
#X obj -48 21 inlet bang;
#X obj 21 21 inlet value;
#X connect 0 0 4 1;
#X connect 1 0 2 0;
#X connect 4 0 1 1;
#X connect 4 1 1 0;
#X connect 6 0 1 0;
#X connect 7 0 4 0;
#X restore 137 149 pd vt_selection_pass;
#X obj 81 58 demux;
#X obj 81 35 t b f;
#N canvas 489 355 379 270 vt_selection_pass 0;
#X obj 98 21 r vt_from_selection_switch;
#X obj 21 119 f;
#X obj 21 170 outlet;
#X text 71 64 if selection is ON values are passed;
#X obj 21 78 demux;
#X text 71 84 if selection is OFF value(s) are stored;
#X obj -48 21 inlet bang;
#X obj 21 21 inlet value;
#X connect 0 0 4 1;
#X connect 1 0 2 0;
#X connect 4 0 1 1;
#X connect 4 1 1 0;
#X connect 6 0 1 0;
#X connect 7 0 4 0;
#X restore 329 148 pd vt_selection_pass;
#X msg 309 293 \; vt_to_selection_canvas color 1 0;
#X text 517 299 ON;
#X text 336 379 OFF;
#X msg 100 394 \; vt_to_selection_canvas color 10 0;
#X msg 81 351 \; vt_to_selection_canvas vis_size 1 1;
#X obj 81 300 t b b b;
#X obj -42 257 loadbang;
#X obj -42 279 del 100;
#X obj 108 123 s \$0-selection.on;
#X connect 0 0 9 0;
#X connect 1 0 8 0;
#X connect 3 0 12 0;
#X connect 5 0 13 1;
#X connect 7 0 10 1;
#X connect 10 0 8 0;
#X connect 11 0 1 0;
#X connect 11 0 0 0;
#X connect 11 0 19 0;
#X connect 11 1 14 0;
#X connect 11 1 10 0;
#X connect 11 1 13 0;
#X connect 11 1 22 0;
#X connect 12 0 11 0;
#X connect 12 1 11 1;
#X connect 13 0 9 0;
#X connect 19 0 18 0;
#X connect 19 1 17 0;
#X connect 20 0 21 0;
#X connect 21 0 18 0;
#X restore 12 82 pd selection_switch;
#X obj -12 119 s vt_selection_start;
#X obj 135 119 s vt_selection_size;
#X obj 12 11 r vt_from_selection_switch;
#X floatatom 12 148 5 0 0 0 - - -;
#X floatatom 123 151 5 0 0 0 - - -;
#N canvas 743 49 825 420 sel_sliders 0;
#X obj 47 -12 r vt_from_selection_slider2;
#X obj -228 5 r vt_from_selection_slider1;
#X obj -243 310 outlet start;
#X obj 32 311 outlet size;
#X text -227 329 [bars];
#X text 49 330 [bars];
#X obj -228 77 / 8;
#X obj -228 127 expr ceil($f1 \, 0);
#X obj -228 103 - 0.5;
#X obj -243 160 f;
#X obj -294 106 bang;
#X obj -198 162 * 8;
#X obj -198 278 s vt_to_selection_slider1;
#X obj -309 83 sel;
#X obj -228 49 expr ceil($f1 \, 0);
#X obj -228 29 - 0.5;
#X obj 47 108 / 8;
#X obj 47 158 expr ceil($f1 \, 0);
#X obj 47 134 - 0.5;
#X obj 32 191 f;
#X obj -19 136 bang;
#X obj 74 188 * 8;
#X obj -34 113 sel;
#X obj 47 80 expr ceil($f1 \, 0);
#X obj 47 60 - 0.5;
#X obj 75 282 s vt_to_selection_slider2;
#X obj 47 39 -;
#X obj 35 10 t b f;
#X obj 75 259 +;
#X obj 63 231 t b f;
#X obj -19 159 delay 100;
#X obj -294 128 delay 100;
#N canvas 491 198 496 270 vt_stop_pass 0;
#X obj 21 20 inlet;
#X obj 21 78 demux;
#X obj 21 154 f;
#X obj 21 205 outlet;
#X obj 72 21 r vt_from_play_switch;
#X text 72 134 if PLAY is OFF values are passed;
#X text 72 152 if PLAY is ON value(s) are stored and passed on switch
OFF;
#X obj 72 78 moses 1;
#X obj 72 100 bang;
#X connect 0 0 1 0;
#X connect 1 0 2 0;
#X connect 1 1 2 1;
#X connect 2 0 3 0;
#X connect 4 0 1 1;
#X connect 4 0 7 0;
#X connect 7 0 8 0;
#X connect 8 0 2 0;
#X restore -326 343 pd vt_stop_pass;
#N canvas 497 221 496 270 vt_stop_pass 0;
#X obj 21 20 inlet;
#X obj 21 78 demux;
#X obj 21 154 f;
#X obj 21 205 outlet;
#X obj 72 21 r vt_from_play_switch;
#X text 72 134 if PLAY is OFF values are passed;
#X text 72 152 if PLAY is ON value(s) are stored and passed on switch
OFF;
#X obj 72 78 moses 1;
#X obj 72 100 bang;
#X connect 0 0 1 0;
#X connect 1 0 2 0;
#X connect 1 1 2 1;
#X connect 2 0 3 0;
#X connect 4 0 1 1;
#X connect 4 0 7 0;
#X connect 7 0 8 0;
#X connect 8 0 2 0;
#X restore -65 346 pd vt_stop_pass;
#X obj 126 236 r vt_loadbang0;
#X obj 32 257 max 2;
#X msg 126 257 16;
#X floatatom -93 53 5 0 0 0 - - -;
#X obj 306 9 r vt_from_cursor_slider;
#X floatatom -135 78 5 0 0 0 - - -;
#X floatatom -118 167 5 0 0 0 - - -;
#X floatatom -148 217 5 0 0 0 - - -;
#X floatatom -226 219 5 0 0 0 - - -;
#X obj 306 83 / 8;
#X obj 306 133 expr ceil($f1 \, 0);
#X obj 306 109 - 0.5;
#X obj 291 166 f;
#X obj 336 168 * 8;
#X obj 306 55 expr ceil($f1 \, 0);
#X obj 306 35 - 0.5;
#X obj 240 134 delay 100;
#X obj 240 108 bang;
#X obj 225 85 sel;
#X msg -65 370 \; vt_to_selection_canvas vis_size \$1 76;
#X msg -326 369 \; vt_to_selection_canvas pos \$1 132;
#X obj -323 -17 r \$0-selection.on;
#X connect 0 0 26 0;
#X connect 1 0 15 0;
#X connect 1 0 37 0;
#X connect 6 0 8 0;
#X connect 6 0 40 0;
#X connect 7 0 9 1;
#X connect 8 0 7 0;
#X connect 9 0 11 0;
#X connect 9 0 2 0;
#X connect 9 0 42 0;
#X connect 10 0 31 0;
#X connect 11 0 12 0;
#X connect 11 0 13 1;
#X connect 11 0 41 0;
#X connect 13 1 10 0;
#X connect 14 0 6 0;
#X connect 14 0 13 0;
#X connect 14 0 27 0;
#X connect 14 0 29 0;
#X connect 14 0 32 0;
#X connect 14 0 39 0;
#X connect 15 0 14 0;
#X connect 16 0 18 0;
#X connect 17 0 19 1;
#X connect 18 0 17 0;
#X connect 19 0 35 0;
#X connect 20 0 30 0;
#X connect 21 0 22 1;
#X connect 21 0 28 0;
#X connect 22 1 20 0;
#X connect 23 0 16 0;
#X connect 23 0 22 0;
#X connect 23 0 33 0;
#X connect 24 0 23 0;
#X connect 26 0 24 0;
#X connect 27 0 26 0;
#X connect 27 1 26 1;
#X connect 28 0 25 0;
#X connect 29 0 28 0;
#X connect 29 1 28 1;
#X connect 30 0 19 0;
#X connect 31 0 9 0;
#X connect 32 0 54 0;
#X connect 33 0 53 0;
#X connect 34 0 36 0;
#X connect 35 0 21 0;
#X connect 35 0 3 0;
#X connect 36 0 25 0;
#X connect 38 0 49 0;
#X connect 43 0 45 0;
#X connect 44 0 46 1;
#X connect 45 0 44 0;
#X connect 46 0 47 0;
#X connect 46 0 2 0;
#X connect 47 0 52 1;
#X connect 48 0 43 0;
#X connect 48 0 52 0;
#X connect 49 0 48 0;
#X connect 50 0 46 0;
#X connect 51 0 50 0;
#X connect 52 1 51 0;
#X connect 55 0 15 0;
#X restore 67 43 pd sel_sliders;
#X floatatom 21 43 5 0 0 0 - - -;
#X connect 0 0 1 0;
#X connect 0 0 4 0;
#X connect 0 1 2 0;
#X connect 0 1 5 0;
#X connect 3 0 0 0;
#X connect 3 0 7 0;
#X connect 6 0 0 1;
#X connect 6 1 0 2;
#X restore 329 306 pd timeline_selection;
#N canvas 701 559 759 271 sequencer 0;
#X obj 128 197 s vt_sequence;
#N canvas 964 139 630 574 linesequencer 0;
#X obj 108 437 div;
#X obj 108 514 outlet sequence;
#X obj 394 8 inlet length;
#X text 404 25 played region;
#X text 406 38 length [bars];
#X obj 52 13 inlet play;
#X obj 123 12 inlet offset;
#X text 145 29 [bars];
#X obj -52 13 inlet loop;
#X obj 108 224 line;
#X obj 379 185 pack f f;
#X obj 379 162 f;
#X obj 108 351 +;
#X obj 424 161 *;
#X text 449 78 [ms];
#X obj 52 38 t b f;
#X obj 434 126 t b f;
#N canvas 509 267 496 270 vt_stop_pass 0;
#X obj 21 20 inlet;
#X obj 21 78 demux;
#X obj 21 154 f;
#X obj 21 205 outlet;
#X obj 72 21 r vt_from_play_switch;
#X text 72 134 if PLAY is OFF values are passed;
#X text 72 152 if PLAY is ON value(s) are stored and passed on switch
OFF;
#X obj 72 78 moses 1;
#X obj 72 100 bang;
#X connect 0 0 1 0;
#X connect 1 0 2 0;
#X connect 1 1 2 1;
#X connect 2 0 3 0;
#X connect 4 0 1 1;
#X connect 4 0 7 0;
#X connect 7 0 8 0;
#X connect 8 0 2 0;
#X restore 123 65 pd vt_stop_pass;
#N canvas 509 267 496 270 vt_stop_pass 0;
#X obj 21 20 inlet;
#X obj 21 78 demux;
#X obj 21 154 f;
#X obj 21 205 outlet;
#X obj 72 21 r vt_from_play_switch;
#X text 72 134 if PLAY is OFF values are passed;
#X text 72 152 if PLAY is ON value(s) are stored and passed on switch
OFF;
#X obj 72 78 moses 1;
#X obj 72 100 bang;
#X connect 0 0 1 0;
#X connect 1 0 2 0;
#X connect 1 1 2 1;
#X connect 2 0 3 0;
#X connect 4 0 1 1;
#X connect 4 0 7 0;
#X connect 7 0 8 0;
#X connect 8 0 2 0;
#X restore 394 59 pd vt_stop_pass;
#N canvas 648 528 322 300 looping 0;
#X obj 13 8 inlet loop switch;
#X obj 156 248 outlet play;
#X obj 207 10 inlet length;
#X obj 219 61 t b f;
#X obj 207 92 *;
#X obj 129 125 delay;
#X obj 129 9 inlet play;
#X obj 129 179 demux;
#X msg 33 227 0;
#X obj 33 248 s vt_to_play_switch;
#N canvas 491 198 496 270 vt_play_pass 0;
#X obj 21 20 inlet;
#X obj 21 78 demux;
#X obj 48 207 outlet;
#X obj 72 21 r vt_from_play_switch;
#X connect 0 0 1 0;
#X connect 1 1 2 0;
#X connect 3 0 1 1;
#X restore 129 152 pd vt_play_pass;
#X obj 219 38 r vt_bartime;
#X connect 0 0 7 1;
#X connect 2 0 4 0;
#X connect 3 0 4 0;
#X connect 3 1 4 1;
#X connect 4 0 5 1;
#X connect 5 0 10 0;
#X connect 6 0 5 0;
#X connect 7 0 8 0;
#X connect 7 1 5 0;
#X connect 7 1 1 0;
#X connect 8 0 9 0;
#X connect 10 0 7 0;
#X connect 11 0 3 0;
#X restore -52 103 pd looping;
#N canvas 491 198 496 270 vt_stop_pass 0;
#X obj 21 20 inlet;
#X obj 21 78 demux;
#X obj 21 154 f;
#X obj 21 205 outlet;
#X obj 72 21 r vt_from_play_switch;
#X text 72 134 if PLAY is OFF values are passed;
#X text 72 152 if PLAY is ON value(s) are stored and passed on switch
OFF;
#X obj 72 78 moses 1;
#X obj 72 100 bang;
#X connect 0 0 1 0;
#X connect 1 0 2 0;
#X connect 1 1 2 1;
#X connect 2 0 3 0;
#X connect 4 0 1 1;
#X connect 4 0 7 0;
#X connect 7 0 8 0;
#X connect 8 0 2 0;
#X restore -52 74 pd vt_stop_pass;
#X obj -35 421 s vt_time_sequence;
#X obj -45 351 s vt_reset_clock;
#X obj 108 488 + 1;
#X obj 108 464 change;
#X obj -50 239 s vt_seq_stop;
#X msg 36 297 -1;
#X obj 208 133 t b b;
#X msg 108 174 stop;
#X obj 434 103 r vt_bartime;
#X obj 244 517 outlet beat;
#X obj 244 414 * 4;
#X obj 244 440 div;
#X obj 244 492 + 1;
#X obj 244 466 change;
#X obj 36 271 loadbang;
#X obj 252 12 inlet offset;
#X text 274 28 [cursor];
#X floatatom 160 550 5 0 0 0 - - -;
#X floatatom 284 552 5 0 0 0 - - -;
#X obj 108 251 t f f;
#X obj 183 290 f;
#X msg 235 169 0;
#X msg 183 312 \$1;
#X obj 16 272 bng 15 250 50 0 empty \$0-timeline-rewind empty 17 7
0 10 -258113 -1 -1;
#X text 244 131 START;
#X obj 52 66 demux;
#X floatatom 169 244 5 0 0 0 - - -;
#X floatatom 165 100 5 0 0 0 - - -;
#X floatatom 229 369 5 0 0 0 - - -;
#X floatatom 133 416 5 0 0 0 - - -;
#N canvas 24 116 450 300 count-sequence-from-cursor 0;
#X obj -156 124 / 8;
#X obj -156 174 expr ceil($f1 \, 0);
#X obj -156 150 - 0.5;
#X obj -156 96 expr ceil($f1 \, 0);
#X obj -156 76 - 0.5;
#X obj -156 205 outlet;
#X obj -156 52 r vt_from_cursor_slider;
#X obj -90 205 s sequence-manual-cursor;
#X connect 0 0 2 0;
#X connect 1 0 5 0;
#X connect 1 0 7 0;
#X connect 2 0 1 0;
#X connect 3 0 0 0;
#X connect 4 0 3 0;
#X connect 6 0 4 0;
#X restore 186 343 pd count-sequence-from-cursor;
#X connect 0 0 24 0;
#X connect 2 0 18 0;
#X connect 5 0 15 0;
#X connect 6 0 17 0;
#X connect 8 0 20 0;
#X connect 9 0 40 0;
#X connect 9 0 47 0;
#X connect 10 0 9 0;
#X connect 11 0 10 0;
#X connect 12 0 0 0;
#X connect 12 0 21 0;
#X connect 12 0 31 0;
#X connect 12 0 50 0;
#X connect 13 0 10 1;
#X connect 15 0 46 0;
#X connect 15 1 46 1;
#X connect 16 0 13 0;
#X connect 16 1 13 1;
#X connect 17 0 12 1;
#X connect 17 0 48 0;
#X connect 18 0 11 1;
#X connect 18 0 13 0;
#X connect 18 0 19 2;
#X connect 19 0 27 0;
#X connect 20 0 19 0;
#X connect 23 0 1 0;
#X connect 23 0 38 0;
#X connect 24 0 23 0;
#X connect 26 0 24 0;
#X connect 26 0 34 0;
#X connect 27 0 11 0;
#X connect 27 1 42 0;
#X connect 28 0 9 0;
#X connect 29 0 16 0;
#X connect 31 0 32 0;
#X connect 32 0 34 0;
#X connect 33 0 30 0;
#X connect 33 0 39 0;
#X connect 34 0 33 0;
#X connect 35 0 26 0;
#X connect 40 0 41 0;
#X connect 40 1 12 0;
#X connect 41 0 43 0;
#X connect 42 0 9 0;
#X connect 44 0 26 0;
#X connect 46 0 28 0;
#X connect 46 0 26 0;
#X connect 46 0 25 0;
#X connect 46 1 19 1;
#X connect 46 1 27 0;
#X connect 51 0 49 0;
#X connect 51 0 1 0;
#X connect 51 0 21 0;
#X connect 51 0 31 0;
#X coords 0 0 0.00740192 0.00115741 10 140 0;
#X restore 128 95 pd linesequencer;
#X obj 164 130 * 8;
#X obj 164 155 s vt_to_sequence_radio;
#X obj 499 16 r vt_selection_size;
#X obj 210 16 r vt_selection_start;
#X obj 75 16 r vt_from_play_switch;
#X obj -60 16 r vt_from_loop_switch;
#X obj 221 124 s vt_beat;
#X obj 347 16 r vt_from_cursor_slider;
#X connect 1 0 0 0;
#X connect 1 0 2 0;
#X connect 1 1 8 0;
#X connect 2 0 3 0;
#X connect 4 0 1 4;
#X connect 5 0 1 2;
#X connect 6 0 1 1;
#X connect 7 0 1 0;
#X connect 9 0 1 3;
#X restore 212 305 pd sequencer;
#N canvas 62 471 342 264 timer 0;
#N canvas 574 143 568 522 clock 0;
#X obj 27 236 div;
#X obj 183 237 div;
#X obj 183 25 *;
#X obj 183 308 makefilename 0%d;
#X obj 183 130 / 1000;
#X obj 27 129 / 60000;
#X obj 356 133 / 10;
#X obj 356 239 div;
#X obj 236 411 mergefilename :;
#X obj 183 264 moses 10;
#X obj 228 286 makefilename %d;
#X obj 356 307 makefilename 0%d;
#X obj 356 261 moses 10;
#X obj 27 306 makefilename 0%d;
#X obj 27 262 moses 10;
#X obj 72 284 makefilename %d;
#X obj 236 387 pack s s s;
#X obj 89 -30 inlet sequence;
#X obj 198 -28 inlet bartime;
#X obj 236 438 outlet to canvas;
#X obj 401 284 makefilename %d;
#X obj 461 180 div;
#X obj 461 158 / 100;
#X obj 356 204 expr $f1-($f2*100);
#X obj 282 181 div;
#X obj 282 159 / 60;
#X obj 183 205 expr $f1-($f2*60);
#X obj 126 181 div;
#X obj 126 159 / 60;
#X obj 27 205 expr $f1-($f2*60);
#X msg 298 -5 0;
#X obj 298 -28 inlet reset;
#X connect 0 0 14 0;
#X connect 1 0 9 0;
#X connect 2 0 5 0;
#X connect 2 0 4 0;
#X connect 2 0 6 0;
#X connect 3 0 16 1;
#X connect 4 0 26 0;
#X connect 4 0 25 0;
#X connect 5 0 29 0;
#X connect 5 0 28 0;
#X connect 6 0 22 0;
#X connect 6 0 23 0;
#X connect 7 0 12 0;
#X connect 8 0 19 0;
#X connect 9 0 3 0;
#X connect 9 1 10 0;
#X connect 10 0 16 1;
#X connect 11 0 16 2;
#X connect 12 0 11 0;
#X connect 12 1 20 0;
#X connect 13 0 16 0;
#X connect 14 0 13 0;
#X connect 14 1 15 0;
#X connect 15 0 16 0;
#X connect 16 0 8 0;
#X connect 17 0 2 0;
#X connect 18 0 2 1;
#X connect 20 0 16 2;
#X connect 21 0 23 1;
#X connect 22 0 21 0;
#X connect 23 0 7 0;
#X connect 24 0 26 1;
#X connect 25 0 24 0;
#X connect 26 0 1 0;
#X connect 27 0 29 1;
#X connect 28 0 27 0;
#X connect 29 0 0 0;
#X connect 30 0 11 0;
#X connect 30 0 3 0;
#X connect 30 0 13 0;
#X connect 31 0 30 0;
#X restore 113 163 pd clock;
#X obj 12 16 r vt_time_sequence;
#X obj 218 16 r vt_reset_clock;
#X text 133 -14 current;
#X obj 113 190 s vt_current_clock;
#X obj 135 16 r vt_bartime;
#X connect 0 0 4 0;
#X connect 1 0 0 0;
#X connect 2 0 0 2;
#X connect 5 0 0 1;
#X restore 212 370 pd timer;
#N canvas 656 147 738 300 global_loadbangs 0;
#X obj 205 18 loadbang;
#X obj 29 129 metro 10;
#X obj 29 151 s vt_metro10;
#X obj 114 129 metro 100;
#X obj 114 151 s vt_metro100;
#X msg 240 78 bang;
#X obj 215 152 s vt_loadbang0;
#X obj 312 129 delay 1000;
#X msg 535 129 0;
#X obj 523 207 s vt_to_selection_switch;
#X obj 541 183 s vt_to_loop_switch;
#X obj 312 152 s vt_loadbang1;
#X obj 416 152 s vt_loadbang2;
#X obj 415 128 delay 10000;
#X obj 596 128 s vt_track_prop_reset;
#X obj 99 253 s vt_current_clock;
#X obj 240 254 s vt_current_beatcount;
#X msg 240 212 00/00;
#X msg 99 210 00:00:00;
#X obj 99 231 symbol;
#X obj 240 233 symbol;
#X connect 0 0 5 0;
#X connect 1 0 2 0;
#X connect 3 0 4 0;
#X connect 5 0 3 0;
#X connect 5 0 1 0;
#X connect 5 0 6 0;
#X connect 5 0 7 0;
#X connect 5 0 8 0;
#X connect 5 0 13 0;
#X connect 5 0 14 0;
#X connect 5 0 18 0;
#X connect 5 0 17 0;
#X connect 7 0 11 0;
#X connect 8 0 9 0;
#X connect 8 0 10 0;
#X connect 17 0 20 0;
#X connect 18 0 19 0;
#X connect 19 0 15 0;
#X connect 20 0 16 0;
#X restore 330 347 pd global_loadbangs;
#N canvas 467 458 650 438 cursor 0;
#X obj 207 107 - 9;
#X obj 180 -73 r vt_sequence;
#X obj 207 85 * 8;
#X obj 180 15 sel 0;
#X msg 180 58 -3;
#X obj 244 62 bang;
#X floatatom 259 36 5 0 0 0 - - -;
#X obj 248 10 r vt_from_cursor_slider;
#X msg 244 84 \; vt_to_sequence_cursor color 22;
#X msg 3 133 \; vt_to_sequence_cursor color 22;
#X floatatom 91 -40 5 0 0 0 - - -;
#X floatatom 258 153 5 0 0 0 - - -;
#N canvas 515 290 496 270 vt_stop_pass 0;
#X obj 21 20 inlet;
#X obj 21 205 outlet;
#X obj 72 21 r vt_from_play_switch;
#X text 72 134 if PLAY is OFF values are passed;
#X text 72 152 if PLAY is ON value(s) are stored and passed on switch
OFF;
#X obj 21 87 spigot;
#X connect 0 0 5 0;
#X connect 2 0 5 1;
#X connect 5 0 1 0;
#X restore 180 -36 pd vt_stop_pass;
#X msg 180 206 \; vt_to_sequence_cursor pos \$1 119;
#X connect 0 0 11 0;
#X connect 0 0 13 0;
#X connect 1 0 10 0;
#X connect 1 0 12 0;
#X connect 2 0 0 0;
#X connect 3 0 4 0;
#X connect 3 0 9 0;
#X connect 3 1 2 0;
#X connect 3 1 5 0;
#X connect 4 0 13 0;
#X connect 5 0 8 0;
#X connect 7 0 6 0;
#X connect 7 0 13 0;
#X connect 12 0 3 0;
#X restore 329 326 pd cursor;
#N canvas 394 467 910 300 multiple_ctrl 0;
#X obj -120 -15 tgl 15 0 vt_from_play_switch vt_to_play_switch PLAY
22 7 1 10 -262144 -1 -1 0 1;
#X obj 45 -16 tgl 15 0 vt_from_selection_switch vt_to_selection_switch
SELECTION 17 7 1 10 -262144 -1 -1 0 1;
#X obj -243 86 tgl 15 0 vt_from_loop_switch vt_to_loop_switch LOOPED
17 7 1 10 -262144 -1 -1 0 1;
#X obj -67 89 tgl 11 0 vt_shortcuts_enable oijsdpoihjwrpiuzruzpr shortcuts
15 7 0 10 -262144 -1 -1 0 1;
#X obj -243 -16 nbx 5 15 -1e+37 1e+37 0 0 vt_from_bpm vt_to_bpm SET_BPM
60 8 0 10 -262144 -1 -1 120 256;
#X obj -243 5 change;
#X obj -120 5 change;
#X obj 45 5 change;
#X obj -243 107 change;
#X obj -67 108 change;
#X obj -243 -39 r vt_from_bpm_gui;
#X obj -243 28 s vt_to_bpm_gui;
#X obj -120 -38 r vt_from_play_switch_gui;
#X obj -120 28 s vt_to_play_switch_gui;
#X obj 45 -38 r vt_from_selection_switch_gui;
#X obj 45 28 s vt_to_selection_switch_gui;
#X obj -243 64 r vt_from_loop_switch_gui;
#X obj -67 65 r vt_from_shortcuts_enable_gui;
#X obj -67 131 s vt_to_shortcuts_enable_gui;
#X obj -243 130 s vt_to_loop_switch_gui;
#X connect 0 0 6 0;
#X connect 1 0 7 0;
#X connect 2 0 8 0;
#X connect 3 0 9 0;
#X connect 4 0 5 0;
#X connect 5 0 11 0;
#X connect 6 0 13 0;
#X connect 7 0 15 0;
#X connect 8 0 19 0;
#X connect 9 0 18 0;
#X connect 10 0 4 0;
#X connect 12 0 0 0;
#X connect 14 0 1 0;
#X connect 16 0 2 0;
#X connect 17 0 3 0;
#X restore 212 350 pd multiple_ctrl;
#X text 849 155 .;
#N canvas 527 301 476 437 bpm 0;
#X obj 86 126 expr 60 / $f1 * 1000 * 4;
#X floatatom 59 -40 5 0 0 0 - - -;
#X obj 104 98 s vt_bpm;
#X text 163 162 [ms];
#X obj 86 161 s vt_bartime;
#X obj 72 -8 r vt_init_bpm;
#X obj 59 -67 r vt_from_bpm;
#X obj 59 66 t b f;
#X obj 59 193 s vt_init_fit;
#X obj 59 25 f;
#X obj 18 -91 r bpm_to_loadbang;
#X connect 0 0 4 0;
#X connect 1 0 9 0;
#X connect 5 0 9 0;
#X connect 6 0 1 0;
#X connect 7 0 8 0;
#X connect 7 1 0 0;
#X connect 7 1 2 0;
#X connect 9 0 7 0;
#X connect 10 0 1 0;
#X restore 212 327 pd bpm;
#N canvas 851 267 409 471 beat_counter 0;
#X obj -31 -49 makefilename 0%d;
#X obj -31 -93 moses 10;
#X obj 14 -71 makefilename %d;
#X obj -184 -50 makefilename 0%d;
#X obj -184 -94 moses 10;
#X obj -139 -72 makefilename %d;
#X obj -103 57 s vt_current_beatcount;
#X obj -171 -204 r vt_beat;
#X obj -184 -267 r vt_sequence;
#X obj -103 6 pack s s;
#X obj -103 30 mergefilename /;
#X obj -184 -121 f;
#X obj -171 -150 t b f;
#X obj -171 -178 expr $f1-($f2-1)*4;
#X obj -66 -203 max 1;
#X connect 0 0 9 1;
#X connect 1 0 0 0;
#X connect 1 1 2 0;
#X connect 2 0 9 1;
#X connect 3 0 9 0;
#X connect 4 0 3 0;
#X connect 4 1 5 0;
#X connect 5 0 9 0;
#X connect 7 0 13 0;
#X connect 8 0 11 0;
#X connect 8 0 14 0;
#X connect 9 0 10 0;
#X connect 10 0 6 0;
#X connect 11 0 4 0;
#X connect 12 0 11 0;
#X connect 12 1 1 0;
#X connect 13 0 12 0;
#X connect 14 0 13 1;
#X restore 330 369 pd beat_counter;
#X obj 1 103 hsl 16000 12 0 16000 0 0 vt_from_cursor_slider vt_to_cursor_slider
empty -2 -8 0 10 -66577 -262144 -1 0 0;
#N canvas 912 244 559 469 make-event 0;
#X obj 157 201 f;
#X obj 145 46 i;
#X obj 57 200 f;
#X obj 84 200 + 1;
#X obj 57 121 t b b;
#X msg 115 133 0;
#X obj 145 24 r vt_from_cursor_slider;
#X obj 186 201 r vt_beat;
#X obj 57 262 pack f f f;
#X obj 57 411 s pd-timeline;
#X obj 145 69 + 2;
#X text 153 131 << resest counter of events;
#X text 302 22 << position from slider;
#X text 253 201 << beat that will trigger event;
#X text 239 287 << variable are \; position \, id \, beat;
#X msg 130 366 \; \$1 bang;
#X obj 145 162 t f f;
#X obj 130 317 f;
#X obj 57 230 t f f;
#X obj 130 341 makefilename %d_event-loadbang;
#X obj 57 98 r xs-create-event;
#X obj 34 100 bng 15 250 50 0 empty empty empty 17 7 0 10 -262144 -1
-1;
#X msg 57 288 obj \$2 101 set-event \$2 \$1 \$3;
#X connect 0 0 8 1;
#X connect 1 0 10 0;
#X connect 2 0 3 0;
#X connect 2 0 18 0;
#X connect 3 0 2 1;
#X connect 4 0 2 0;
#X connect 4 1 0 0;
#X connect 5 0 2 1;
#X connect 6 0 1 0;
#X connect 7 0 8 2;
#X connect 8 0 22 0;
#X connect 10 0 16 0;
#X connect 15 0 9 0;
#X connect 16 0 17 1;
#X connect 16 1 0 1;
#X connect 17 0 19 0;
#X connect 18 0 17 0;
#X connect 18 1 8 0;
#X connect 19 0 15 0;
#X connect 20 0 4 0;
#X connect 21 0 4 0;
#X connect 22 0 9 0;
#X restore 330 391 pd make-event;
#N canvas 1039 485 276 186 events-loadbang 0;
#X obj 59 118 s set-event-loadbang;
#X obj 59 91 loadbang;
#X obj 121 94 bng 15 250 50 0 empty empty empty 17 7 0 10 -262144 -1
-1;
#X connect 1 0 0 0;
#X connect 2 0 0 0;
#X restore 468 306 pd events-loadbang;
#X obj -1 168 cnv 15 16000 40 empty empty empty 20 12 0 14 -196685
-66577 0;
#N canvas 379 483 419 266 read.thresh.array 0;
#X obj 30 -29 r vt_sequence;
#X obj 30 -5 / 2;
#X obj 30 20 tabread .;
#X floatatom 51 49 5 0 0 0 - - -;
#X floatatom 75 -4 5 0 0 0 - - -;
#X obj 30 176 s in.1_dyna.thresh;
#X obj 30 155 line3;
#X obj 30 132 pack f 100;
#X obj 30 90 scale.lin 120 1 1;
#X connect 0 0 1 0;
#X connect 0 0 4 0;
#X connect 1 0 2 0;
#X connect 2 0 3 0;
#X connect 2 0 8 0;
#X connect 6 0 5 0;
#X connect 7 0 6 0;
#X connect 8 0 7 0;
#X restore 468 327 pd read.thresh.array;
#N canvas 445 627 429 215 init.thresh.array 0;
#X obj 23 16 loadbang;
#X obj 23 39 t b b b b b b;
#X msg 109 144 \; . xticks 0 1 1;
#X obj 133 40 r \$0-reset.thresh.in.1;
#X msg 23 143 \; . const 0.52;
#X connect 0 0 1 0;
#X connect 1 0 4 0;
#X connect 1 1 2 0;
#X connect 3 0 4 0;
#X restore 468 348 pd init.thresh.array;
#X obj -1 213 gui.bng.box Reset;
#X obj -1 248 s \$0-reset.thresh.in.1;
#X obj 0 132 cnv 20 1 1 empty vt_to_selection_canvas empty 20 12 0
14 -233017 -262144 0;
#X obj 0 132 cnv 20 1 1 empty vt_to_selection_canvas empty 20 12 0
14 -233017 -262144 0;
#X obj 0 119 cnv 15 1 89 empty vt_to_sequence_cursor empty 20 12 0
14 -1 -262144 0;
#X obj 1 118 hsl 16000 8 0 16000 0 0 vt_from_selection_slider1 vt_to_selection_slider1
empty -2 -8 0 10 -33289 -258113 -1 0 0;
#X obj 1 126 hsl 16000 8 0 16000 0 0 vt_from_selection_slider2 vt_to_selection_slider2
empty -2 -8 0 10 -33289 -258113 -1 14399 0;
#N canvas 753 367 706 475 save.thresh.array 0;
#X obj 176 327 prepend set;
#X msg 53 170 clear;
#X msg 176 176 obj 10 10 receive thresh.array\$1 \, msg 10 30 \, obj
5 50 send . \, connect 0 0 1 0 \, connect 1 0 2 0;
#X obj 191 39 r selected.seq.preset;
#X floatatom 251 66 5 0 0 0 - - -;
#X obj 176 141 f;
#X obj 0 36 r seq.preset.save;
#X text 352 46 SAVE;
#X obj 176 212 trigger b a;
#X obj 191 93 trigger f f;
#X obj 254 120 s \$0-seq.preset.selection;
#N canvas 484 94 450 300 makefilename 0;
#X msg 112 230 set \$1;
#X obj 112 206 makefilename pd-thresh.array%d;
#X obj 112 63 r \$0-seq.preset.selection;
#X obj 112 85 t f f;
#X obj 258 133 makefilename thresh.array%d;
#X obj 112 252 outlet pd-subpatch;
#X obj 258 179 outlet receiver;
#X msg 258 155 set \$1;
#X obj 51 264 print;
#X connect 0 0 5 0;
#X connect 1 0 0 0;
#X connect 2 0 3 0;
#X connect 3 0 1 0;
#X connect 3 1 4 0;
#X connect 4 0 7 0;
#X connect 7 0 6 0;
#X restore 373 232 pd makefilename;
#X obj -10 9 bng 15 250 50 0 empty empty empty 17 7 0 10 -262144 -1
-1;
#N canvas 231 301 287 391 recogniza.first.save 0;
#X obj 45 31 t b b;
#X obj 72 114 != 0;
#X floatatom 119 117 5 0 0 0 - - -;
#X obj 98 55 init 0;
#X obj 72 137 sel 1;
#X obj 45 219 demux;
#X obj 116 247 bng 15 250 50 0 empty empty empty 17 7 0 10 -262144
-1 -1;
#X obj 86 247 bng 15 250 50 0 empty empty empty 17 7 0 10 -262144 -1
-1;
#X obj 98 36 bng 15 250 50 0 empty empty empty 17 7 0 10 -262144 -1
-1;
#X msg 72 165 0;
#X msg 108 164 1;
#X obj 72 274 outlet first.save;
#X obj 45 308 outlet following.save;
#X obj 45 8 inlet;
#X obj 72 84 f;
#X obj 100 84 + 1;
#X obj 88 12 bng 15 250 50 0 empty empty empty 17 7 0 10 -262144 -1
-1;
#X connect 0 0 5 0;
#X connect 0 1 14 0;
#X connect 1 0 4 0;
#X connect 3 0 14 1;
#X connect 4 0 9 0;
#X connect 4 1 10 0;
#X connect 5 0 7 0;
#X connect 5 0 12 0;
#X connect 5 1 6 0;
#X connect 5 1 11 0;
#X connect 8 0 3 0;
#X connect 9 0 5 1;
#X connect 10 0 5 0;
#X connect 13 0 0 0;
#X connect 14 0 2 0;
#X connect 14 0 1 0;
#X connect 14 0 15 0;
#X connect 15 0 14 1;
#X connect 16 0 0 0;
#X restore 0 62 pd recogniza.first.save;
#X obj 0 84 t b b;
#X obj 176 398 iem_s;
#X obj 239 268 iem_s;
#X obj 176 303 tabdump .;
#X connect 0 0 15 0;
#X connect 1 0 16 0;
#X connect 2 0 8 0;
#X connect 3 0 4 0;
#X connect 3 0 9 0;
#X connect 5 0 2 0;
#X connect 6 0 13 0;
#X connect 8 0 17 0;
#X connect 8 1 16 0;
#X connect 9 0 5 1;
#X connect 9 1 10 0;
#X connect 11 0 16 1;
#X connect 11 1 15 1;
#X connect 13 0 14 0;
#X connect 13 1 5 0;
#X connect 14 0 5 0;
#X connect 14 1 1 0;
#X connect 17 0 0 0;
#X restore 468 368 pd save.thresh.array;
#N canvas 612 423 486 246 load.thresh.array 0;
#X obj 191 39 r selected.seq.preset;
#X floatatom 235 62 5 0 0 0 - - -;
#X text 352 46 SAVE;
#X obj 191 84 s \$0-seq.preset.selection;
#N canvas 196 221 393 209 makefilename 0;
#X obj 112 63 r \$0-seq.preset.selection;
#X msg 112 108 set \$1;
#X obj 112 87 makefilename thresh.array%d;
#X obj 112 130 outlet receiver;
#X connect 0 0 2 0;
#X connect 1 0 3 0;
#X connect 2 0 1 0;
#X restore 79 86 pd makefilename;
#X obj 338 158 bng 15 250 50 0 empty empty empty 17 7 0 10 -262144
-1 -1;
#X obj 52 44 r seq.preset.load;
#X obj 52 120 iem_s;
#X connect 0 0 1 0;
#X connect 0 0 3 0;
#X connect 4 0 7 1;
#X connect 6 0 7 0;
#X restore 468 388 pd load.thresh.array;
#N canvas 6 47 450 300 (subpatch) 0;
#X array . 1001 float 1;
#A 0 0.52 0.52 0.52 0.52 0.52 0.52 0.52 0.52 0.52 0.52 0.52 0.52 0.52
0.52 0.52 0.52 0.52 0.52 0.52 0.52 0.52 0.52 0.52 0.52 0.52 0.52 0.52
0.52 0.52 0.52 0.52 0.52 0.52 0.52 0.52 0.52 0.52 0.52 0.52 0.52 0.52
0.52 0.52 0.52 0.52 0.52 0.52 0.52 0.52 0.52 0.52 0.52 0.52 0.52 0.52
0.52 0.52 0.52 0.52 0.52 0.52 0.52 0.52 0.52 0.52 0.52 0.52 0.52 0.52
0.52 0.52 0.52 0.52 0.52 0.52 0.52 0.52 0.52 0.52 0.52 0.52 0.52 0.52
0.52 0.52 0.52 0.52 0.52 0.52 0.52 0.52 0.52 0.52 0.52 0.52 0.52 0.52
0.52 0.52 0.52 0.52 0.52 0.52 0.52 0.52 0.52 0.52 0.52 0.52 0.52 0.52
0.52 0.52 0.52 0.52 0.52 0.52 0.52 0.52 0.52 0.52 0.52 0.52 0.52 0.52
0.52 0.52 0.52 0.52 0.52 0.52 0.52 0.52 0.52 0.52 0.52 0.52 0.52 0.52
0.52 0.52 0.52 0.52 0.52 0.52 0.52 0.52 0.52 0.52 0.52 0.52 0.52 0.52
0.52 0.52 0.52 0.52 0.52 0.52 0.52 0.52 0.52 0.52 0.52 0.52 0.52 0.52
0.52 0.52 0.52 0.52 0.52 0.52 0.52 0.52 0.52 0.52 0.52 0.52 0.52 0.52
0.52 0.52 0.52 0.52 0.52 0.52 0.52 0.52 0.52 0.52 0.52 0.52 0.52 0.52
0.52 0.52 0.52 0.52 0.52 0.52 0.52 0.52 0.52 0.52 0.52 0.52 0.52 0.52
0.52 0.52 0.52 0.52 0.52 0.52 0.52 0.52 0.52 0.52 0.52 0.52 0.52 0.52
0.52 0.52 0.52 0.52 0.52 0.52 0.52 0.52 0.52 0.52 0.52 0.52 0.52 0.52
0.52 0.52 0.52 0.52 0.52 0.52 0.52 0.52 0.52 0.52 0.52 0.52 0.52 0.52
0.52 0.52 0.52 0.52 0.52 0.52 0.52 0.52 0.52 0.52 0.52 0.52 0.52 0.52
0.52 0.52 0.52 0.52 0.52 0.52 0.52 0.52 0.52 0.52 0.52 0.52 0.52 0.52
0.52 0.52 0.52 0.52 0.52 0.52 0.52 0.52 0.52 0.52 0.52 0.52 0.52 0.52
0.52 0.52 0.52 0.52 0.52 0.52 0.52 0.52 0.52 0.52 0.52 0.52 0.52 0.52
0.52 0.52 0.52 0.52 0.52 0.52 0.52 0.52 0.52 0.52 0.52 0.52 0.52 0.52
0.52 0.52 0.52 0.52 0.52 0.52 0.52 0.52 0.52 0.52 0.52 0.52 0.52 0.52
0.52 0.52 0.52 0.52 0.52 0.52 0.52 0.52 0.52 0.52 0.52 0.52 0.52 0.52
0.52 0.52 0.52 0.52 0.52 0.52 0.52 0.52 0.52 0.52 0.52 0.52 0.52 0.52
0.52 0.52 0.52 0.52 0.52 0.52 0.52 0.52 0.52 0.52 0.52 0.52 0.52 0.52
0.52 0.52 0.52 0.52 0.52 0.52 0.52 0.52 0.52 0.52 0.52 0.52 0.52 0.52
0.52 0.52 0.52 0.52 0.52 0.52 0.52 0.52 0.52 0.52 0.52 0.52 0.52 0.52
0.52 0.52 0.52 0.52 0.52 0.52 0.52 0.52 0.52 0.52 0.52 0.52 0.52 0.52
0.52 0.52 0.52 0.52 0.52 0.52 0.52 0.52 0.52 0.52 0.52 0.52 0.52 0.52
0.52 0.52 0.52 0.52 0.52 0.52 0.52 0.52 0.52 0.52 0.52 0.52 0.52 0.52
0.52 0.52 0.52 0.52 0.52 0.52 0.52 0.52 0.52 0.52 0.52 0.52 0.52 0.52
0.52 0.52 0.52 0.52 0.52 0.52 0.52 0.52 0.52 0.52 0.52 0.52 0.52 0.52
0.52 0.52 0.52 0.52 0.52 0.52 0.52 0.52 0.52 0.52 0.52 0.52 0.52 0.52
0.52 0.52 0.52 0.52 0.52 0.52 0.52 0.52 0.52 0.52 0.52 0.52 0.52 0.52
0.52 0.52 0.52 0.52 0.52 0.52 0.52 0.52 0.52 0.52 0.52 0.52 0.52 0.52
0.52 0.52 0.52 0.52 0.52 0.52 0.52 0.52 0.52 0.52 0.52 0.52 0.52 0.52
0.52 0.52 0.52 0.52 0.52 0.52 0.52 0.52 0.52 0.52 0.52 0.52 0.52 0.52
0.52 0.52 0.52 0.52 0.52 0.52 0.52 0.52 0.52 0.52 0.52 0.52 0.52 0.52
0.52 0.52 0.52 0.52 0.52 0.52 0.52 0.52 0.52 0.52 0.52 0.52 0.52 0.52
0.52 0.52 0.52 0.52 0.52 0.52 0.52 0.52 0.52 0.52 0.52 0.52 0.52 0.52
0.52 0.52 0.52 0.52 0.52 0.52 0.52 0.52 0.52 0.52 0.52 0.52 0.52 0.52
0.52 0.52 0.52 0.52 0.52 0.52 0.52 0.52 0.52 0.52 0.52 0.52 0.52 0.52
0.52 0.52 0.52 0.52 0.52 0.52 0.52 0.52 0.52 0.52 0.52 0.52 0.52 0.52
0.52 0.52 0.52 0.52 0.52 0.52 0.52 0.52 0.52 0.52 0.52 0.52 0.52 0.52
0.52 0.52 0.52 0.52 0.52 0.52 0.52 0.52 0.52 0.52 0.52 0.52 0.52 0.52
0.52 0.52 0.52 0.52 0.52 0.52 0.52 0.52 0.52 0.52 0.52 0.52 0.52 0.52
0.52 0.52 0.52 0.52 0.52 0.52 0.52 0.52 0.52 0.52 0.52 0.52 0.52 0.52
0.52 0.52 0.52 0.52 0.52 0.52 0.52 0.52 0.52 0.52 0.52 0.52 0.52 0.52
0.52 0.52 0.52 0.52 0.52 0.52 0.52 0.52 0.52 0.52 0.52 0.52 0.52 0.52
0.52 0.52 0.52 0.52 0.52 0.52 0.52 0.52 0.52 0.52 0.52 0.52 0.52 0.52
0.52 0.52 0.52 0.52 0.52 0.52 0.52 0.52 0.52 0.52 0.52 0.52 0.52 0.52
0.52 0.52 0.52 0.52 0.52 0.52 0.52 0.52 0.52 0.52 0.52 0.52 0.52 0.52
0.52 0.52 0.52 0.52 0.52 0.52 0.52 0.52 0.52 0.52 0.52 0.52 0.52 0.52
0.52 0.52 0.52 0.52 0.52 0.52 0.52 0.52 0.52 0.52 0.52 0.52 0.52 0.52
0.52 0.52 0.52 0.52 0.52 0.52 0.52 0.52 0.52 0.52 0.52 0.52 0.52 0.52
0.52 0.52 0.52 0.52 0.52 0.52 0.52 0.52 0.52 0.52 0.52 0.52 0.52 0.52
0.52 0.52 0.52 0.52 0.52 0.52 0.52 0.52 0.52 0.52 0.52 0.52 0.52 0.52
0.52 0.52 0.52 0.52 0.52 0.52 0.52 0.52 0.52 0.52 0.52 0.52 0.52 0.52
0.52 0.52 0.52 0.52 0.52 0.52 0.52 0.52 0.52 0.52 0.52 0.52 0.52 0.52
0.52 0.52 0.52 0.52 0.52 0.52 0.52 0.52 0.52 0.52 0.52 0.52 0.52 0.52
0.52 0.52 0.52 0.52 0.52 0.52 0.52 0.52 0.52 0.52 0.52 0.52 0.52 0.52
0.52 0.52 0.52 0.52 0.52 0.52 0.52 0.52 0.52 0.52 0.52 0.52 0.52 0.52
0.52 0.52 0.52 0.52 0.52 0.52 0.52 0.52 0.52 0.52 0.52 0.52 0.52 0.52
0.52 0.52 0.52 0.52 0.52 0.52 0.52 0.52 0.52 0.52 0.52 0.52 0.52 0.52
0.52 0.52 0.52 0.52 0.52 0.52 0.52 0.52 0.52 0.52 0.52 0.52 0.52 0.52
0.52 0.52 0.52 0.52 0.52 0.52 0.52 0.52 0.52 0.52 0.52 0.52 0.52 0.52
0.52 0.52 0.52 0.52 0.52 0.52 0.52 0.52 0.52 0.52 0.52 0.52 0.52 0.52
0.52 0.52 0.52 0.52 0.52 0.52 0.52 0.52 0.52 0.52 0.52 0.52 0.52 0.52
0.52 0.52 0.52 0.52 0.52 0.52 0.52 0.52 0.52 0.52 0.52 0.52 0.52 0.52
0.52 0.52 0.52 0.52 0.52 0.52 0.52;
#A 1000 0.52;
#X coords 0 1 999 0 16000 40 1;
#X restore -2 168 graph;
#X connect 15 0 16 0;
#X coords 0 -1 1 1 16020 141 2 -5 100;
