#N canvas 424 101 933 347 10;
#X declare -lib xth-sense-lib;
#X obj 4 3 cnv 15 910 331 empty empty empty 20 12 0 14 -162280 -66577
0;
#N canvas 517 262 571 415 totalcount 0;
#X obj 106 103 bng 15 250 50 0 empty empty empty 17 7 0 10 -262144
-1 -1;
#X floatatom 130 102 5 0 0 0 - - -;
#X obj 235 27 canvasindex;
#X obj 298 199 send GLOBAL_OSC;
#X obj 158 -19 loadbang;
#X obj 298 56 t f f;
#X obj 407 176 bng 15 250 50 0 empty empty empty 17 7 0 10 -262144
-1 -1;
#X obj 394 -22 t b b;
#X obj 394 -48 r \$0-totalcount-temp;
#X msg 343 -25 1;
#X msg 421 10 0;
#X obj 235 -51 trigger bang bang;
#X obj 298 90 spigot 1;
#X obj 235 -74 r \$0-w4.totalcount;
#X msg 298 114 /c::ntr::l/w4/modulescount-on-deletion \$1;
#X msg 325 147 /c::ntr::l/w4/modulescount \$1;
#X connect 0 0 2 0;
#X connect 2 1 1 0;
#X connect 2 1 5 0;
#X connect 4 0 2 0;
#X connect 5 0 12 0;
#X connect 5 1 15 0;
#X connect 7 0 2 0;
#X connect 7 1 10 0;
#X connect 8 0 7 0;
#X connect 9 0 12 1;
#X connect 10 0 12 1;
#X connect 11 0 2 0;
#X connect 11 1 9 0;
#X connect 12 0 14 0;
#X connect 13 0 11 0;
#X connect 14 0 3 0;
#X connect 15 0 3 0;
#X connect 15 0 6 0;
#X coords 0 -1 1 1 85 20 2 100 100;
#X restore 265 349 pd totalcount;
#N canvas 35 335 450 300 delete 0;
#X obj 102 214 sendcanvas 1;
#X msg 102 191 delete \$1;
#X floatatom 129 123 5 0 0 0 - - -;
#X obj 266 143 bng 15 250 50 0 empty empty empty 17 7 0 10 -262144
-1 -1;
#X obj 286 140 canvasposition 1;
#X obj 286 117 r pos-wksp6;
#X obj 102 87 r \$0-w6.moduletodelete;
#X connect 1 0 0 0;
#X connect 3 0 4 0;
#X connect 5 0 4 0;
#X connect 6 0 1 0;
#X connect 6 0 2 0;
#X restore 177 350 pd delete;
#X obj 89 351 canvasdelete;
#X obj 9 350 switch~;
#X obj 851 311 utils.gui.showpatch workspace_6 edit;
#X obj 9 306 utils.gui.switch~ /sw6;
#X obj 823 357 import xth-sense-lib;
#X connect 6 0 4 0;
#X coords 0 -1 1 1 922 339 2 0 0;
