#N canvas 542 205 589 369 10;
#X declare -lib mrpeach;
#X declare -lib xth-sense-lib;
#X obj 906 5 tgl 15 1 empty empty empty 17 7 0 10 -262144 -1 -1 1 1
;
#X text 867 159 audio in;
#X obj 600 301 import mrpeach;
#N canvas 1018 325 141 250 vu 0;
#X obj 3 25 env~ 8192;
#X obj 4 105 vu 15 120 \$0-vuL empty 35 8 0 8 -66577 -1 1 0;
#X obj 3 50 - 100;
#X obj 3 77 spigot 1;
#X obj 3 4 inlet~;
#X obj 78 5 inlet;
#X connect 0 0 2 0;
#X connect 2 0 3 0;
#X connect 3 0 1 0;
#X connect 4 0 0 0;
#X connect 5 0 3 1;
#X coords 0 -1 1 1 46 130 2 0 100;
#X restore 867 27 pd vu;
#X obj 705 217 r GLOBAL_OSC;
#X obj 705 284 s \$0-cntrlOSC;
#X obj 770 143 r \$0-cntrlOSC;
#X obj 705 241 routeOSC /c:ntr:l;
#X obj 802 304 print ctrl_OSC;
#X obj 802 283 spigot;
#X obj 835 262 tgl 15 1 empty empty empty 17 7 0 10 -262144 -1 -1 0
1;
#X text 733 1 = input chan.;
#X obj 623 165 lib/dynamic_bpass_bank_r1;
#X obj 294 167 image /home/sad/00.Pd/projects/_Xth-Sense/dev/plugins/instrument-analysis/images/instrument-analysis.gif
;
#N canvas 251 253 1200 532 tune 0;
#X text 6 15 Note;
#X text 6 35 Freq;
#X text 24 59 Q;
#X text 11 83 Min;
#X obj 28 492 vsl 30 131 0 1 0 0 \$0-volumeA \$0-volumeA-r A.440 0
145 0 10 -257985 -1 -262144 0 0;
#X obj 28 449 tgl 30 0 \$0-hearA \$0-hearA-r MUTE 0 -10 1 10 -162280
-33289 -203904 0 1;
#X text 8 164 Freq;
#X text 25 189 Q;
#X text 8 144 Note;
#X text 12 213 Min;
#N canvas 346 226 368 378 oscA440 0;
#X obj 46 178 *~;
#X obj 46 153 osc~;
#X obj 150 271 line~;
#X msg 150 248 \$1 10;
#X obj 97 287 *~;
#X obj 46 287 *~;
#X obj 150 224 r \$0-volumeA;
#X obj 45 130 sig~;
#X obj 45 316 dac~ 1;
#X obj 96 316 dac~ 2;
#X floatatom 45 107 0 0 0 0 - - -;
#X msg 45 83 440;
#X obj 45 59 loadbang;
#X obj 105 150 line~;
#X msg 124 119 0 100;
#X msg 105 94 0.1 100;
#X obj 124 64 sel 0 1;
#X obj 124 38 r \$0-hearA;
#X obj 254 72 sel 0 1;
#X obj 254 46 r \$0-hearA;
#X msg 273 102 label HEAR;
#X msg 254 127 label MUTE;
#X obj 254 153 s \$0-hearA-r;
#X connect 0 0 5 0;
#X connect 0 0 4 0;
#X connect 1 0 0 0;
#X connect 2 0 4 1;
#X connect 2 0 5 1;
#X connect 3 0 2 0;
#X connect 4 0 9 0;
#X connect 5 0 8 0;
#X connect 6 0 3 0;
#X connect 7 0 1 0;
#X connect 10 0 7 0;
#X connect 11 0 10 0;
#X connect 12 0 11 0;
#X connect 13 0 0 1;
#X connect 14 0 13 0;
#X connect 15 0 13 0;
#X connect 16 0 14 0;
#X connect 16 1 15 0;
#X connect 17 0 16 0;
#X connect 18 0 21 0;
#X connect 18 1 20 0;
#X connect 19 0 18 0;
#X connect 20 0 22 0;
#X connect 21 0 22 0;
#X restore 12 356 pd oscA440;
#N canvas 524 385 513 285 tuner_bank 0;
#N canvas 0 0 450 300 tunerE1 0;
#X obj 2 2 cnv 15 26 16 empty empty empty 20 12 0 14 -233017 -66577
0;
#X text 5 2 E1;
#X floatatom 0 21 5 0 0 2 - - -;
#X floatatom 0 45 5 0 0 0 - - -;
#X floatatom 0 69 5 0 0 0 - - -;
#X obj 7 89 bng 20 250 50 0 empty empty empty 8 30 1 10 -191407 -1
-262144;
#X obj 58 0 r 1002-tunerOSC;
#X obj 58 21 routeOSC /E1;
#X obj 58 43 routeOSC /freq /q /min /level;
#X msg 58 67 set \$1;
#X msg 57 91 set \$1;
#X msg 57 115 set \$1;
#X msg 185 111 /c:ntr:l/filter/E1/freq \$1;
#X msg 195 141 /c:ntr:l/filter/E1/q \$1;
#X msg 205 171 /c:ntr:l/filter/E1/min \$1;
#X obj 188 212 s GLOBAL_OSC;
#X connect 2 0 12 0;
#X connect 3 0 13 0;
#X connect 4 0 14 0;
#X connect 6 0 7 0;
#X connect 7 0 8 0;
#X connect 8 0 9 0;
#X connect 8 1 10 0;
#X connect 8 2 11 0;
#X connect 8 3 5 0;
#X connect 9 0 2 0;
#X connect 10 0 3 0;
#X connect 11 0 4 0;
#X connect 12 0 15 0;
#X connect 13 0 15 0;
#X connect 14 0 15 0;
#X coords 0 -1 1 1 34 110 2 0 0;
#X restore 4 4 pd tunerE1;
#N canvas 0 0 450 300 tunerF1 0;
#X obj 2 2 cnv 15 26 16 empty empty empty 20 12 0 14 -233017 -66577
0;
#X text 5 2 F1;
#X floatatom 0 21 5 0 0 2 - - -;
#X floatatom 0 45 5 0 0 0 - - -;
#X floatatom 0 69 5 0 0 0 - - -;
#X obj 7 89 bng 20 250 50 0 empty empty empty 8 30 1 10 -258113 -1
-262144;
#X obj 58 0 r 1002-tunerOSC;
#X obj 58 21 routeOSC /F1;
#X obj 58 43 routeOSC /freq /q /min /level;
#X msg 58 67 set \$1;
#X msg 57 91 set \$1;
#X msg 57 115 set \$1;
#X msg 185 111 /c:ntr:l/filter/F1/freq \$1;
#X msg 195 141 /c:ntr:l/filter/F1/q \$1;
#X msg 205 171 /c:ntr:l/filter/F1/min \$1;
#X obj 188 212 s GLOBAL_OSC;
#X connect 2 0 12 0;
#X connect 3 0 13 0;
#X connect 4 0 14 0;
#X connect 6 0 7 0;
#X connect 7 0 8 0;
#X connect 8 0 9 0;
#X connect 8 1 10 0;
#X connect 8 2 11 0;
#X connect 8 3 5 0;
#X connect 9 0 2 0;
#X connect 10 0 3 0;
#X connect 11 0 4 0;
#X connect 12 0 15 0;
#X connect 13 0 15 0;
#X connect 14 0 15 0;
#X coords 0 -1 1 1 34 110 2 0 0;
#X restore 45 4 pd tunerF1;
#N canvas 0 0 450 300 tunerF#1 0;
#X obj 2 2 cnv 15 26 16 empty empty empty 20 12 0 14 -233017 -66577
0;
#X text 5 2 F#1;
#X floatatom 0 21 5 0 0 2 - - -;
#X floatatom 0 45 5 0 0 0 - - -;
#X floatatom 0 69 5 0 0 0 - - -;
#X obj 7 89 bng 20 250 50 0 empty empty empty 8 30 1 10 -261234 -1
-262144;
#X obj 58 0 r 1002-tunerOSC;
#X obj 58 21 routeOSC /F#1;
#X obj 58 43 routeOSC /freq /q /min /level;
#X msg 58 67 set \$1;
#X msg 57 91 set \$1;
#X msg 57 115 set \$1;
#X msg 185 111 /c:ntr:l/filter/F#1/freq \$1;
#X msg 195 141 /c:ntr:l/filter/F#1/q \$1;
#X msg 205 171 /c:ntr:l/filter/F#1/min \$1;
#X obj 188 212 s GLOBAL_OSC;
#X connect 2 0 12 0;
#X connect 3 0 13 0;
#X connect 4 0 14 0;
#X connect 6 0 7 0;
#X connect 7 0 8 0;
#X connect 8 0 9 0;
#X connect 8 1 10 0;
#X connect 8 2 11 0;
#X connect 8 3 5 0;
#X connect 9 0 2 0;
#X connect 10 0 3 0;
#X connect 11 0 4 0;
#X connect 12 0 15 0;
#X connect 13 0 15 0;
#X connect 14 0 15 0;
#X coords 0 -1 1 1 34 110 2 0 0;
#X restore 86 4 pd tunerF#1;
#N canvas 0 0 450 300 tunerG1 0;
#X obj 2 2 cnv 15 26 16 empty empty empty 20 12 0 14 -233017 -66577
0;
#X text 5 2 G1;
#X floatatom 0 21 5 0 0 2 - - -;
#X floatatom 0 45 5 0 0 0 - - -;
#X floatatom 0 69 5 0 0 0 - - -;
#X obj 7 89 bng 20 250 50 0 empty empty empty 8 30 1 10 -260097 -1
-262144;
#X obj 58 0 r 1002-tunerOSC;
#X obj 58 21 routeOSC /G1;
#X obj 58 43 routeOSC /freq /q /min /level;
#X msg 58 67 set \$1;
#X msg 57 91 set \$1;
#X msg 57 115 set \$1;
#X msg 185 111 /c:ntr:l/filter/G1/freq \$1;
#X msg 195 141 /c:ntr:l/filter/G1/q \$1;
#X msg 205 171 /c:ntr:l/filter/G1/min \$1;
#X obj 188 212 s GLOBAL_OSC;
#X connect 2 0 12 0;
#X connect 3 0 13 0;
#X connect 4 0 14 0;
#X connect 6 0 7 0;
#X connect 7 0 8 0;
#X connect 8 0 9 0;
#X connect 8 1 10 0;
#X connect 8 2 11 0;
#X connect 8 3 5 0;
#X connect 9 0 2 0;
#X connect 10 0 3 0;
#X connect 11 0 4 0;
#X connect 12 0 15 0;
#X connect 13 0 15 0;
#X connect 14 0 15 0;
#X coords 0 -1 1 1 34 110 2 0 0;
#X restore 127 4 pd tunerG1;
#N canvas 0 0 450 300 tunerG#1 0;
#X obj 2 2 cnv 15 26 16 empty empty empty 20 12 0 14 -233017 -66577
0;
#X text 5 2 G#1;
#X floatatom 0 21 5 0 0 2 - - -;
#X floatatom 0 45 5 0 0 0 - - -;
#X floatatom 0 69 5 0 0 0 - - -;
#X obj 7 89 bng 20 250 50 0 empty empty empty 8 30 1 10 -261682 -1
-262144;
#X obj 58 0 r 1002-tunerOSC;
#X obj 58 21 routeOSC /G#1;
#X obj 58 43 routeOSC /freq /q /min /level;
#X msg 58 67 set \$1;
#X msg 57 91 set \$1;
#X msg 57 115 set \$1;
#X msg 185 111 /c:ntr:l/filter/G#1/freq \$1;
#X msg 195 141 /c:ntr:l/filter/G#1/q \$1;
#X msg 205 171 /c:ntr:l/filter/G#1/min \$1;
#X obj 188 212 s GLOBAL_OSC;
#X connect 2 0 12 0;
#X connect 3 0 13 0;
#X connect 4 0 14 0;
#X connect 6 0 7 0;
#X connect 7 0 8 0;
#X connect 8 0 9 0;
#X connect 8 1 10 0;
#X connect 8 2 11 0;
#X connect 8 3 5 0;
#X connect 9 0 2 0;
#X connect 10 0 3 0;
#X connect 11 0 4 0;
#X connect 12 0 15 0;
#X connect 13 0 15 0;
#X connect 14 0 15 0;
#X coords 0 -1 1 1 34 110 2 0 0;
#X restore 168 4 pd tunerG#1;
#N canvas 0 0 450 300 tunerA1 0;
#X obj 2 2 cnv 15 26 16 empty empty empty 20 12 0 14 -233017 -66577
0;
#X text 5 2 A1;
#X floatatom 0 21 5 0 0 2 - - -;
#X floatatom 0 45 5 0 0 0 - - -;
#X floatatom 0 69 5 0 0 0 - - -;
#X obj 7 89 bng 20 250 50 0 empty empty empty 8 30 1 10 -257985 -1
-262144;
#X obj 58 0 r 1002-tunerOSC;
#X obj 58 21 routeOSC /A1;
#X obj 58 43 routeOSC /freq /q /min /level;
#X msg 58 67 set \$1;
#X msg 57 91 set \$1;
#X msg 57 115 set \$1;
#X msg 185 111 /c:ntr:l/filter/A1/freq \$1;
#X msg 195 141 /c:ntr:l/filter/A1/q \$1;
#X msg 205 171 /c:ntr:l/filter/A1/min \$1;
#X obj 188 212 s GLOBAL_OSC;
#X connect 2 0 12 0;
#X connect 3 0 13 0;
#X connect 4 0 14 0;
#X connect 6 0 7 0;
#X connect 7 0 8 0;
#X connect 8 0 9 0;
#X connect 8 1 10 0;
#X connect 8 2 11 0;
#X connect 8 3 5 0;
#X connect 9 0 2 0;
#X connect 10 0 3 0;
#X connect 11 0 4 0;
#X connect 12 0 15 0;
#X connect 13 0 15 0;
#X connect 14 0 15 0;
#X coords 0 -1 1 1 34 110 2 0 0;
#X restore 209 4 pd tunerA1;
#N canvas 0 0 450 300 tunerA#1 0;
#X obj 2 2 cnv 15 26 16 empty empty empty 20 12 0 14 -233017 -66577
0;
#X text 5 2 A#1;
#X floatatom 0 21 5 0 0 2 - - -;
#X floatatom 0 45 5 0 0 0 - - -;
#X floatatom 0 69 5 0 0 0 - - -;
#X obj 7 89 bng 20 250 50 0 empty empty empty 8 30 1 10 -262130 -1
-262144;
#X obj 58 0 r 1002-tunerOSC;
#X obj 58 21 routeOSC /A#1;
#X obj 58 43 routeOSC /freq /q /min /level;
#X msg 58 67 set \$1;
#X msg 57 91 set \$1;
#X msg 57 115 set \$1;
#X msg 185 111 /c:ntr:l/filter/A#1/freq \$1;
#X msg 195 141 /c:ntr:l/filter/A#1/q \$1;
#X msg 205 171 /c:ntr:l/filter/A#1/min \$1;
#X obj 188 212 s GLOBAL_OSC;
#X connect 2 0 12 0;
#X connect 3 0 13 0;
#X connect 4 0 14 0;
#X connect 6 0 7 0;
#X connect 7 0 8 0;
#X connect 8 0 9 0;
#X connect 8 1 10 0;
#X connect 8 2 11 0;
#X connect 8 3 5 0;
#X connect 9 0 2 0;
#X connect 10 0 3 0;
#X connect 11 0 4 0;
#X connect 12 0 15 0;
#X connect 13 0 15 0;
#X connect 14 0 15 0;
#X coords 0 -1 1 1 34 110 2 0 0;
#X restore 250 4 pd tunerA#1;
#N canvas 0 0 450 300 tunerB1 0;
#X obj 2 2 cnv 15 26 16 empty empty empty 20 12 0 14 -233017 -66577
0;
#X text 5 2 B1;
#X floatatom 0 21 5 0 0 2 - - -;
#X floatatom 0 45 5 0 0 0 - - -;
#X floatatom 0 69 5 0 0 0 - - -;
#X obj 7 89 bng 20 250 50 0 empty empty empty 8 30 1 10 -4034 -1 -262144
;
#X obj 58 0 r 1002-tunerOSC;
#X obj 58 21 routeOSC /B1;
#X obj 58 43 routeOSC /freq /q /min /level;
#X msg 58 67 set \$1;
#X msg 57 91 set \$1;
#X msg 57 115 set \$1;
#X msg 185 111 /c:ntr:l/filter/B1/freq \$1;
#X msg 195 141 /c:ntr:l/filter/B1/q \$1;
#X msg 205 171 /c:ntr:l/filter/B1/min \$1;
#X obj 188 212 s GLOBAL_OSC;
#X connect 2 0 12 0;
#X connect 3 0 13 0;
#X connect 4 0 14 0;
#X connect 6 0 7 0;
#X connect 7 0 8 0;
#X connect 8 0 9 0;
#X connect 8 1 10 0;
#X connect 8 2 11 0;
#X connect 8 3 5 0;
#X connect 9 0 2 0;
#X connect 10 0 3 0;
#X connect 11 0 4 0;
#X connect 12 0 15 0;
#X connect 13 0 15 0;
#X connect 14 0 15 0;
#X coords 0 -1 1 1 34 110 2 0 0;
#X restore 291 4 pd tunerB1;
#N canvas 0 0 450 300 tunerC2 0;
#X obj 2 2 cnv 15 26 16 empty empty empty 20 12 0 14 -233017 -66577
0;
#X text 5 2 C2;
#X floatatom 0 21 5 0 0 2 - - -;
#X floatatom 0 45 5 0 0 0 - - -;
#X floatatom 0 69 5 0 0 0 - - -;
#X obj 7 89 bng 20 250 50 0 empty empty empty 8 30 1 10 -4032 -1 -262144
;
#X obj 58 0 r 1002-tunerOSC;
#X obj 58 21 routeOSC /C2;
#X obj 58 43 routeOSC /freq /q /min /level;
#X msg 58 67 set \$1;
#X msg 57 91 set \$1;
#X msg 57 115 set \$1;
#X msg 185 111 /c:ntr:l/filter/C2/freq \$1;
#X msg 195 141 /c:ntr:l/filter/C2/q \$1;
#X msg 205 171 /c:ntr:l/filter/C2/min \$1;
#X obj 188 212 s GLOBAL_OSC;
#X connect 2 0 12 0;
#X connect 3 0 13 0;
#X connect 4 0 14 0;
#X connect 6 0 7 0;
#X connect 7 0 8 0;
#X connect 8 0 9 0;
#X connect 8 1 10 0;
#X connect 8 2 11 0;
#X connect 8 3 5 0;
#X connect 9 0 2 0;
#X connect 10 0 3 0;
#X connect 11 0 4 0;
#X connect 12 0 15 0;
#X connect 13 0 15 0;
#X connect 14 0 15 0;
#X coords 0 -1 1 1 34 110 2 0 0;
#X restore 332 4 pd tunerC2;
#N canvas 0 0 450 300 tunerC#2 0;
#X obj 2 2 cnv 15 26 16 empty empty empty 20 12 0 14 -233017 -66577
0;
#X text 5 2 C#2;
#X floatatom 0 21 5 0 0 2 - - -;
#X floatatom 0 45 5 0 0 0 - - -;
#X floatatom 0 69 5 0 0 0 - - -;
#X obj 7 89 bng 20 250 50 0 empty empty empty 8 30 1 10 -204786 -1
-262144;
#X obj 58 0 r 1002-tunerOSC;
#X obj 58 21 routeOSC /C#2;
#X obj 58 43 routeOSC /freq /q /min /level;
#X msg 58 67 set \$1;
#X msg 57 91 set \$1;
#X msg 57 115 set \$1;
#X msg 185 111 /c:ntr:l/filter/C#2/freq \$1;
#X msg 195 141 /c:ntr:l/filter/C#2/q \$1;
#X msg 205 171 /c:ntr:l/filter/C#2/min \$1;
#X obj 188 212 s GLOBAL_OSC;
#X connect 2 0 12 0;
#X connect 3 0 13 0;
#X connect 4 0 14 0;
#X connect 6 0 7 0;
#X connect 7 0 8 0;
#X connect 8 0 9 0;
#X connect 8 1 10 0;
#X connect 8 2 11 0;
#X connect 8 3 5 0;
#X connect 9 0 2 0;
#X connect 10 0 3 0;
#X connect 11 0 4 0;
#X connect 12 0 15 0;
#X connect 13 0 15 0;
#X connect 14 0 15 0;
#X coords 0 -1 1 1 34 110 2 0 0;
#X restore 373 4 pd tunerC#2;
#N canvas 0 0 450 300 tunerD2 0;
#X obj 2 2 cnv 15 26 16 empty empty empty 20 12 0 14 -233017 -66577
0;
#X text 5 2 D2;
#X floatatom 0 21 5 0 0 2 - - -;
#X floatatom 0 45 5 0 0 0 - - -;
#X floatatom 0 69 5 0 0 0 - - -;
#X obj 7 89 bng 20 250 50 0 empty empty empty 8 30 1 10 -159808 -1
-262144;
#X obj 58 0 r 1002-tunerOSC;
#X obj 58 21 routeOSC /D2;
#X obj 58 43 routeOSC /freq /q /min /level;
#X msg 58 67 set \$1;
#X msg 57 91 set \$1;
#X msg 57 115 set \$1;
#X msg 185 111 /c:ntr:l/filter/D2/freq \$1;
#X msg 195 141 /c:ntr:l/filter/D2/q \$1;
#X msg 205 171 /c:ntr:l/filter/D2/min \$1;
#X obj 188 212 s GLOBAL_OSC;
#X connect 2 0 12 0;
#X connect 3 0 13 0;
#X connect 4 0 14 0;
#X connect 6 0 7 0;
#X connect 7 0 8 0;
#X connect 8 0 9 0;
#X connect 8 1 10 0;
#X connect 8 2 11 0;
#X connect 8 3 5 0;
#X connect 9 0 2 0;
#X connect 10 0 3 0;
#X connect 11 0 4 0;
#X connect 12 0 15 0;
#X connect 13 0 15 0;
#X connect 14 0 15 0;
#X coords 0 -1 1 1 34 110 2 0 0;
#X restore 414 4 pd tunerD2;
#N canvas 0 0 450 300 tunerD#2 0;
#X obj 2 2 cnv 15 26 16 empty empty empty 20 12 0 14 -233017 -66577
0;
#X text 5 2 D#2;
#X floatatom 0 21 5 0 0 2 - - -;
#X floatatom 0 45 5 0 0 0 - - -;
#X floatatom 0 69 5 0 0 0 - - -;
#X obj 7 89 bng 20 250 50 0 empty empty empty 8 30 1 10 -232576 -1
-262144;
#X obj 58 0 r 1002-tunerOSC;
#X obj 58 21 routeOSC /D#2;
#X obj 58 43 routeOSC /freq /q /min /level;
#X msg 58 67 set \$1;
#X msg 57 91 set \$1;
#X msg 57 115 set \$1;
#X msg 185 111 /c:ntr:l/filter/D#2/freq \$1;
#X msg 195 141 /c:ntr:l/filter/D#2/q \$1;
#X msg 205 171 /c:ntr:l/filter/D#2/min \$1;
#X obj 188 212 s GLOBAL_OSC;
#X connect 2 0 12 0;
#X connect 3 0 13 0;
#X connect 4 0 14 0;
#X connect 6 0 7 0;
#X connect 7 0 8 0;
#X connect 8 0 9 0;
#X connect 8 1 10 0;
#X connect 8 2 11 0;
#X connect 8 3 5 0;
#X connect 9 0 2 0;
#X connect 10 0 3 0;
#X connect 11 0 4 0;
#X connect 12 0 15 0;
#X connect 13 0 15 0;
#X connect 14 0 15 0;
#X coords 0 -1 1 1 34 110 2 0 0;
#X restore 455 4 pd tunerD#2;
#N canvas 0 0 450 300 tunerE3 0;
#X obj 2 2 cnv 15 26 16 empty empty empty 20 12 0 14 -233017 -66577
0;
#X text 5 2 E3;
#X floatatom 0 21 5 0 0 2 - - -;
#X floatatom 0 45 5 0 0 0 - - -;
#X floatatom 0 69 5 0 0 0 - - -;
#X obj 7 89 bng 20 250 50 0 empty empty empty 8 30 1 10 -191407 -1
-262144;
#X obj 58 0 r 1002-tunerOSC;
#X obj 58 21 routeOSC /E3;
#X obj 58 43 routeOSC /freq /q /min /level;
#X msg 58 67 set \$1;
#X msg 57 91 set \$1;
#X msg 57 115 set \$1;
#X msg 185 111 /c:ntr:l/filter/E3/freq \$1;
#X msg 195 141 /c:ntr:l/filter/E3/q \$1;
#X msg 205 171 /c:ntr:l/filter/E3/min \$1;
#X obj 188 212 s GLOBAL_OSC;
#X connect 2 0 12 0;
#X connect 3 0 13 0;
#X connect 4 0 14 0;
#X connect 6 0 7 0;
#X connect 7 0 8 0;
#X connect 8 0 9 0;
#X connect 8 1 10 0;
#X connect 8 2 11 0;
#X connect 8 3 5 0;
#X connect 9 0 2 0;
#X connect 10 0 3 0;
#X connect 11 0 4 0;
#X connect 12 0 15 0;
#X connect 13 0 15 0;
#X connect 14 0 15 0;
#X coords 0 -1 1 1 34 110 2 0 0;
#X restore 4 134 pd tunerE3;
#N canvas 0 0 450 300 tunerF3 0;
#X obj 2 2 cnv 15 26 16 empty empty empty 20 12 0 14 -233017 -66577
0;
#X text 5 2 F3;
#X floatatom 0 21 5 0 0 2 - - -;
#X floatatom 0 45 5 0 0 0 - - -;
#X floatatom 0 69 5 0 0 0 - - -;
#X obj 7 89 bng 20 250 50 0 empty empty empty 8 30 1 10 -258113 -1
-262144;
#X obj 58 0 r 1002-tunerOSC;
#X obj 58 21 routeOSC /F3;
#X obj 58 43 routeOSC /freq /q /min /level;
#X msg 58 67 set \$1;
#X msg 57 91 set \$1;
#X msg 57 115 set \$1;
#X msg 185 111 /c:ntr:l/filter/F3/freq \$1;
#X msg 195 141 /c:ntr:l/filter/F3/q \$1;
#X msg 205 171 /c:ntr:l/filter/F3/min \$1;
#X obj 188 212 s GLOBAL_OSC;
#X connect 2 0 12 0;
#X connect 3 0 13 0;
#X connect 4 0 14 0;
#X connect 6 0 7 0;
#X connect 7 0 8 0;
#X connect 8 0 9 0;
#X connect 8 1 10 0;
#X connect 8 2 11 0;
#X connect 8 3 5 0;
#X connect 9 0 2 0;
#X connect 10 0 3 0;
#X connect 11 0 4 0;
#X connect 12 0 15 0;
#X connect 13 0 15 0;
#X connect 14 0 15 0;
#X coords 0 -1 1 1 34 110 2 0 0;
#X restore 45 134 pd tunerF3;
#N canvas 0 0 450 300 tunerF#3 0;
#X obj 2 2 cnv 15 26 16 empty empty empty 20 12 0 14 -233017 -66577
0;
#X text 5 2 F#3;
#X floatatom 0 21 5 0 0 2 - - -;
#X floatatom 0 45 5 0 0 0 - - -;
#X floatatom 0 69 5 0 0 0 - - -;
#X obj 7 89 bng 20 250 50 0 empty empty empty 8 30 1 10 -261234 -1
-262144;
#X obj 58 0 r 1002-tunerOSC;
#X obj 58 21 routeOSC /F#3;
#X obj 58 43 routeOSC /freq /q /min /level;
#X msg 58 67 set \$1;
#X msg 57 91 set \$1;
#X msg 57 115 set \$1;
#X msg 185 111 /c:ntr:l/filter/F#3/freq \$1;
#X msg 195 141 /c:ntr:l/filter/F#3/q \$1;
#X msg 205 171 /c:ntr:l/filter/F#3/min \$1;
#X obj 188 212 s GLOBAL_OSC;
#X connect 2 0 12 0;
#X connect 3 0 13 0;
#X connect 4 0 14 0;
#X connect 6 0 7 0;
#X connect 7 0 8 0;
#X connect 8 0 9 0;
#X connect 8 1 10 0;
#X connect 8 2 11 0;
#X connect 8 3 5 0;
#X connect 9 0 2 0;
#X connect 10 0 3 0;
#X connect 11 0 4 0;
#X connect 12 0 15 0;
#X connect 13 0 15 0;
#X connect 14 0 15 0;
#X coords 0 -1 1 1 34 110 2 0 0;
#X restore 86 134 pd tunerF#3;
#N canvas 0 0 450 300 tunerG3 0;
#X obj 2 2 cnv 15 26 16 empty empty empty 20 12 0 14 -233017 -66577
0;
#X text 5 2 G3;
#X floatatom 0 21 5 0 0 2 - - -;
#X floatatom 0 45 5 0 0 0 - - -;
#X floatatom 0 69 5 0 0 0 - - -;
#X obj 7 89 bng 20 250 50 0 empty empty empty 8 30 1 10 -260097 -1
-262144;
#X obj 58 0 r 1002-tunerOSC;
#X obj 58 21 routeOSC /G3;
#X obj 58 43 routeOSC /freq /q /min /level;
#X msg 58 67 set \$1;
#X msg 57 91 set \$1;
#X msg 57 115 set \$1;
#X msg 185 111 /c:ntr:l/filter/G3/freq \$1;
#X msg 195 141 /c:ntr:l/filter/G3/q \$1;
#X msg 205 171 /c:ntr:l/filter/G3/min \$1;
#X obj 188 212 s GLOBAL_OSC;
#X connect 2 0 12 0;
#X connect 3 0 13 0;
#X connect 4 0 14 0;
#X connect 6 0 7 0;
#X connect 7 0 8 0;
#X connect 8 0 9 0;
#X connect 8 1 10 0;
#X connect 8 2 11 0;
#X connect 8 3 5 0;
#X connect 9 0 2 0;
#X connect 10 0 3 0;
#X connect 11 0 4 0;
#X connect 12 0 15 0;
#X connect 13 0 15 0;
#X connect 14 0 15 0;
#X coords 0 -1 1 1 34 110 2 0 0;
#X restore 127 134 pd tunerG3;
#N canvas 0 0 450 300 tunerG#3 0;
#X obj 2 2 cnv 15 26 16 empty empty empty 20 12 0 14 -233017 -66577
0;
#X text 5 2 G#3;
#X floatatom 0 21 5 0 0 2 - - -;
#X floatatom 0 45 5 0 0 0 - - -;
#X floatatom 0 69 5 0 0 0 - - -;
#X obj 7 89 bng 20 250 50 0 empty empty empty 8 30 1 10 -261682 -1
-262144;
#X obj 58 0 r 1002-tunerOSC;
#X obj 58 21 routeOSC /G#3;
#X obj 58 43 routeOSC /freq /q /min /level;
#X msg 58 67 set \$1;
#X msg 57 91 set \$1;
#X msg 57 115 set \$1;
#X msg 185 111 /c:ntr:l/filter/G#3/freq \$1;
#X msg 195 141 /c:ntr:l/filter/G#3/q \$1;
#X msg 205 171 /c:ntr:l/filter/G#3/min \$1;
#X obj 188 212 s GLOBAL_OSC;
#X connect 2 0 12 0;
#X connect 3 0 13 0;
#X connect 4 0 14 0;
#X connect 6 0 7 0;
#X connect 7 0 8 0;
#X connect 8 0 9 0;
#X connect 8 1 10 0;
#X connect 8 2 11 0;
#X connect 8 3 5 0;
#X connect 9 0 2 0;
#X connect 10 0 3 0;
#X connect 11 0 4 0;
#X connect 12 0 15 0;
#X connect 13 0 15 0;
#X connect 14 0 15 0;
#X coords 0 -1 1 1 34 110 2 0 0;
#X restore 168 134 pd tunerG#3;
#N canvas 0 0 450 300 tunerA3 0;
#X obj 2 2 cnv 15 26 16 empty empty empty 20 12 0 14 -233017 -66577
0;
#X text 5 2 A3;
#X floatatom 0 21 5 0 0 2 - - -;
#X floatatom 0 45 5 0 0 0 - - -;
#X floatatom 0 69 5 0 0 0 - - -;
#X obj 7 89 bng 20 250 50 0 empty empty empty 8 30 1 10 -257985 -1
-262144;
#X obj 58 0 r 1002-tunerOSC;
#X obj 58 21 routeOSC /A3;
#X obj 58 43 routeOSC /freq /q /min /level;
#X msg 58 67 set \$1;
#X msg 57 91 set \$1;
#X msg 57 115 set \$1;
#X msg 185 111 /c:ntr:l/filter/A3/freq \$1;
#X msg 195 141 /c:ntr:l/filter/A3/q \$1;
#X msg 205 171 /c:ntr:l/filter/A3/min \$1;
#X obj 188 212 s GLOBAL_OSC;
#X connect 2 0 12 0;
#X connect 3 0 13 0;
#X connect 4 0 14 0;
#X connect 6 0 7 0;
#X connect 7 0 8 0;
#X connect 8 0 9 0;
#X connect 8 1 10 0;
#X connect 8 2 11 0;
#X connect 8 3 5 0;
#X connect 9 0 2 0;
#X connect 10 0 3 0;
#X connect 11 0 4 0;
#X connect 12 0 15 0;
#X connect 13 0 15 0;
#X connect 14 0 15 0;
#X coords 0 -1 1 1 34 110 2 0 0;
#X restore 209 134 pd tunerA3;
#N canvas 0 0 450 300 tunerA#3 0;
#X obj 2 2 cnv 15 26 16 empty empty empty 20 12 0 14 -233017 -66577
0;
#X text 5 2 A#3;
#X floatatom 0 21 5 0 0 2 - - -;
#X floatatom 0 45 5 0 0 0 - - -;
#X floatatom 0 69 5 0 0 0 - - -;
#X obj 7 89 bng 20 250 50 0 empty empty empty 8 30 1 10 -262130 -1
-262144;
#X obj 58 0 r 1002-tunerOSC;
#X obj 58 21 routeOSC /A#3;
#X obj 58 43 routeOSC /freq /q /min /level;
#X msg 58 67 set \$1;
#X msg 57 91 set \$1;
#X msg 57 115 set \$1;
#X msg 185 111 /c:ntr:l/filter/A#3/freq \$1;
#X msg 195 141 /c:ntr:l/filter/A#3/q \$1;
#X msg 205 171 /c:ntr:l/filter/A#3/min \$1;
#X obj 188 212 s GLOBAL_OSC;
#X connect 2 0 12 0;
#X connect 3 0 13 0;
#X connect 4 0 14 0;
#X connect 6 0 7 0;
#X connect 7 0 8 0;
#X connect 8 0 9 0;
#X connect 8 1 10 0;
#X connect 8 2 11 0;
#X connect 8 3 5 0;
#X connect 9 0 2 0;
#X connect 10 0 3 0;
#X connect 11 0 4 0;
#X connect 12 0 15 0;
#X connect 13 0 15 0;
#X connect 14 0 15 0;
#X coords 0 -1 1 1 34 110 2 0 0;
#X restore 250 134 pd tunerA#3;
#N canvas 0 0 450 300 tunerB3 0;
#X obj 2 2 cnv 15 26 16 empty empty empty 20 12 0 14 -233017 -66577
0;
#X text 5 2 B3;
#X floatatom 0 21 5 0 0 2 - - -;
#X floatatom 0 45 5 0 0 0 - - -;
#X floatatom 0 69 5 0 0 0 - - -;
#X obj 7 89 bng 20 250 50 0 empty empty empty 8 30 1 10 -4034 -1 -262144
;
#X obj 58 0 r 1002-tunerOSC;
#X obj 58 21 routeOSC /B3;
#X obj 58 43 routeOSC /freq /q /min /level;
#X msg 58 67 set \$1;
#X msg 57 91 set \$1;
#X msg 57 115 set \$1;
#X msg 185 111 /c:ntr:l/filter/B3/freq \$1;
#X msg 195 141 /c:ntr:l/filter/B3/q \$1;
#X msg 205 171 /c:ntr:l/filter/B3/min \$1;
#X obj 188 212 s GLOBAL_OSC;
#X connect 2 0 12 0;
#X connect 3 0 13 0;
#X connect 4 0 14 0;
#X connect 6 0 7 0;
#X connect 7 0 8 0;
#X connect 8 0 9 0;
#X connect 8 1 10 0;
#X connect 8 2 11 0;
#X connect 8 3 5 0;
#X connect 9 0 2 0;
#X connect 10 0 3 0;
#X connect 11 0 4 0;
#X connect 12 0 15 0;
#X connect 13 0 15 0;
#X connect 14 0 15 0;
#X coords 0 -1 1 1 34 110 2 0 0;
#X restore 291 134 pd tunerB3;
#N canvas 0 0 450 300 tunerC4 0;
#X obj 2 2 cnv 15 26 16 empty empty empty 20 12 0 14 -233017 -66577
0;
#X text 5 2 C4;
#X floatatom 0 21 5 0 0 2 - - -;
#X floatatom 0 45 5 0 0 0 - - -;
#X floatatom 0 69 5 0 0 0 - - -;
#X obj 7 89 bng 20 250 50 0 empty empty empty 8 30 1 10 -4032 -1 -262144
;
#X obj 58 0 r 1002-tunerOSC;
#X obj 58 21 routeOSC /C4;
#X obj 58 43 routeOSC /freq /q /min /level;
#X msg 58 67 set \$1;
#X msg 57 91 set \$1;
#X msg 57 115 set \$1;
#X msg 185 111 /c:ntr:l/filter/C4/freq \$1;
#X msg 195 141 /c:ntr:l/filter/C4/q \$1;
#X msg 205 171 /c:ntr:l/filter/C4/min \$1;
#X obj 188 212 s GLOBAL_OSC;
#X connect 2 0 12 0;
#X connect 3 0 13 0;
#X connect 4 0 14 0;
#X connect 6 0 7 0;
#X connect 7 0 8 0;
#X connect 8 0 9 0;
#X connect 8 1 10 0;
#X connect 8 2 11 0;
#X connect 8 3 5 0;
#X connect 9 0 2 0;
#X connect 10 0 3 0;
#X connect 11 0 4 0;
#X connect 12 0 15 0;
#X connect 13 0 15 0;
#X connect 14 0 15 0;
#X coords 0 -1 1 1 34 110 2 0 0;
#X restore 332 134 pd tunerC4;
#N canvas 0 0 450 300 tunerC#4 0;
#X obj 2 2 cnv 15 26 16 empty empty empty 20 12 0 14 -233017 -66577
0;
#X text 5 2 C#4;
#X floatatom 0 21 5 0 0 2 - - -;
#X floatatom 0 45 5 0 0 0 - - -;
#X floatatom 0 69 5 0 0 0 - - -;
#X obj 7 89 bng 20 250 50 0 empty empty empty 8 30 1 10 -204786 -1
-262144;
#X obj 58 0 r 1002-tunerOSC;
#X obj 58 21 routeOSC /C#4;
#X obj 58 43 routeOSC /freq /q /min /level;
#X msg 58 67 set \$1;
#X msg 57 91 set \$1;
#X msg 57 115 set \$1;
#X msg 185 111 /c:ntr:l/filter/C#4/freq \$1;
#X msg 195 141 /c:ntr:l/filter/C#4/q \$1;
#X msg 205 171 /c:ntr:l/filter/C#4/min \$1;
#X obj 188 212 s GLOBAL_OSC;
#X connect 2 0 12 0;
#X connect 3 0 13 0;
#X connect 4 0 14 0;
#X connect 6 0 7 0;
#X connect 7 0 8 0;
#X connect 8 0 9 0;
#X connect 8 1 10 0;
#X connect 8 2 11 0;
#X connect 8 3 5 0;
#X connect 9 0 2 0;
#X connect 10 0 3 0;
#X connect 11 0 4 0;
#X connect 12 0 15 0;
#X connect 13 0 15 0;
#X connect 14 0 15 0;
#X coords 0 -1 1 1 34 110 2 0 0;
#X restore 373 134 pd tunerC#4;
#N canvas 0 0 450 300 tunerD4 0;
#X obj 2 2 cnv 15 26 16 empty empty empty 20 12 0 14 -233017 -66577
0;
#X text 5 2 D4;
#X floatatom 0 21 5 0 0 2 - - -;
#X floatatom 0 45 5 0 0 0 - - -;
#X floatatom 0 69 5 0 0 0 - - -;
#X obj 7 89 bng 20 250 50 0 empty empty empty 8 30 1 10 -159808 -1
-262144;
#X obj 58 0 r 1002-tunerOSC;
#X obj 58 21 routeOSC /D4;
#X obj 58 43 routeOSC /freq /q /min /level;
#X msg 58 67 set \$1;
#X msg 57 91 set \$1;
#X msg 57 115 set \$1;
#X msg 185 111 /c:ntr:l/filter/D4/freq \$1;
#X msg 195 141 /c:ntr:l/filter/D4/q \$1;
#X msg 205 171 /c:ntr:l/filter/D4/min \$1;
#X obj 188 212 s GLOBAL_OSC;
#X connect 2 0 12 0;
#X connect 3 0 13 0;
#X connect 4 0 14 0;
#X connect 6 0 7 0;
#X connect 7 0 8 0;
#X connect 8 0 9 0;
#X connect 8 1 10 0;
#X connect 8 2 11 0;
#X connect 8 3 5 0;
#X connect 9 0 2 0;
#X connect 10 0 3 0;
#X connect 11 0 4 0;
#X connect 12 0 15 0;
#X connect 13 0 15 0;
#X connect 14 0 15 0;
#X coords 0 -1 1 1 34 110 2 0 0;
#X restore 414 134 pd tunerD4;
#N canvas 0 0 450 300 tunerD#4 0;
#X obj 2 2 cnv 15 26 16 empty empty empty 20 12 0 14 -233017 -66577
0;
#X text 5 2 D#4;
#X floatatom 0 21 5 0 0 2 - - -;
#X floatatom 0 45 5 0 0 0 - - -;
#X floatatom 0 69 5 0 0 0 - - -;
#X obj 7 89 bng 20 250 50 0 empty empty empty 8 30 1 10 -232576 -1
-262144;
#X obj 58 0 r 1002-tunerOSC;
#X obj 58 21 routeOSC /D#4;
#X obj 58 43 routeOSC /freq /q /min /level;
#X msg 58 67 set \$1;
#X msg 57 91 set \$1;
#X msg 57 115 set \$1;
#X msg 185 111 /c:ntr:l/filter/D#4/freq \$1;
#X msg 195 141 /c:ntr:l/filter/D#4/q \$1;
#X msg 205 171 /c:ntr:l/filter/D#4/min \$1;
#X obj 188 212 s GLOBAL_OSC;
#X connect 2 0 12 0;
#X connect 3 0 13 0;
#X connect 4 0 14 0;
#X connect 6 0 7 0;
#X connect 7 0 8 0;
#X connect 8 0 9 0;
#X connect 8 1 10 0;
#X connect 8 2 11 0;
#X connect 8 3 5 0;
#X connect 9 0 2 0;
#X connect 10 0 3 0;
#X connect 11 0 4 0;
#X connect 12 0 15 0;
#X connect 13 0 15 0;
#X connect 14 0 15 0;
#X coords 0 -1 1 1 34 110 2 0 0;
#X restore 455 134 pd tunerD#4;
#X coords 0 -1 1 1 490 260 2 0 0;
#X restore 37 11 pd tuner_bank;
#X obj 614 272 t b a b;
#X text 661 245 (creates new tuner);
#X obj 633 332 symbol;
#X obj 835 5 r \$0-tuParms;
#X obj 615 493 s \$0-tuParms;
#X obj 614 245 symbol;
#X msg 689 157 \; pd-tuner_bank clear \;;
#X obj 614 84 routeOSC /create_tuner;
#N canvas 6 47 237 141 countup 0;
#X obj 18 25 inlet;
#X obj 74 25 inlet;
#X text 114 24 reset to zero;
#X obj 18 71 f 0;
#X obj 48 72 + 1;
#X msg 48 50 0;
#X text 18 5 bump;
#X obj 18 105 outlet;
#X connect 0 0 3 0;
#X connect 1 0 5 0;
#X connect 3 0 4 0;
#X connect 3 0 7 0;
#X connect 4 0 3 1;
#X connect 5 0 3 1;
#X restore 640 198 pd countup;
#X obj 614 132 t b b;
#X obj 640 220 s \$0-bin;
#X obj 670 380 r \$0-bin;
#N canvas 132 397 405 220 layout_tuner 0;
#X obj 14 14 inlet;
#X obj 15 162 outlet;
#X text 54 13 bin #;
#X obj 199 70 div 12;
#X obj 14 37 t f f;
#X text 243 71 row;
#X text 61 67 column;
#X text 61 160 x position;
#X obj 199 162 outlet;
#X text 248 160 y position;
#X text 236 94 tuner vert. seperation;
#X text 45 92 tuner horiz. seperation;
#X obj 15 68 mod 12;
#X obj 199 95 * 130;
#X obj 15 116 + 4;
#X obj 199 118 + 4;
#X obj 15 93 * 41;
#X connect 0 0 4 0;
#X connect 3 0 13 0;
#X connect 4 0 3 0;
#X connect 4 1 12 0;
#X connect 12 0 16 0;
#X connect 13 0 15 0;
#X connect 14 0 1 0;
#X connect 15 0 8 0;
#X connect 16 0 14 0;
#X restore 670 404 pd layout_tuner;
#X obj 614 11 r \$0-cntrlOSC;
#X obj 614 110 routeOSC /clearall /name /color;
#X obj 736 133 s \$0-color;
#X obj 652 356 r \$0-color;
#X text 676 332 label;
#X text 496 370 \$1 - subpatch name;
#X text 496 381 \$2 - note label;
#X text 496 392 \$3 - color;
#X text 496 403 \$4 - x pos;
#X text 496 414 \$5 - y pos;
#X msg 724 310 36;
#X obj 724 331 makefilename %c1;
#X text 748 310 '$';
#X text 496 425 \$6 - '\$1';
#X obj 614 175 t a b;
#X obj 614 310 symbol tuner;
#X obj 614 34 routeOSC /filter;
#X obj 699 59 s \$0-tunerOSC;
#X obj 615 467 pack s s f f f s \$0;
#X text 496 435 \$7 - '\$0' value;
#N canvas 63 114 857 634 newSet 0;
#X obj 71 2 bng 15 250 50 0 empty empty empty 17 7 0 10 -262144 -1
-1;
#X obj 6 388 textfile;
#X obj 6 362 until;
#X msg 6 339 100;
#X obj 6 318 t b a;
#X obj 6 170 openpanel;
#X obj 6 296 symbol;
#X text 351 233 label freq q min color;
#X obj 343 252 unpack s f f f f;
#X obj 93 171 inlet;
#X text 132 170 file;
#X symbolatom 2 22 14 0 0 0 - #0-r-filename -;
#X obj 50 296 s \$0-r-filename;
#X text 38 341 runaway preventer;
#X obj 436 278 s \$0-new_color;
#X obj 412 299 s \$0-new_min;
#X obj 389 321 s \$0-new_q;
#X obj 366 343 s \$0-new_freq;
#X obj 344 365 s \$0-new_label;
#X text 5 550 create filter;
#X obj 95 454 r \$0-new_label;
#X obj 295 440 s \$0-initParams;
#X obj 328 394 s \$0-makeFilt;
#X obj 311 417 s \$0-makeTuner;
#X obj 5 454 r \$0-makeFilt;
#X obj 6 200 t b s b b;
#X obj 292 218 t b b b a;
#X msg 53 363 read \$1 cr \, rewind;
#X obj 557 196 r \$0-initParams;
#X obj 476 389 symbol;
#X obj 509 366 r \$0-new_label;
#X text 482 451 this will activate the filter;
#X obj 674 513 pack s f;
#X obj 673 490 symbol;
#X obj 706 467 r \$0-new_label;
#X obj 719 490 r \$0-new_min;
#X obj 677 397 pack s f;
#X obj 676 374 symbol;
#X obj 709 351 r \$0-new_label;
#X obj 722 374 r \$0-new_q;
#X obj 557 222 t b b b b;
#X obj 659 267 pack s f;
#X obj 658 244 symbol;
#X obj 691 221 r \$0-new_label;
#X obj 704 244 r \$0-new_freq;
#X obj 477 412 pack s 0.0002;
#X obj 6 412 s \$0-createAll;
#X obj 292 195 r \$0-createAll;
#X text 105 2 This patch opens and reads a file containing lines of
filter descriptors in the form:;
#X text 133 33 label freq q min color;
#X text 106 87 freq: the filter center frequency \;;
#X text 105 51 label: the text used to refer to this filter via OSC
messages (e.g. note name);
#X text 105 104 q: the filter 'q';
#X text 105 123 min: the threshold value for note trigger;
#X text 105 141 color: Pd color value \, used for GUIs;
#X text 493 -1 It reads lines from this file \, one by one \, and creates
a filter and filter tuner for each filter descriptor. Any number of
filters can be described in this file \; currently \, only the first
24 filters are represented in the tuner panel \, but only because of
its visual size.;
#X obj 677 445 s GLOBAL_OSC;
#X obj 674 558 s GLOBAL_OSC;
#X obj 477 467 s GLOBAL_OSC;
#X msg 477 435 /c:ntr:l/filter/\$1/mult \$2;
#X msg 677 420 /c:ntr:l/filter/\$1/q \$2;
#X msg 674 536 /c:ntr:l/filter/\$1/min \$2;
#X obj 659 312 s GLOBAL_OSC;
#X msg 54 246 /c:ntr:l/create_tuner/clearall 0;
#X obj 74 220 s GLOBAL_OSC;
#X obj 54 266 s GLOBAL_OSC;
#X msg 74 200 /c:ntr:l/create_filter/clearall 0;
#X obj 248 511 r \$0-new_label;
#X text 213 610 create tuner;
#X obj 5 533 s GLOBAL_OSC;
#X obj 215 593 s GLOBAL_OSC;
#X obj 215 465 r \$0-makeTuner;
#X msg 659 290 /c:ntr:l/filter/\$1/freq \$2;
#X obj 215 534 symbol;
#X obj 5 482 symbol;
#X msg 5 506 /c:ntr:l/create_filter/name \$1;
#X msg 215 570 /c:ntr:l/create_tuner/name \$1;
#X obj 343 491 f;
#X obj 358 467 r \$0-new_color;
#X obj 215 489 t b b;
#X obj 343 538 s GLOBAL_OSC;
#X msg 343 515 /c:ntr:l/create_tuner/color \$1;
#X connect 0 0 5 0;
#X connect 1 0 46 0;
#X connect 1 1 2 1;
#X connect 2 0 1 0;
#X connect 3 0 2 0;
#X connect 4 0 3 0;
#X connect 4 1 27 0;
#X connect 5 0 25 0;
#X connect 6 0 4 0;
#X connect 8 0 18 0;
#X connect 8 1 17 0;
#X connect 8 2 16 0;
#X connect 8 3 15 0;
#X connect 8 4 14 0;
#X connect 9 0 25 0;
#X connect 20 0 74 1;
#X connect 24 0 74 0;
#X connect 25 0 6 0;
#X connect 25 1 12 0;
#X connect 25 1 6 1;
#X connect 25 2 63 0;
#X connect 25 3 66 0;
#X connect 26 0 21 0;
#X connect 26 1 23 0;
#X connect 26 2 22 0;
#X connect 26 3 8 0;
#X connect 27 0 1 0;
#X connect 28 0 40 0;
#X connect 29 0 45 0;
#X connect 30 0 29 1;
#X connect 32 0 61 0;
#X connect 33 0 32 0;
#X connect 34 0 33 1;
#X connect 35 0 32 1;
#X connect 36 0 60 0;
#X connect 37 0 36 0;
#X connect 38 0 37 1;
#X connect 39 0 36 1;
#X connect 40 0 29 0;
#X connect 40 1 33 0;
#X connect 40 2 37 0;
#X connect 40 3 42 0;
#X connect 41 0 72 0;
#X connect 42 0 41 0;
#X connect 43 0 42 1;
#X connect 44 0 41 1;
#X connect 45 0 59 0;
#X connect 47 0 26 0;
#X connect 59 0 58 0;
#X connect 60 0 56 0;
#X connect 61 0 57 0;
#X connect 63 0 65 0;
#X connect 66 0 64 0;
#X connect 67 0 73 1;
#X connect 71 0 79 0;
#X connect 72 0 62 0;
#X connect 73 0 76 0;
#X connect 74 0 75 0;
#X connect 75 0 69 0;
#X connect 76 0 70 0;
#X connect 77 0 81 0;
#X connect 78 0 77 1;
#X connect 79 0 73 0;
#X connect 79 1 77 0;
#X connect 81 0 80 0;
#X coords 0 -1 1 1 88 40 1 0 0;
#X restore 219 467 pd newSet;
#X obj 219 442 symbol;
#X obj 37 281 hradio 15 1 0 3 \$0-instrSelect empty empty 0 -8 0 10
-1 -191407 -1 0;
#X obj 210 372 select 0 1 2;
#X obj 210 351 r \$0-instrSelect;
#X text 86 278 bass / guitar / piano;
#X msg 835 30 \; pd-tuner_bank obj \$4 \$5 pd \$1\$2 \; pd-\$1\$2 obj
2 2 cnv 15 26 16 empty empty empty 20 12 0 14 -233017 -66577 0 \; pd-\$1\$2
text 5 2 \$2 \; pd-\$1\$2 floatatom 0 21 5 0 0 2 - - - \; pd-\$1\$2
floatatom 0 45 5 0 0 0 - - - \; pd-\$1\$2 floatatom 0 69 5 0 0 0 -
- - \; pd-\$1\$2 obj 7 89 bng 20 250 50 0 empty empty empty 8 30 1
10 \$3 -1 -262144 \; pd-\$1\$2 obj 58 0 r \$7-tunerOSC \; pd-\$1\$2
obj 58 21 routeOSC /\$2 \; pd-\$1\$2 obj 58 43 routeOSC /freq /q /min
/level \; pd-\$1\$2 msg 58 67 set \$6 \; pd-\$1\$2 msg 57 91 set \$6
\; pd-\$1\$2 msg 57 115 set \$6 \; pd-\$1\$2 msg 185 111 /c:ntr:l/filter/\$2/freq
\$6 \; pd-\$1\$2 msg 195 141 /c:ntr:l/filter/\$2/q \$6 \; pd-\$1\$2
msg 205 171 /c:ntr:l/filter/\$2/min \$6 \; pd-\$1\$2 obj 188 212 s
GLOBAL_OSC \; pd-\$1\$2 connect 2 0 12 0 \; pd-\$1\$2 connect 3 0 13
0 \; pd-\$1\$2 connect 4 0 14 0 \; pd-\$1\$2 connect 6 0 7 0 \; pd-\$1\$2
connect 7 0 8 0 \; pd-\$1\$2 connect 8 0 9 0 \; pd-\$1\$2 connect 8
1 10 0 \; pd-\$1\$2 connect 8 2 11 0 \; pd-\$1\$2 connect 8 3 5 0 \;
pd-\$1\$2 connect 9 0 2 0 \; pd-\$1\$2 connect 10 0 3 0 \; pd-\$1\$2
connect 11 0 4 0 \; pd-\$1\$2 connect 12 0 15 0 \; pd-\$1\$2 connect
13 0 15 0 \; pd-\$1\$2 connect 14 0 15 0 \; pd-\$1\$2 donecanvasdialog
1 -1 2 0 -1 1 1 34 110 0 0 \; pd-\$1\$2 menuclose;
#X msg 10 400 presets/bass_tuning.txt;
#X msg 167 400 presets/guitar_tuning.txt;
#X msg 330 400 presets/piano_tuning.txt;
#X connect 12 0 40 0;
#X connect 12 1 14 0;
#X connect 12 2 35 0;
#X connect 14 0 43 1;
#X connect 15 0 51 0;
#X connect 17 0 12 0;
#X connect 19 0 26 0;
#X connect 20 0 22 0;
#X connect 21 0 20 1;
#X connect 21 1 18 0;
#X connect 23 0 24 0;
#X connect 24 0 43 3;
#X connect 24 1 43 4;
#X connect 25 0 41 0;
#X connect 26 0 21 0;
#X connect 26 1 39 0;
#X connect 26 2 27 0;
#X connect 28 0 43 2;
#X connect 35 0 36 0;
#X connect 36 0 43 5;
#X connect 39 0 17 0;
#X connect 39 1 20 0;
#X connect 40 0 43 0;
#X connect 41 0 42 0;
#X connect 41 1 19 0;
#X connect 43 0 16 0;
#X connect 46 0 45 0;
#X connect 48 0 52 0;
#X connect 48 1 53 0;
#X connect 48 2 54 0;
#X connect 49 0 48 0;
#X connect 52 0 46 0;
#X connect 53 0 46 0;
#X connect 54 0 46 0;
#X coords 0 0 1 1 542 311 2 0 0;
#X restore 22 11 pd tune;
#X obj 726 47 init 2;
#X obj 622 1 lib/adc_wrapper 1;
#X text 954 41 Instrument analysis \, a simple but functional \; pitch
recognition model \; First version created by Marco Donnarumma in 2007
\; major improvements and OSC capabilities were added by Phil Stone
in 2009 \; This is a new revision developed for inclusion in the Xth
Sense system.;
#X obj 600 323 import xth-sense-lib;
#X obj 623 69 efx.puncher.mono~;
#X connect 0 0 3 1;
#X connect 4 0 7 0;
#X connect 6 0 12 1;
#X connect 7 0 5 0;
#X connect 7 0 9 0;
#X connect 9 0 8 0;
#X connect 10 0 9 1;
#X connect 15 0 19 1;
#X connect 16 0 3 0;
#X connect 16 0 19 0;
#X connect 19 0 12 0;
#X coords 0 0 1 1 85 60 0;
